
<svg width="800" height="634" vewBox="0 0 16 16" fill="none" xmlns="http://www.w3.org/2000/svg">
<path fill-rule="evenodd" clip-rule="evenodd" d="M9.45194 292.875C5.49587 280.593 9.61775 283.809 0 268.853C0.473781 281.562 0.87651 278.927 2.86639 287.722L8.19642 318.369C9.90203 329.217 10.6838 326.272 13.5028 341.886L16.3928 352.929C18.1932 359.515 20.8937 367.884 22.3388 375.4C23.1205 379.468 23.9022 383.265 24.8024 387.14C25.6552 390.82 27.4319 393.997 28.7348 396.516C29.5165 398.027 31.3406 404.071 32.2171 406.628C33.4015 410.038 35.1545 412.595 36.4337 416.198C38.9211 423.133 42.7824 426.698 45.6488 432.78L59.9806 457.461C63.6524 464.512 65.7371 466.798 70.925 471.292C72.678 472.803 72.6069 473.694 74.0282 474.895C75.4022 476.058 75.9708 475.787 77.4632 477.22C79.5715 479.235 81.0639 482.451 83.0538 483.962C87.0809 487.022 92.2688 490.548 95.7984 494.849C97.6462 497.096 98.807 500.195 101.342 502.365C105.227 505.658 110.178 509.959 113.257 514.608C114.844 517.01 114.11 515.848 116.692 516.894C117.711 517.32 119.298 518.018 120.53 518.754C123.065 520.265 125.504 521.195 128.11 522.977C130.716 524.759 133.038 525.534 134.956 527.549C137.467 530.145 138.913 530.648 141.566 532.663L161.346 548.665L182.548 570.206C183.708 571.291 184.656 571.872 185.793 572.763L198.917 583.147C204.579 588.261 210.359 590.973 216.139 595.351L230.565 604.301C234.071 606.471 238.454 607.866 241.912 609.532C243.642 610.384 243.689 610.849 245.418 611.895L260.271 620.109C265.601 623.131 270.931 622.821 276.167 625.998C277.47 626.773 278.299 627.122 279.815 627.897C282.397 629.214 285.382 629.485 288.13 630.376C299.666 634.134 299.927 631.422 305.589 632.507C312.553 633.824 332.618 632.933 339.085 630.221C345.054 627.742 351.474 631.887 357.396 630.337C363.485 628.788 369.502 631.267 375.755 630.221C377.343 629.95 378.195 629.485 380.209 630.027C385.444 631.461 391.674 631.422 397.028 631.229C397.739 631.229 397.763 631.112 398.189 631.035C399.421 630.841 398.213 630.88 399.16 630.919C400.06 630.957 402.003 631.267 403.614 631.035C413.208 629.679 421.096 630.454 430.453 630.647C435.333 630.725 440.142 628.206 444.312 629.989C448.481 631.771 447.533 629.524 451.56 629.718C453.55 629.834 454.095 629.253 455.966 629.175C459.686 629.02 461.936 628.361 464.826 628.09C471.791 627.47 476.078 631.112 482.759 627.974C486.17 626.386 496.83 627.044 500.431 626.812C506.543 626.424 511.446 624.913 517.605 624.603C524.144 624.255 528.739 622.937 535.064 621.581C538.949 620.729 548.591 619.799 551.623 616.428C553.447 614.414 556.455 613.29 558.516 611.895C559.914 610.965 560.719 611.043 562.307 610.152L573.061 603.449C576.378 601.124 580.121 600.466 583.082 598.296L583.982 597.56C585.735 596.32 585.664 596.785 587.227 595.08C591.326 590.625 597.366 590.005 601.82 586.711C605.989 583.612 604.947 585.123 609.542 583.496C613.309 582.178 616.318 579.118 619.681 576.444C623.993 572.996 629.038 571.214 633.042 566.836C634.392 565.325 634.629 565.402 636.311 564.317L641.594 560.055C641.594 560.055 641.807 559.9 641.878 559.823L642.755 559.125C645.076 557.382 647.09 555.406 649.695 554.786C658.081 552.771 658.579 549.594 664.169 546.107C668.481 543.434 674.308 541.342 678.312 537.7C680.136 536.034 679.994 536.189 682.055 535.143C684.826 533.748 704.583 510.23 707.639 505.232C709.771 501.745 710.458 501.164 713.372 498.762L722.302 489.696C724.695 486.867 732.986 473.307 734.715 469.704C737.463 463.97 751.345 444.636 755.348 439.483C756.699 437.778 763.332 422.978 763.805 421.583C767.833 409.573 769.183 408.062 774.016 397.949C774.987 395.935 775.247 395.818 776.266 393.649C783.23 378.461 782.188 382.839 787.897 364.474C790.527 356.067 792.114 351.805 793.654 342.196C795.573 330.302 800.523 317.206 799.955 304.614C799.765 300.624 800.121 292.371 799.908 290.395C798.368 291.713 794.459 304.886 793.014 308.256L785.434 324.684C783.704 328.403 781.383 333.556 779.274 335.532C778.54 336.23 779.274 336.152 778.185 338.826C777.166 341.344 776.337 341.46 775.484 343.746L770.32 354.013C761.271 368.581 760.75 369.201 751.582 380.902C747.294 386.365 741.964 390.937 737.44 395.78C735.308 398.066 733.033 401.281 730.783 403.567L719.388 413.602C718.559 414.222 718.086 414.532 717.351 415.191C717.257 415.268 717.162 415.384 717.067 415.462C716.972 415.539 716.878 415.655 716.783 415.733C713.893 418.406 710.268 420.382 707.402 422.629C705.72 423.947 701.077 428.17 699.277 427.937C701.124 424.218 706.952 422.978 705.009 420.15C704.299 419.104 704.062 420.266 703.09 421.351C703.043 421.39 702.972 421.506 702.925 421.545C702.877 421.545 702.783 421.661 702.735 421.7C702.688 421.738 701.598 422.319 701.29 422.513L671.631 444.326C670.115 445.256 669.831 445.721 668.315 446.302L661.564 450.099C659.503 451.378 657.394 452.927 655.428 454.4C653.533 455.833 650.43 456.918 648.44 457.887L613.238 474.082C611.627 474.818 599.972 479.196 598.717 478.189C603.241 474.198 614.659 471.68 620.653 465.558C616.791 465.287 610.087 470.207 606.273 471.641C607.174 470.091 608.713 469.278 610.324 468.154L600.327 472.997C599.119 473.617 598.882 474.198 597.935 474.663C591.989 477.724 584.337 480.242 578.107 482.373L566.736 485.976C560.435 488.146 549.301 488.34 542.597 489.386C540.323 489.735 537.978 489.231 535.704 489.541C533.122 489.928 532.079 489.037 529.639 489.502C525.802 490.199 520.898 491.129 517.582 489.115C520.709 489.153 522.935 488.843 525.92 488.301C528.147 487.914 531.084 487.022 532.885 485.666C530.8 485.589 529.142 486.17 527.057 486.557C514.384 488.843 499.46 488.921 487.354 483.884L478.898 481.637C472.762 480.668 467.337 476.252 461.297 475.128C459.141 474.74 458.643 473.927 456.369 472.881C452.674 471.176 450.044 470.634 446.751 468.348C444.667 466.914 444.169 466.604 441.895 465.597C435.31 462.652 434.812 460.676 430.832 458.352C430.003 457.887 429.293 457.848 428.321 457.344C421.973 454.051 416.809 448.007 411.597 444.249C407.996 441.614 408.446 443.396 403.78 437.623C400.037 432.974 400.89 431.618 398.852 425.535C396.341 418.019 394.659 405.466 394.92 396.903C395.086 391.13 395.773 392.68 396.91 392.99C406.812 395.625 408.896 370.286 412.971 363.816C413.942 362.266 415.15 361.84 416.074 363.544L414.487 365.753C413.776 366.76 413.729 366.605 413.208 368.349C416.548 366.412 418.562 360.019 420.599 362.15C419.059 363.08 417.851 363.002 417.898 365.559C418.775 366.644 417.543 366.412 419.485 366.257C423.205 365.947 436.234 342.855 433.983 337.741C432.443 342.003 431.662 345.838 429.53 348.008C429.482 344.599 430.453 340.375 430.145 337.625C427.587 314.223 406.764 328.248 397.194 326.427C392.551 325.536 388.311 323.444 384.757 322.669C382.957 322.282 379.806 322.127 378.172 321.894C373.434 321.274 368.957 322.011 364.835 323.793C360.926 325.498 357.918 328.713 357.515 335.377C356.828 346.652 358.415 346.419 360.002 354.44C358.202 353.316 354.814 346.226 353.654 343.359L353.322 342.545C352.753 341.189 353.393 342.041 352.73 341.305C352.872 343.824 353.914 346.923 354.459 349.364C355.17 352.657 356.378 352.115 358.06 354.943C358.841 356.261 358.889 356.454 359.86 357.733C361.21 359.438 360.689 358.934 362.111 359.941C363.84 361.181 364.93 362.576 367.038 362.653C366.398 353.897 364.195 361.414 361.258 351.999C360.097 348.318 359.268 341.15 360.215 337.005C360.76 334.564 362.679 331.348 363.911 330.108C369.43 324.684 372.392 327.086 377.082 326.544C383.573 325.808 385.397 327.706 391.153 329.14C404.372 332.433 412.781 326.66 421.641 328.83C428.369 330.496 429.387 346.536 425.431 354.285C424.697 355.718 422.494 360.057 421.404 361.065C423.015 342.584 415.316 341.964 411.478 357.152C409.323 365.675 407.025 379.081 403.329 385.745C401.363 389.309 397.36 391.557 394.683 387.488C396.104 383.227 395.323 379.74 395.559 374.897C395.702 372.029 396.886 364.319 395.086 362.033C394.659 365.714 394.517 384.389 392.717 387.682C390.798 389.813 388.216 389.077 386.676 386.675C382.436 380.011 383.265 355.834 374.476 347.078C371.586 344.211 367.725 344.986 367.227 351.96C366.73 358.895 367.843 358.43 368.744 362.692C372.084 362.731 372.818 362.421 375.471 364.668C376.016 361.762 375.329 362.692 376.608 361.569C377.414 363.893 378.243 365.714 379.214 367.651L378.906 362.227C380.872 364.629 381.488 377.182 382.388 381.406C384.212 390.007 386.463 390.782 390.443 393.378C390.49 399.228 389.092 398.608 389.874 404.458C390.324 407.79 389.779 410.929 389.235 414.571C387.292 427.705 388.311 422.048 384.449 432.703C383.786 434.524 383.833 435.028 382.53 435.919C378.977 438.282 375.021 443.435 369.691 447.348C368.009 448.588 366.256 449.595 364.479 451.029L353.511 458.778C343.325 466.798 340.482 467.379 330.959 472.803L319.186 478.266C319.304 474.585 321.365 475.128 322.929 473.113L323.711 471.873C318.167 474.237 315.064 477.724 308.479 479.467C306.039 480.126 303.693 482.218 301.253 482.799C299.287 483.303 296.231 484.62 293.72 485.589L277.233 490.083C273.656 490.548 263.256 494.694 260.793 492.64C263.541 490.664 268.823 491.246 271.95 489.347C271.216 488.224 271.974 488.921 270.884 488.533C269.581 488.03 268.657 488.921 267.425 489.502C263.73 491.168 259.537 491.207 255.818 491.865C252.809 492.408 252.904 493.221 251.814 490.393L239.449 492.679C236.511 492.602 235.469 493.338 232.484 492.602C230.542 492.137 228.173 492.175 225.922 491.71C222.203 490.936 204.602 486.557 202.636 484.698C206.829 484.582 207.208 483.768 210.477 485.589C211.022 485.899 216.068 484.853 218.792 485.434C217.607 483.38 216.92 483.419 214.48 483.652L203.986 482.683C199.438 481.753 193.8 480.785 189.631 478.925L180.937 474.973C178.947 473.849 177.881 474.547 175.962 473.462L174.091 472.183C169.211 470.905 160.185 466.488 155.447 463.04C153.813 461.839 149.288 458.855 147.393 458.042L149.999 457.344C149.383 454.477 149.265 454.787 147.109 454.245L130.479 447.542C126.286 445.024 122.757 441.692 118.611 439.444L101.389 427.163C99.3281 425.458 97.9542 424.334 95.7511 422.784L90.1605 418.213C84.9963 414.222 79.5952 407.597 74.6915 402.327L35.8178 349.945C34.8466 348.434 34.7992 347.853 34.0648 346.303C32.6672 343.32 31.3169 343.281 29.8719 339.523C28.0241 334.757 21.7465 323.987 18.8091 317.439C17.7431 315.075 17.9089 315.812 17.0324 313.061C16.5823 311.705 16.227 310.504 15.5637 309.07L9.33348 292.681L9.45194 292.875ZM759.139 375.904C760.939 374.005 762.431 371.332 764.279 368.697C765.322 367.225 765.772 366.179 766.672 364.707C767.525 363.312 768.188 362.886 769.088 361.491C771.078 358.43 776.692 347.233 778.185 346.032C778.09 348.085 775.721 368.697 774.868 371.797L769.278 385.939C767.809 388.186 768.709 386.752 768.401 386.636L767.406 385.551C766.814 388.031 766.103 389.116 764.493 389.891C763.426 387.217 762.431 386.171 761.744 382.994C760.75 378.422 761.389 380.204 759.494 376.679L759.139 375.904ZM49.8654 394.889C47.615 401.63 45.3882 396.942 43.5168 393.533C42.3797 391.44 38.9685 385.086 38.5895 382.917C37.405 376.098 33.9227 359.476 34.894 353.238C36.6233 354.168 36.9549 356.144 39.3712 358.856L41.6927 361.53C44.109 364.746 45.2698 366.993 48.1835 369.627C51.5947 372.727 52.6607 375.051 51.9975 379.585C51.5947 382.452 50.5998 392.641 49.8654 394.85V394.889ZM735.402 403.296C737.748 401.63 739.335 399.809 741.182 397.756C742.414 396.361 742.651 395.818 743.788 394.811C748.905 390.2 752.174 383.343 756.746 379.275C756.699 391.324 754.164 408.72 749.308 417.786L742.888 424.218C741.538 422.242 743.054 424.567 742.201 422.901C741.94 422.397 741.751 422.01 741.561 421.661C734.241 407.519 736.682 414.687 735.426 403.296H735.402ZM78.8134 412.943C78.8134 412.943 78.7423 413.176 78.766 413.331C80.519 415.229 80.4953 414.842 82.6274 416.353C83.8592 417.205 85.6359 418.445 85.7543 420.382C85.9201 423.327 86.0386 420.421 84.8778 423.327L81.5614 431.734C76.5156 442.854 76.4682 440.103 72.9622 439.018C71.3751 438.515 72.0621 439.173 71.0197 438.902C66.1872 437.662 61.3309 420.227 59.6964 412.556C57.825 403.722 55.5745 393.029 55.8351 382.142C57.2801 383.072 58.1329 384.234 59.1515 385.629L72.8201 404.342C77.0131 409.728 75.4733 408.991 79.0977 410.619C79.3583 412.207 78.8845 413.176 78.8845 412.943H78.8134ZM732.844 407.868C732.465 409.224 732.489 409.573 732.37 410.735C730.712 427.008 728.935 431.851 723.937 445.295C722.587 448.937 721.521 450.37 720.076 453.315C712.898 467.999 713.822 461.8 707.141 451.145C705.27 448.162 706.502 449.402 705.459 446.767C705.294 446.341 700.603 440.219 700.698 433.749C700.745 430.843 701.432 431.657 702.901 430.533L733.744 405.659L732.844 407.868ZM114.465 442.97C114.015 445.179 113.423 446.186 113.447 449.402C113.494 455.02 113.755 464.706 111.267 469.006C109.728 471.68 105.961 471.796 103.758 470.789C98.1437 468.193 97.2672 467.573 93.8086 451.765L87.3415 421.041C89.0471 421.738 89.1419 422.784 90.4921 424.373C92.0082 426.116 92.3872 425.574 93.8323 426.853C94.9693 427.899 95.8932 429.293 97.0303 430.262L103.758 435.764C106.079 436.732 105.487 435.493 107.69 437.391C110.249 439.638 112.239 440.607 114.465 443.009V442.97ZM670.163 454.865C675.611 451.145 669.878 453.315 676.772 449.363C679.259 447.929 681.225 446.38 683.594 444.83L697.216 435.26C697.239 448.859 696.742 449.286 692.312 463.001C691.791 464.628 691.672 464.744 691.127 466.101C689.588 470.014 687.242 476.29 685.039 479.157C683.997 480.513 682.955 481.521 681.794 482.683C679.638 480.862 676.417 472.92 675.09 469.742C672.934 464.551 671.845 463.737 670.163 454.865ZM142.111 494.965C141.447 497.251 141.187 497.91 140.192 500.467C137.941 499.498 136.662 501.513 134.222 498.839C133.44 497.987 132.824 497.096 131.972 496.05C129.484 492.989 125.173 489.541 122.757 480.901C118.682 466.255 118.066 462.071 116.313 446.302C116.171 445.14 116.1 445.411 116.029 443.745L138.533 456.298C139.765 457.189 141.637 458.274 142.608 459.049C145.972 461.761 144.693 470.827 144.693 472.997C144.669 478.111 144.811 487.294 143.034 492.175C142.418 493.88 142.726 492.795 142.111 495.004V494.965ZM361.732 462.846C361.732 460.405 370.568 454.593 373.339 451.92L387.813 436.81C388.784 435.26 389.898 433.594 390.751 432.238C391.059 435.609 391.248 433.672 391.603 437.43L392.812 467.65C392.812 470.052 392.74 472.377 392.859 474.779C393.214 482.451 392.267 514.105 390.158 520.614C389.779 521.737 388.998 524.372 388.595 525.224C387.884 526.774 387.008 527.588 385.823 528.634C383.573 530.687 383.881 532.276 381.322 530.184C381.228 530.106 381.133 529.99 381.038 529.912C378.361 527.471 375.542 524.256 374.334 519.916C372.747 514.143 370.733 507.944 368.815 503.14C365.948 495.934 361.66 473.966 361.708 462.807L361.732 462.846ZM401.719 528.285C401.34 528.363 401.576 528.711 400.984 528.401C398.734 527.2 397.739 505.348 397.526 500.157C397.028 489.192 396.862 477.104 396.175 465.752C396.01 462.885 395.654 461.49 395.465 457.77C395.323 454.903 394.944 453.586 395.038 450.99C395.678 436.112 392.812 430.998 401.482 440.994C406.077 446.263 406.409 445.721 410.057 449.324L421.215 458.468C422.589 459.32 423.678 460.211 424.981 460.986C424.91 464.783 423.986 470.13 423.631 473.462L422.802 481.443C422.589 482.877 422.494 483.884 422.328 484.969C421.238 491.827 418.609 500.622 416.501 507.247C416.24 508.061 415.908 508.874 415.506 509.998L411.028 520.691C410.294 522.008 409.228 523.752 408.281 524.837C404.467 529.176 404.23 527.704 401.719 528.363V528.285ZM635.174 470.827C637.685 469.587 641.215 468.309 643.868 467.069C646.782 465.713 648.914 464.047 651.827 462.846L663.696 457.925C668.552 457.693 662.606 484.039 660.687 489.386C658.697 494.887 654.22 506.472 649.956 506.395C644.839 506.317 643.015 504.612 640.054 490.199C638.633 483.303 636.714 478.034 635.174 470.75V470.827ZM149.099 470.75C148.696 468.619 147.725 463.505 147.725 463.195C149.028 461.684 155.163 468.038 160.162 470.207C163.952 471.835 171.509 476.251 174.991 476.329L175.725 503.179C173.546 513.252 173.143 506.007 170.537 520.652C163.975 523.364 162.246 516.778 157.011 504.302C156.158 502.249 155.282 499.072 154.595 496.786C149.051 478.382 151.373 483.032 149.051 470.711L149.099 470.75ZM598.124 484.659C601.133 483.807 604.094 482.141 607.103 481.676L612.077 480.281C613.617 479.622 615.015 479.545 616.625 479.157C620.653 478.15 631.005 472.067 633.847 472.455L633.303 474.353C633.303 474.353 633.208 474.702 633.184 474.857L633.018 476.019C632.568 480.63 633.16 481.443 631.455 489.386C630.46 494.074 628.967 499.576 627.57 503.256C625.201 509.533 622.666 523.326 616.365 525.147C614.944 522.28 613.878 522.357 610.49 516.972C604.165 506.937 602.365 504.031 599.783 490.626C599.048 486.79 598.622 487.294 598.124 484.698V484.659ZM450.068 515.228C449.002 517.94 443.601 528.363 440.237 524.178C438.129 521.544 435.073 502.288 434.386 496.399L432.301 465.946C436.636 468.27 441.279 471.718 445.306 473.966L457.98 480.707C457.933 484.775 457.317 485.705 456.938 489.037C456.559 492.253 456.393 494.074 456.014 496.825C454.664 506.821 452.721 508.487 450.092 515.267L450.068 515.228ZM358.699 463.815C358.699 466.294 358.747 469.045 358.699 471.486C358.605 474.934 358.439 474.74 357.87 477.801C355.975 487.952 354.269 504.341 352.185 510.308C350.645 514.725 351.616 513.872 349.366 520.187C345.315 531.501 341.383 533.515 335.768 519.258C334.394 515.771 334.205 512.361 333.305 509.029L330.912 499.459C330.107 494.771 329.159 485.163 330.296 480.513C330.936 477.918 330.699 478.382 332.547 477.763C337.213 476.252 341.004 473.346 345.457 470.827C350.077 468.193 354.151 465.093 358.699 463.892V463.815ZM286.069 493.028C287.822 492.33 289.172 492.175 291.02 491.865L299.311 488.262C300.803 487.604 302.296 487.72 303.764 487.022C303.883 486.984 303.978 486.906 304.096 486.829L304.712 486.441C305.517 486.015 304.167 486.286 305.66 486.015C306.773 485.821 307.081 486.286 307.839 486.364C309.213 486.519 310.776 485.705 312.245 485.434C314.093 485.124 315.443 484.698 316.936 484.194C318.878 483.535 318.807 482.567 320.915 482.451C319.944 485.163 319.991 483.342 319.778 487.332C318.925 503.256 320.015 505.232 319.589 521.156L318.997 532.121C318.76 535.337 319.281 533.477 319.352 537.002C319.352 538.32 319.115 540.916 319.091 542.775C318.949 551.687 316.414 566.409 310.8 557.033C309.687 555.174 308.668 553.004 307.602 550.757C304.973 545.294 300.566 538.63 298.979 535.375L293.199 521.854L286.021 493.067L286.069 493.028ZM198.088 486.867C203.323 489.773 212.443 492.485 213.888 493.493C213.793 497.096 213.651 494.19 213.296 497.29C212.87 501.087 213.746 503.14 212.254 508.835C208.629 522.628 209.766 519.839 202.826 528.634C197.353 535.569 193.279 525.883 190.294 519.296C189.346 517.204 189.062 516.313 188.209 514.143C187.522 512.4 187.878 513.562 187.214 511.393C184.561 502.443 182.121 490.509 181.813 480.475C187.143 481.404 185.39 481.366 190.507 483.419L198.064 486.867H198.088ZM569.555 489.618C572.374 489.657 573.204 490.277 576.591 489.618L595.163 486.054C595.353 494.229 593.387 506.395 591.349 513.33C589.596 519.258 583.603 533.903 580.452 536.499L577.136 537.7L572.28 526.193C570.337 521.544 564.652 513.02 562.638 507.479C560.861 502.559 559.559 495.12 558.114 491.71C561.904 490.858 565.694 489.58 569.532 489.657L569.555 489.618ZM476.908 488.301C486.975 492.679 488.065 488.843 486.762 495.74C484.512 507.557 486.904 500.893 482.711 515.848C480.058 525.263 473.686 540.916 468.024 545.139C461.083 550.292 463.523 535.724 461.984 517.63C461.699 514.221 462.031 510.308 461.984 506.201C461.889 501.087 461.036 491.555 462.457 485.86C462.505 485.666 462.552 485.473 462.599 485.318L463.121 483.535L476.931 488.301H476.908ZM523.504 496.67C528.147 495.12 534.14 495.74 539.162 495.314C543.284 494.965 550.107 493.996 553.873 492.485C553.826 500.505 553.565 501.823 552.215 508.332C549.562 520.962 550.675 514.415 549.017 521.156C548.235 524.294 547.809 523.907 546.577 526.542C545.866 528.053 545.345 529.564 544.35 531.578C542.858 534.523 540.797 537.661 538.594 539.366C533.856 543.047 532.956 536.731 531.913 532.624L530.421 528.556C526.11 516.003 528.763 515.771 526.228 508.952C524.925 505.426 523.551 502.016 523.504 496.708V496.67ZM253.994 497.6C264.299 496.708 271.784 495.779 281.781 494.578L280.952 523.403C280.952 528.789 281.26 544.79 278.062 547.308C274.959 549.749 271.358 541.691 269.676 538.94C266.975 534.523 266.265 534.135 262.806 527.898C261.977 526.387 262.167 526.115 261.432 524.488L260.224 522.086C260.224 522.086 259.963 521.311 259.916 521.117C259.513 519.916 259.111 518.793 258.661 517.437C258.613 517.32 258.542 517.127 258.495 516.972C258.447 516.817 258.4 516.662 258.353 516.507L254.041 497.6H253.994ZM491.263 494.461C491.263 490.858 491.903 492.059 493.798 492.369L511.849 495.507C514.502 495.624 517.132 495.43 519.761 495.74C519.714 505.232 513.886 520.885 510.736 529.176C508.367 535.414 504.813 542.465 499.673 543.085C499.246 537.39 499.246 536.615 497.778 531.578C495.954 525.379 495.717 526.115 494.698 523.055L493.845 520.071C492.282 515.073 493.253 516.894 492.424 512.322C490.979 504.38 491.192 502.055 491.216 494.539L491.263 494.461ZM223.056 496.011C228.86 497.948 243.523 497.212 250.227 498.142C251.933 505.93 253.686 521.311 251.104 529.951C247.977 540.412 246.532 546.65 238.643 538.785C234.735 534.872 228.954 524.876 226.704 520.149C222.914 512.245 222.44 510.424 220.355 502.559C219.692 500.079 219.503 497.948 219.266 495.081C221.469 495.081 221.185 495.43 223.032 496.05L223.056 496.011ZM619.421 544.829C620.724 540.296 621.624 536.189 623.14 532.159C626.646 531.927 627.783 534.678 629.962 537.08C631.573 538.901 633.137 544.131 633.942 547.308C630.412 551.067 627.214 552.578 623.14 554.709L615.725 557.769L619.397 544.829H619.421ZM592.557 569.935C592.842 568.114 594.31 565.944 595.116 562.38C595.85 559.203 596.3 556.53 597.153 553.391L600.422 539.986C600.991 537.545 600.991 538.126 601.536 536.034C610.158 536.111 615.441 550.757 614.565 556.878C613.854 558.97 613.641 558.699 612.053 559.397C608.69 560.908 608.619 562.186 603.691 564.317C601.37 565.325 594.5 569.935 592.581 569.896L592.557 569.935ZM195.766 557.924C196.24 554.399 194.866 541.729 199.888 541.768C203.299 541.807 203.749 542.465 204.697 543.899C206.26 546.262 207.35 549.517 208.274 552.461C208.771 554.011 209.743 556.297 210.477 558.196C211.164 559.978 214.788 566.099 215.12 569.354L209.008 566.254C206.687 565.053 210.927 567.378 208.321 565.906L198.159 559.319C196.856 558.467 197.59 558.389 195.743 557.847L195.766 557.924ZM347.873 557.576C347.873 555.174 349.271 549.439 350.479 548.2C351.474 547.192 352.114 547.347 353.204 546.185C354.459 544.79 353.89 544.286 355.833 544.054C356.567 546.03 360.784 564.433 363.674 571.33L368.815 586.673C368.009 587.409 356.022 589.733 354.672 589.695C350.574 589.617 350.811 588.959 348.916 578.575C348.039 573.655 347.85 563.194 347.873 557.576ZM449.807 584.309C451.205 581.171 452.389 577.994 453.763 575.127L461.533 556.801C462.528 555.329 463.215 554.631 465.134 555.561C466.153 556.026 466.982 557.382 466.982 559.513L466.271 575.669C465.703 579.931 465.963 582.643 465.466 586.556C461.581 586.479 455.587 584.542 454.142 584.503C451.939 584.503 452.224 584.619 449.831 584.309H449.807ZM570.006 571.369C570.764 568.579 577.515 553.314 578.77 547.58C581.945 547.502 584.93 547.58 586.73 552.926C587.085 554.011 588.696 562.419 588.696 563.697C588.649 572.841 589.052 572.337 585.356 573.073C583.698 573.383 582.49 574.236 580.902 574.197C577.349 574.158 579.671 573.771 574.293 577.103C572.209 578.381 569.887 579.234 567.352 579.854L570.006 571.33V571.369ZM294.597 595.196C291.138 594.383 286.4 594.964 282.8 594.228C276.048 592.91 277.209 595.158 275.314 585.433C274.366 580.551 274.39 572.221 274.366 568.075C274.343 561.876 274.982 558.622 277.375 554.321C282.16 556.413 285.595 565.944 288.082 572.144C292.536 583.263 290.735 580.822 293.033 589.811C294.289 594.654 294.526 592.562 294.621 595.196H294.597ZM374.381 563.039C374.381 561.334 376.798 550.524 378.764 547.386L380.778 543.667C382.27 544.519 382.957 545.565 383.81 547.541L385.823 552.849C388.69 559.319 391.367 567.417 393.688 574.507C394.565 577.18 396.507 582.953 396.602 586.673C393.641 586.634 392.456 587.06 389.779 586.673C384.97 585.937 381.322 586.053 376.727 586.673C375.732 583.883 375.661 580.474 375.4 576.754C374.903 570.129 374.287 572.221 374.358 563.077L374.381 563.039ZM470.796 587.68C471.625 584.968 473.094 581.481 474.373 578.265C476.576 572.686 482.403 551.454 483.896 549.129C486.383 545.294 488.515 549.091 489.321 552.268C493.656 569.354 492.708 568.037 491.074 588.842C491.453 588.842 492.045 588.92 492.4 588.842C493.987 588.377 492.945 588.687 493.395 588.261L502.658 569.548C505.05 562.341 508.532 548.006 513.318 551.493C517.274 554.36 516.753 576.599 516.539 583.418C516.397 587.99 516.042 585.472 515.734 589.269C513.649 589.269 511.28 588.959 509.219 589.269C495.03 591.399 494.366 590.315 480.271 588.455C479.395 588.339 479.087 588.339 477.997 588.455C472.312 589.114 477.429 588.804 470.772 587.68H470.796ZM222.985 572.763C223.174 563.93 226.443 544.868 232.176 543.628C238.335 553.972 249.422 584.58 250.583 586.595C252.999 590.818 249.801 584.697 251.293 587.796C244.826 584.658 239.804 581.055 233.811 577.839C232.437 577.103 231.489 577.258 230.092 576.638C228.623 575.979 228.007 575.592 226.254 575.011C225.662 574.817 225.046 574.662 224.477 574.275C224.288 574.158 223.719 573.616 223.577 573.461L222.985 572.725V572.763ZM544.184 585.975C544.54 583.031 545.937 578.691 546.98 576.599C552.097 566.138 552.144 562.341 555.271 551.26C558.066 541.303 564.983 552.926 563.562 581.093C558.611 583.263 546.411 585.007 544.184 586.014V585.975ZM253.781 561.063C253.804 556.065 255.723 550.253 258.116 547.89C259.182 549.013 260.153 550.292 260.911 552.229C261.314 553.275 261.101 552.81 261.361 553.585L266.573 568.773C267.212 570.749 268.065 572.492 268.539 574.197C269.178 576.483 269.25 577.723 270.079 580.357C271.145 583.728 270.789 583.147 271.405 586.711C271.997 590.043 272.4 589.462 273.158 592.136C269.937 592.097 266.502 591.206 263.256 590.547C261.74 590.237 260.271 590.198 258.282 590.043C256.363 589.888 255.557 589.075 253.804 588.649C255.344 580.784 253.686 576.405 253.686 573.345L253.757 561.101L253.781 561.063ZM400.818 583.031C401.032 580.435 401.387 579.854 401.648 577.723L403.614 562.806C404.467 557.808 409.962 541.729 413.658 543.24C417.898 544.945 419.912 562.419 419.888 568.889C419.817 581.636 419.083 576.948 419.035 583.999L400.842 583.069L400.818 583.031ZM428.535 584.077C428.748 581.636 430.785 575.049 431.496 572.841C435.096 561.76 436.565 546.456 442.487 544.713C447.107 550.834 446.443 569.431 445.377 579.505C444.88 584.116 445.306 584.464 443.103 584.425L432.585 584.193C431.354 584.193 431.662 584.697 430.169 584.58L428.558 584.077H428.535ZM323.142 571.524C323.142 569.974 324.327 563.542 324.777 561.954C326.032 557.498 326.53 544.364 330.983 549.556C332.097 550.873 333.21 554.825 333.873 557.111C336.74 566.991 342.354 580.357 343.491 590.121C340.175 590.082 336.811 589.927 333.518 589.927C331.315 589.927 326.743 591.709 326.056 590.973C324.161 588.997 323.095 576.87 323.118 571.485L323.142 571.524ZM517.819 587.68C517.771 586.208 521.49 580.086 522.367 578.381C524.072 574.972 524.57 570.633 526.441 567.804C530.468 561.721 528.502 561.876 530.99 557.188C532.411 554.515 535.325 552.074 537.954 551.183C539.849 554.554 539.636 556.142 539.968 561.101C540.584 570.671 540.631 577.297 540.371 586.556C536.13 586.479 533.24 588.3 528.929 588.261L519.998 588.532C518.577 588.649 518.482 588.494 517.842 587.68H517.819ZM296.966 570.4C296.966 567.649 297.961 557.692 299.761 554.67C301.396 555.329 300.33 554.592 301.514 556.336L309.734 573.035C311.25 575.94 313.43 579.195 314.661 582.217C316.249 586.091 316.651 589.85 318.475 592.407L314.993 594.422L300.969 595.003C297.06 594.925 296.942 576.715 296.989 570.361L296.966 570.4Z" fill="white"/>
<path fill-rule="evenodd" clip-rule="evenodd" d="M338.233 184.99C338.28 178.743 336.916 170.452 336.399 164.359C336.117 161.12 335.952 157.032 335.458 153.793L333.366 139.486C331.18 127.069 329.722 121.708 326.666 109.754C325.984 107.054 324.973 104.625 324.15 101.733C321.752 93.4415 316.274 81.564 314.464 76.2423C313.288 72.8102 307.998 62.938 306.259 60.3543C302.544 54.8398 292.012 39.376 288.744 36.0595C288.062 35.3654 288.25 35.4811 287.662 34.9412C284.23 31.7405 282.325 27.9998 277.741 24.6448L271.863 19.246C269.089 16.3152 266.268 15.1197 263.164 12.6517C259.238 9.52807 251.503 5.09331 246.989 3.70504C233.447 -0.498348 221.269 -0.76829 207.845 1.12131L189.93 7.21428C189.013 7.83129 188.308 8.40974 187.485 9.02675C186.639 9.64376 187.438 9.21957 186.239 9.83658C183.018 11.4562 180.69 14.6955 177.728 16.4694L162.893 30.0822C162.893 30.0822 162.682 30.2751 162.611 30.3136L155.111 38.7589C153.983 40.1087 154.241 40.1472 153.301 41.5355C151.914 43.6179 150.503 44.1963 149.069 45.9703C146.883 48.6311 148.481 46.5101 147.47 49.5952C147.047 50.9063 146.812 50.4821 145.989 51.6776L143.168 57.115C142.463 58.8118 136.491 68.0669 134.422 72.8102C133.882 74.0442 133.741 75.0854 133.106 76.358C131.954 78.6718 132.518 76.4352 131.413 79.2503C130.708 81.0627 131.107 81.0242 130.19 82.9909L124.383 97.1821C123.208 100.306 122.62 101.27 121.633 104.933C120.904 107.633 120.246 109.754 119.446 112.916C116.061 126.259 113.733 130.269 111.617 147.237L108.914 166.634C107.268 178.319 107.456 191.623 107.386 203.385C107.315 213.18 109.29 224.093 109.478 234.197C109.572 240.29 111.805 251.281 113.028 257.489C114.086 262.927 121.75 288.61 123.584 292.35C127.04 299.369 126.758 300.718 128.991 306.31L135.151 319.769C139.595 330.258 148.717 343.061 155.205 350.658C155.958 351.545 156.522 352.509 157.11 353.28C158.638 355.247 175.024 371.906 177.328 373.217C178.786 374.027 178.527 373.641 179.938 374.683L192.798 382.395C193.809 382.897 194.632 382.897 195.69 383.398C198.417 384.748 200.627 387.948 206.293 388.18C210.737 388.334 214.874 390.185 219.412 390.262C225.783 390.378 227.429 389.414 231.637 389.221C233.894 389.144 235.893 389.105 238.149 388.642L243.392 386.83C245.109 386.329 247.671 385.75 249.293 384.902L262.929 377.421C264.316 376.688 264.834 377.074 265.727 376.302L267.749 373.911C271.84 370.595 269.912 373.024 274.92 367.78C279.057 363.461 281.032 364.232 285.076 358.795L292.811 350.041C294.527 348.074 295.115 346.763 296.525 344.68C299.065 340.863 301.486 337.623 303.884 333.806C310.232 323.625 311.008 320.386 315.639 311.555C319.965 303.302 327.394 281.321 329.722 269.984L331.673 261.885C332.426 258.569 333.154 256.487 333.507 252.746L337.269 225.096C338.139 211.715 338.186 198.218 338.256 185.068M216.473 6.28877C216.826 6.01883 217.86 5.5175 218.236 5.55607C221.716 5.59463 220.681 5.28613 221.41 7.02147L220.846 7.17572C220.846 7.17572 220.634 7.17572 220.54 7.17572C220.446 7.17572 220.305 7.17572 220.211 7.17572C219.13 7.17572 218.73 6.79009 217.319 7.94698C218.166 9.56664 216.544 8.8725 219.083 9.37382C221.481 9.83658 221.269 7.02147 223.056 6.09595L232.484 6.6744C232.484 6.6744 232.719 7.09859 232.766 6.94434C232.813 6.79009 232.93 7.17572 233.024 7.25285C230.085 9.06532 230.556 8.33261 227.923 10.9935C223.761 15.1969 222.68 15.4282 218.589 19.863L211.442 31.8176C211.442 31.8176 211.301 32.0875 211.23 32.2032C211.16 32.3189 211.089 32.4731 211.019 32.5888C206.223 41.3041 208.879 36.5994 205.517 45.816C204.53 48.5154 203.636 50.0194 202.767 52.7959C201.873 55.611 200.956 58.4647 200.345 61.0099C199.569 64.1721 199.287 66.6015 198.605 70.4964C196.372 83.2994 196.113 85.4204 195.126 99.226V104.355C194.515 108.597 194.373 117.505 194.35 121.824C194.35 125.218 195.079 126.529 195.055 128.264C195.008 135.63 194.656 129.459 195.525 138.792C195.784 141.684 196.913 147.623 195.714 150.091C195.055 147.738 194.303 143.535 193.621 140.604C192.328 134.858 192.399 132.93 191.623 128.187C188.402 107.941 188.12 96.4109 188.943 75.1626L191.058 53.2973C191.458 50.0965 192.21 47.7442 193.127 44.6977C194.961 38.489 196.724 33.9771 199.193 29.5424C201.544 25.3004 203.966 20.8271 206.575 16.5466C208.456 13.4615 209.138 13.0373 211.23 11.2249C214.31 8.56399 213.064 9.99083 216.802 9.72089C216.591 8.4483 216.261 7.17572 216.403 6.28877H216.473ZM176.459 26.6887C178.245 25.1462 175.871 25.956 178.198 25.2618C178.198 25.1462 178.104 24.9919 178.104 24.9533C178.104 24.9148 178.01 24.6834 178.01 24.6063L178.175 22.3696L180.738 24.2206C180.667 26.2645 180.338 27.1514 180.032 28.424C179.68 29.928 179.68 29.928 179.397 31.7019C177.705 42.6538 177.305 47.05 177.117 56.2666C177.117 57.3464 177.117 58.8503 177.187 59.9301C177.846 71.6148 178.269 84.3792 180.573 96.6037C181.819 103.198 183.747 116.965 185.275 122.865C186.145 126.259 187.838 132.892 187.955 136.247C186.027 133.856 186.215 134.203 185.016 130.501C180.549 116.772 174.037 97.9148 172.603 83.2223C172.227 79.3274 171.71 78.2862 171.404 74.9697L169.923 58.5033C169.758 55.4954 169.711 53.3358 169.688 49.788C169.641 27.4985 170.252 32.049 176.506 26.6501L176.459 26.6887ZM202.508 182.445C201.544 179.939 202.955 170.182 202.814 167.097C202.649 163.511 202.696 144.383 203.401 139.833C203.801 137.249 203.613 135.552 203.895 132.12C204.201 128.264 204.741 128.495 204.977 124.832L207.069 111.258C207.069 111.258 207.163 110.911 207.21 110.756C207.257 110.602 207.304 110.409 207.328 110.255C208.103 106.36 207.375 104.316 209.232 101.81C211.512 98.7246 209.232 98.9175 210.501 94.7912C210.878 93.5958 211.066 94.4056 211.489 92.6317C213.135 85.5361 216.003 75.741 219.036 69.8794L224.396 57.8477C226.912 52.7959 231.802 48.0912 235.07 44.6205C240.171 39.2217 241.77 39.0674 247.53 35.8281C260.484 28.5783 275.39 33.0516 286.487 44.0807C289.566 47.1271 290.225 45.7389 289.402 47.8598C291.001 47.5899 291.024 44.6591 290.883 49.9037C291.635 49.2867 291.776 49.0553 292.905 49.2481C293.446 56.8065 293.187 50.2508 295.985 54.994C296.455 55.8039 296.925 57.1921 297.466 58.2719C298.077 59.4288 298.524 60.0844 299.182 61.2027C302.074 66.0231 306 77.9777 306.823 83.6465C307.058 85.3432 307.246 86.8086 307.458 88.3126C307.622 89.5466 307.975 91.7447 308.092 93.0559C309.715 109.599 303.296 122.557 297.231 133.393L290.084 145.309C287.85 148.934 280.774 159.307 278.564 160.233C283.712 151.093 284.606 152.559 290.037 139.486C291.095 136.902 292.153 134.704 293.258 131.85C298.665 117.543 299.535 94.8298 294.08 79.3274C291.424 71.8461 286.44 63.9021 281.408 60.7399C276.777 57.8091 269.583 54.4927 264.693 56.5366C263.329 57.115 262.741 56.9222 261.26 57.2307C258.086 57.9248 257.287 58.966 255.053 60.0072C252.467 61.2027 251.597 62.2825 249.364 64.2492L239.231 74.0442L230.979 87.0014C227.053 93.6729 226.841 95.0226 223.996 101.308C219.717 110.756 220.188 111.142 217.531 117.235C215.062 122.904 213.605 128.11 211.653 134.126L209.091 142.918C206.74 151.479 206.223 158.767 205.118 163.009C203.448 169.372 203.636 175.928 202.508 182.484V182.445ZM164.727 95.3311C162.799 92.0532 161.012 88.0812 159.437 83.7236C158.967 82.451 159.226 83.068 158.849 81.8726C156.122 73.1958 155.464 72.7716 153.395 63.0923C152.549 59.1974 151.608 53.6443 152.925 50.2508C152.972 50.0965 153.066 49.9423 153.113 49.8266L157.486 44.9676C158.238 44.6977 158.05 44.8519 158.403 45.0447C158.591 45.8546 158.567 45.0447 158.544 46.703C158.497 52.3717 157.251 46.1631 158.802 66.5244L160.119 77.0136C160.989 82.3353 164.751 94.7912 164.774 95.4082L164.727 95.3311ZM144.391 67.3728C144.555 68.1055 144.72 69.031 145.002 69.9565L150.456 84.919C150.997 86.6544 149.68 84.3792 151.021 86.0374C152.337 87.6956 151.914 86.2688 152.995 89.1996L162.682 108.982C163.598 110.679 167.807 117.196 167.995 118.816C166.232 117.736 158.262 107.478 155.558 103.352C154.359 101.54 153.16 99.573 151.937 97.9148C148.364 93.0944 139.783 76.5894 138.301 71.8847C139.077 70.9592 140.159 69.1081 140.982 67.797C142.157 65.946 142.298 64.7505 143.239 63.0152C143.709 64.3649 144.038 65.6375 144.414 67.3342L144.391 67.3728ZM283.242 172.804C280.75 174.617 280.35 176.314 278.987 174.386C281.502 173.074 285.382 168.64 287.709 165.825C287.78 165.747 287.874 165.593 287.968 165.516L299.37 152.019C305.318 145.116 312.748 134.049 315.451 122.518C316.721 117.158 318.649 105.975 318.39 99.573L318.225 95.2925C318.413 93.7114 318.178 94.7141 318.578 93.7886C320.247 98.2233 321.964 102.234 323.139 107.671C323.774 110.564 324.691 112.299 324.173 115.538C324.032 116.387 322.669 122.287 322.504 122.827C321.235 127.107 319.001 131.503 317.003 134.588L312.089 142.224C306.306 152.173 308.234 147.121 303.273 153.523C296.314 162.47 290.977 167.213 283.266 172.843L283.242 172.804ZM128.756 94.2128C130.19 91.3977 130.167 88.3897 132.142 86.2688C133.129 87.04 137.291 95.254 139.289 98.2619L151.843 113.571C154.97 117.042 162 125.603 164.821 127.454C163.904 128.765 166.161 129.459 163.222 128.033C163.105 127.956 162.305 126.953 162.188 126.799C156.592 119.626 137.972 106.63 128.756 94.2128ZM204.271 198.989C204.271 198.989 204.506 197.716 204.577 197.061C204.882 194.091 207.234 187.883 208.362 184.952C208.433 184.759 208.597 184.219 208.668 184.026C210.055 180.093 212.218 171.532 213.628 168.485C216.356 162.585 220.047 153.484 222.633 148.818C225.454 143.728 226.089 138.869 232.037 130.578C233.847 128.071 234.599 126.374 236.198 123.791C239.513 118.469 240.736 117.813 245.085 111.181C248.729 105.589 253.784 102.118 258.18 98.4933C259.356 97.5292 259.802 96.9122 260.884 96.3723C261.895 95.8324 263.211 95.5625 264.105 95.254C264.881 94.984 265.374 94.7526 265.892 94.5598C266.762 94.2128 266.197 94.02 267.467 94.02C274.59 94.1356 279.316 96.218 282.278 107.363C283.383 111.489 283.665 116.425 283.313 121.863C283.078 125.68 282.419 132.005 281.479 134.473C280.209 137.866 278.893 141.607 277.365 144.229C275.39 147.584 274.238 149.667 272.427 152.597C270.57 155.605 269.183 157.572 267.208 160.503C265.468 163.087 263.705 165.863 260.79 164.938L261.284 163.896C261.284 163.896 261.448 163.588 261.542 163.472L266.15 158.69C269.794 153.06 270.5 149.474 272.663 143.496C274.661 137.943 275.672 135.167 274.684 127.261C272.921 113.147 264.504 116.348 258.627 120.012L250.257 127.03C247.742 130.038 245.367 132.776 243.204 136.208C240.759 140.141 237.515 143.651 236.504 145.232C233.518 149.859 234.694 148.818 233.542 151.093C232.225 153.677 232.719 151.248 230.415 156.03C228.651 159.693 226.112 162.701 224.278 166.75C221.598 172.689 218.001 178.628 215.909 183.834C214.122 188.307 213.793 187.806 212.312 190.813C211.63 192.202 212.241 190.929 211.583 192.549C210.901 194.284 211.066 193.86 210.313 195.48C206.505 203.616 209.138 198.41 205.799 203.886L203.542 208.128C203.143 209.092 203.401 208.63 203.096 209.517C202.555 211.021 202.367 211.175 201.756 212.255C200.204 214.993 194.185 231.151 188.12 230.302C188.496 229.377 188.402 229.377 188.919 228.451C189.883 226.754 189.154 228.027 189.554 227.718C190.447 227.063 188.519 228.721 190.001 227.526L193.409 223.014C194.185 221.433 193.809 223.284 193.527 222.088L193.151 221.24C193.151 221.24 193.01 221.047 193.01 220.931L195.784 216.882C197.688 214.568 196.419 218.232 198.488 214.954C199.687 213.064 203.166 201.341 203.166 201.341C203.26 200.878 203.284 199.837 203.307 199.336L204.201 199.105L204.271 198.989ZM152.831 131.542C154.759 132.892 153.254 130.578 155.887 133.007C158.52 135.398 157.98 133.277 160.472 135.205C162.87 137.056 161.812 135.552 166.067 138.869L171.992 143.574C174.296 145.579 177.564 147.468 177.916 149.242L167.007 141.53C165.127 140.681 164.304 138.753 159.32 136.786C155.088 135.128 145.449 128.65 139.853 125.68C137.22 124.292 134.446 122.904 131.507 121.978C129.015 121.207 126.499 118.777 123.561 117.698C122.597 117.351 121.021 117.968 121.492 114.998L123.067 110.139C123.796 108.867 122.785 110.139 123.866 109.021C126.123 111.682 134.893 117.081 138.654 119.857L145.754 125.41C146.483 125.989 146.883 126.027 147.659 126.567C150.433 128.457 151.655 128.573 153.254 130.269C153.442 131.773 152.901 131.156 152.807 131.465L152.831 131.542ZM166.42 149.744C167.243 150.091 167.055 149.32 166.772 152.906C164.257 151.286 164.327 152.289 163.857 149.589C163.504 149.705 163.434 150.476 162.305 150.245L161.553 149.975C157.251 148.972 159.014 148.703 154.665 148.24C152.172 147.97 148.693 146.967 145.284 146.042C141.287 144.962 137.737 144.769 133.552 144.306C124.548 143.265 125.959 141.221 115.332 142.571C116.413 137.943 114.791 134.743 119.188 134.82C127.158 134.935 130.496 138.021 136.397 138.329C137.667 138.406 143.826 140.18 145.496 141.491C145.59 141.568 145.707 141.645 145.778 141.723L148.246 145.116C148.199 143.304 147.235 143.188 146.718 141.453C149.351 141.954 147.917 142.494 150.503 142.764C149.68 144.383 149.234 143.419 148.881 145.193C149.821 144.731 149.822 144.692 150.55 143.998C151.279 143.304 151.162 142.07 154.782 144.461L155.44 145C153.607 145.695 154.594 145.348 153.042 144.769C150.762 143.882 151.984 142.918 151.444 145.463C153.207 147.199 157.744 146.736 157.933 146.774C157.98 146.774 158.097 146.774 158.144 146.774C158.191 146.774 158.309 146.851 158.332 146.851C158.379 146.851 158.473 146.967 158.52 147.006L158.849 147.43C160.613 149.204 157.839 146.543 161.036 147.584L166.373 149.705L166.42 149.744ZM258.251 158.96C258.274 156.878 258.157 150.823 257.969 150.168C253.831 151.248 239.678 178.396 237.374 182.175L224.819 205.275C223.738 207.858 222.962 208.938 221.786 211.021L215.415 222.821C209.679 233.272 201.403 245.689 194.632 254.597C187.744 263.659 172.626 270.485 173.661 251.088C173.802 248.35 178.927 232.307 180.949 230.341C180.949 230.341 184.123 228.837 184.546 224.865C184.64 223.901 184.146 224.093 184.828 222.975C186.121 220.816 184.993 222.937 185.722 222.204C186.286 221.664 185.698 222.821 186.403 221.163L187.885 217.962C188.801 216.342 188.566 216.574 189.671 215.108C190.894 213.45 196.63 206.779 197.641 207.743C197.171 209.517 197.9 207.743 197.077 208.861L192.775 213.874C192.775 213.874 192.61 214.067 192.563 214.106L191.787 214.8C191.787 214.8 191.623 214.915 191.576 214.993C191.529 215.031 191.411 215.147 191.364 215.224C191.247 215.34 190.776 215.841 190.635 216.034L187.955 220.237C187.461 221.317 187.814 221.394 187.626 222.204C186.968 225.135 183.112 229.03 181.654 237.976C180.855 242.912 182.101 241.64 181.654 246.383C185.91 245.11 184.899 254.597 195.196 243.105L200.486 236.742C204.765 230.996 206.599 227.95 210.008 221.625L216.638 209.632C218.213 205.892 216.92 208.128 219.059 205.66L241.817 165.632C244.967 161.236 258.039 138.059 264.528 142.494C265.21 148.317 262.083 152.25 260.86 155.528C259.591 158.922 260.602 157.186 258.321 159.037L258.251 158.96ZM330.098 135.398C330.85 137.365 331.203 140.99 331.72 143.535C332.426 146.929 332.214 148.548 330.827 151.209C328.97 154.757 325.866 158.035 323.445 160.58C322.105 162.007 320.812 163.626 319.448 164.745L296.784 181.828L286.51 186.34C284.629 187.15 283.383 187.613 281.338 188.384L266.315 193.86C265.139 193.744 265.492 193.744 265.116 193.204L273.862 189.811C277.529 188.153 273.72 188.808 280.021 187.111L285.382 183.834C287.733 182.522 286.839 182.252 288.555 181.713C293.822 180.054 287.662 180.054 295.538 177.394C300.005 175.851 303.155 169.835 306.517 168.717C308.022 168.215 306.329 170.182 307.622 168.408C308.492 167.251 307.505 168.755 307.998 166.557C310.373 167.791 307.411 168.138 309.809 167.83L309.174 165.747C314.487 166.442 309.315 165.362 312.912 162.778C314.393 161.737 312.771 163.472 313.947 161.93C315.428 160.002 315.169 158.883 318.225 158.42C318.037 156.839 317.073 157.958 318.272 155.721C319.025 154.333 319.73 154.371 320.506 153.6C321.916 152.135 322.528 150.245 324.291 148.278C326.407 145.926 324.032 149.435 326.971 142.571C327.465 141.414 327.841 140.141 328.241 139.023C329.04 136.709 328.664 136.401 330.075 135.437L330.098 135.398ZM168.136 153.369C166.796 152.327 167.431 152.636 167.102 152.25L169.735 151.749C170.934 152.173 170.346 150.823 172.18 152.597C175.542 155.875 172.274 151.171 177.14 155.181L180.22 157.341C177.305 157.418 174.766 155.297 171.38 154.371C170.699 154.178 170.487 154.294 169.805 154.14C169.241 154.024 168.536 153.677 168.16 153.369H168.136ZM111.359 170.491C112.44 162.585 111.97 162.161 115.003 161.12C118.529 159.886 140.088 157.495 144.062 159.5C145.566 160.271 145.543 160.079 147 159.307C149.845 160.464 146.812 158.999 148.246 160.503L151.655 161.583C149.281 158.96 150.762 160.079 150.95 159.462C152.807 159.847 157.627 160.271 158.708 162.662C156.428 164.706 141.029 162.932 138.701 162.894C132.283 162.778 123.655 164.513 117.518 167.367L111.382 170.452L111.359 170.491ZM250.939 174.27C252.021 172.727 253.925 172.226 255.406 170.336C256.252 169.257 256.652 168.871 257.428 167.946C260.32 164.475 259.45 167.02 259.708 167.251C258.886 169.449 254.56 173.46 253.384 174.231C250.492 176.159 251.127 174.54 250.916 174.231L250.939 174.27ZM273.485 200.956C274.003 200.57 280.515 198.719 281.526 198.719C287.733 198.796 300.475 194.323 307.223 192.549L315.028 189.04C318.084 187.574 319.636 187.073 322.481 184.913C326.642 181.751 332.614 172.187 334.542 171.378C334.659 174.54 334.565 172.959 335.27 175.658C331.861 185.145 327.183 185.8 319.754 190.544L307.951 195.441C295.82 198.603 286.416 201.38 273.462 200.956H273.485ZM162.611 174.424C164.703 174.424 166.749 175.08 167.76 174.154C168.112 177.008 167.713 174.81 168.301 177.008C167.055 176.314 164.915 177.779 161.083 178.435L145.072 181.905C139.548 183.448 128.474 187.844 123.184 190.775C120.763 192.086 115.92 195.557 113.968 197.832C112.276 199.837 112.699 200.57 111.1 200.416C111.171 188.692 112.158 191.7 117.589 187.304C123.231 182.677 129.18 182.06 134.892 179.437C136.233 178.82 139.265 178.859 139.689 178.55C141.569 177.201 137.549 177.779 142.016 177.471C143.333 177.393 142.463 177.702 143.662 177.278C144.461 177.008 144.156 176.622 145.237 176.468C146.859 176.237 145.778 176.892 147.988 177.316C150.104 177.741 149.116 175.812 150.221 178.473L150.644 177.509C152.243 174.578 154.406 175.311 156.451 176.738C156.875 175.273 156.451 178.589 156.451 176.121C156.451 174.694 156.193 176.082 156.475 175.003C158.262 175.851 156.757 175.89 158.285 175.89H158.403L162.658 176.622C163.246 175.542 162.705 176.622 162.658 175.581L162.588 174.424H162.611ZM170.91 175.658C171.451 173.73 170.722 173.614 173.097 173.961L174.648 175.311C174.108 176.507 174.46 176.622 171.78 176.507C170.322 176.468 170.252 176.738 169.241 175.735C169.5 173.267 168.136 174.154 169.923 174.116L170.91 175.62V175.658ZM113.639 233.811L113.169 230.032C113.075 228.721 112.934 226.562 113.004 225.713C113.381 221.51 116.625 217.538 118.271 214.993C119.376 213.257 120.528 211.599 121.68 210.558C122.62 209.709 122.385 210.211 123.42 209.092C126.194 206.123 123.749 208.013 126.946 206.007C128.451 205.043 127.628 204.311 130.496 203.231C133.106 202.267 134.563 200.878 136.115 200.03C137.831 199.066 139.312 199.066 140.841 198.372L150.268 194.554C151.42 193.86 150.48 194.4 151.091 193.86L164.139 189.657C166.185 189.155 172.744 185.53 174.484 188.114C170.816 189.579 172.838 187.998 165.268 191.585C162.423 192.934 159.649 194.091 156.545 195.827L143.897 202.768C143.074 203.231 142.768 203.269 141.946 203.694L138.842 205.815C134.728 208.321 136.844 207.897 134.634 208.977L133.2 209.787C133.2 209.787 133.012 209.902 132.965 209.941C130.379 211.869 120.246 221.394 118.835 223.746L113.686 233.734L113.639 233.811ZM169.029 313.444C167.478 313.02 166.678 315.681 162.399 309.202C160.73 306.696 158.896 303.842 157.274 301.143C152.596 293.43 152.408 282.594 152.478 271.41C152.502 266.089 158.967 248.658 159.931 247.077L167.807 232.847C169.17 230.264 170.299 228.76 172.039 227.95C174.272 226.909 171.239 224.633 174.437 226.484L173.802 224.325C176.435 222.744 176.365 220.931 179.209 217.229C180.338 215.764 181.443 215.417 182.125 213.99C182.642 212.91 181.913 212.679 182.759 213.18C184.358 214.144 182.43 212.293 183.465 213.99C181.725 219.35 180.479 216.458 178.622 220.623L176.153 225.135C174.719 227.371 174.296 229.299 173.003 231.459C171.663 233.696 170.84 234.428 169.5 237.166L164.092 251.281C162.235 257.451 160.754 265.356 160.707 272.297C160.66 278.892 165.362 290.962 167.736 294.201C172.109 300.179 180.596 300.063 187.485 294.78L189.272 293.391C190.189 292.736 190.33 292.736 191.082 292.119C198.347 285.872 208.433 272.76 214.569 263.428L217.202 259.186C219.506 255.522 226.371 239.48 228.228 235.045L229.192 232.963C229.78 231.613 229.756 231.652 230.321 230.495L238.408 209.401C239.231 206.084 239.019 206.393 240.195 203.578C241.629 200.107 242.71 195.248 244.027 192.742L241.018 220.276L227.993 263.505C226.512 266.86 225.289 269.752 223.808 273.146L220.211 280.82C220.211 280.82 220.07 281.09 220 281.206C219.506 282.17 219.859 281.437 219.412 282.401L214.921 290.808C214.075 292.196 213.158 293.122 212.406 294.587L204.718 306.233C200.886 310.976 193.057 318.033 188.284 319.306C183.841 320.501 180.432 321.388 175.589 319.267C174.319 318.727 173.05 318.033 171.851 317.339C169.406 315.912 170.181 317.069 168.982 313.521L169.029 313.444ZM121.821 275.035C120.575 272.876 121.327 271.95 119.869 267.091C117.33 258.723 118.106 252.052 120.833 244.648L121.656 242.257C122.691 239.403 122.22 239.133 123.702 240.907C124.054 235.74 123.984 236.511 126.499 236.704C126.429 236.549 126.335 236.164 126.311 236.279C126.311 236.395 126.17 235.932 126.17 235.894C126.17 235.855 126.076 235.585 126.076 235.547C125.935 233.503 126.452 235.123 126.993 234.351C128.051 232.847 125.771 235.392 127.322 233.696C128.286 232.655 129.109 234.081 130.026 230.572C131.154 226.292 137.925 218.733 141.005 218.733C142.345 218.733 141.452 219.042 142.698 218.425L142.651 216.034C144.438 215.147 144.203 219.659 145.261 215.494L143.497 214.53L148.035 212.216C149.163 211.676 148.552 212.216 149.727 211.291C150.127 212.949 149.093 212.91 150.597 213.373C150.856 212.1 150.668 211.83 151.091 209.864C153.395 209.401 152.972 207.974 154.547 209.902C154.876 209.092 155.346 210.905 154.265 208.128C154.218 208.013 154.077 207.781 154.006 207.588C156.992 207.897 154.147 207.434 156.757 206.509C156.969 207.588 156.804 207.357 157.392 208.861L159.32 206.894C161.294 204.079 160.965 201.727 163.575 204.619C164.515 200.686 162.752 203.077 164.327 201.804C164.915 201.341 165.315 201.264 165.95 200.763C165.997 200.878 165.997 200.956 165.997 201.148C166.114 203.115 166.514 202.691 166.819 202.845C167.525 200.531 166.749 199.644 168.606 199.452C171.686 199.143 167.29 201.226 171.874 200.454C171.521 199.143 172.321 200.763 171.38 199.76L170.181 198.603C172.133 198.642 172.227 198.41 173.426 196.906L175.072 198.796C175.612 196.598 174.319 199.914 175.307 196.829C177.282 196.328 177.305 195.75 178.48 195.094C178.645 195.017 179.656 194.708 179.844 194.747L181.607 195.711L171.851 201.92C170.44 202.807 168.512 203.809 167.078 204.658C163.175 206.971 154.829 213.951 151.115 217.114C143.615 223.515 135.433 233.58 130.026 244.069C129.368 245.342 129.085 245.843 128.639 246.769C123.043 258.608 123.96 263.274 121.821 274.997V275.035ZM184.217 214.221C184.217 214.221 184.17 213.72 184.17 213.836L184.217 211.56C184.217 211.56 184.193 211.291 184.17 211.291L184.382 210.673C184.382 210.673 184.57 210.404 184.617 210.365L186.474 208.475C190.165 205.467 192.751 200.184 194.185 202.074C193.151 203.578 192.775 203.154 191.576 204.735C189.624 207.319 187.109 209.671 185.463 212.563C184.828 213.681 184.946 213.45 184.194 214.298L184.217 214.221ZM174.836 211.792C173.308 211.136 173.778 211.522 172.862 210.326C171.663 212.37 172.062 211.329 170.134 212.293C170.722 210.326 169.782 212.216 170.793 211.021L172.956 209.015C174.789 208.63 173.802 209.247 174.108 209.517L176.835 205.506C177.916 206.586 177.234 206.509 178.528 207.164C178.104 205.93 178.198 206.47 178.316 204.812C179.938 203.501 179.844 203.192 181.936 202.768C181.255 205.313 182.383 203.771 180.855 205.005L174.86 211.792H174.836ZM309.08 216.381C304.19 216.304 285.734 215.532 281.432 213.72C279.433 212.872 275.907 212.409 274.308 211.445C278.046 211.522 279.198 212.293 281.573 211.792L283.336 211.676C286.369 211.792 297.278 212.447 300.71 211.252C303.861 210.134 309.55 210.596 313.053 209.709L322.175 207.28C326.242 206.162 326.572 203.578 328.1 206.084C328.734 203.964 327.935 205.082 329.111 204.041C329.651 203.578 329.463 203.848 330.098 203.501L333.295 200.878C334.236 200.03 334.377 199.799 335.482 199.143C335.552 204.041 335.882 205.892 334.095 208.668C332.943 210.481 329.604 211.753 327.912 212.293C326.619 212.717 325.349 213.026 324.338 213.411C320.529 214.838 312.771 216.458 309.08 216.381ZM140.652 319.344C140.652 319.344 140.065 317.609 139.642 316.761C137.032 311.4 135.997 311.4 133.035 303.264C132.683 302.261 132.777 302.647 132.471 301.335C130.872 294.278 130.849 286.026 131.248 278.776C131.883 267.477 139.736 250.394 144.32 242.719C145.072 241.485 146.93 238.285 147.917 237.783C148.74 237.321 149.986 234.313 150.55 232.886L150.691 235.277L152.995 231.575C152.995 231.575 151.843 232.23 153.56 229.338L155.911 226.909C155.135 229.685 155.323 228.143 154.406 230.456C156.193 229.261 155.276 228.605 157.439 227.718C157.251 225.597 157.321 227.179 156.686 225.752C156.686 225.752 156.616 225.636 156.616 225.559C158.309 224.171 156.875 224.132 158.873 223.746C158.99 223.746 159.296 223.746 159.39 223.746C159.766 223.746 160.354 224.479 161.412 222.859C161.012 220.777 161.506 222.628 161.012 222.127L160.048 221.394C163.41 219.427 161.059 219.042 165.597 216.227C164.515 220.777 164.022 217.769 162.94 221.124C164.586 220.006 166.443 218.001 167.948 216.419C170.534 213.681 170.487 213.103 173.543 211.638C172.344 214.568 159.484 226.214 154.241 234.737C153.701 235.624 153.254 236.472 152.713 237.205C150.268 240.483 152.102 236.896 147.282 244.686C145.801 247.077 142.604 254.79 141.875 258.106C141.334 260.613 140.676 263.389 140.088 266.05C138.748 272.105 137.385 275.652 137.338 284.059C137.291 296.207 137.032 301.914 139.9 312.133C142.063 319.884 142.275 318.265 140.629 319.344H140.652ZM276.965 224.788L306.376 231.729L320.365 232.076C322.951 231.729 325.467 231.536 327.865 230.881C329.017 230.572 330.615 230.534 331.344 230.225C331.462 230.186 331.72 229.994 331.814 229.917C332.896 229.184 331.556 229.994 332.426 229.415C333.554 228.605 332.355 229.145 333.789 228.682C333.742 236.279 333.272 237.976 331.203 238.478C321.54 240.753 301.204 233.002 292.106 230.649C289.449 229.955 286.604 229.685 283.924 228.644C282.937 228.258 281.502 227.487 280.562 227.101C276.589 225.405 278.611 226.986 276.941 224.826L276.965 224.788ZM276.283 234.968C277.412 235.624 278.023 235.855 279.175 236.588L285.546 239.75C287.027 240.521 287.709 240.406 289.167 240.984C295.562 243.568 301.486 248.311 308.915 249.661C311.69 250.162 312.936 251.628 315.475 252.592C316.533 253.016 317.779 253.556 318.625 253.864C320.13 254.443 321 254.057 322.504 254.713C325.373 255.985 326.572 257.219 329.792 255.792C329.44 258.646 328.829 260.536 328.335 263.428C324.197 263.891 311.666 257.258 307.199 254.481L288.203 243.221C285.922 241.717 284.371 240.791 282.278 239.364L278.987 237.398C277.882 236.858 276.871 236.357 276.307 235.007L276.283 234.968ZM277.67 244.879C279.575 245.265 278.329 245.11 279.175 245.65L291.4 255.021C292.411 255.677 293.281 256.487 294.409 257.412C295.35 258.183 295.914 258.685 296.972 259.533C297.442 259.919 297.771 260.15 298.406 260.767L300.17 262.58C303.061 263.814 299.605 260.921 305.271 265.896L305.718 266.204C305.718 266.204 305.906 266.282 305.953 266.32C309.08 268.133 306.987 267.67 309.762 269.559L316.932 274.341C320.576 278.313 319.189 278.583 319.895 275.922C320.341 280.164 319.777 277.156 321.587 278.737C321.681 278.815 321.799 278.892 321.893 279.007L323.233 280.511C323.233 280.511 323.421 280.743 323.492 280.82C323.562 280.897 323.703 281.051 323.774 281.128C323.844 281.206 323.962 281.321 324.056 281.437C323.374 283.404 322.786 285.1 322.105 286.99C320.012 292.852 321.728 290.808 319.989 291.888C319.401 290.384 319.73 291.116 320.059 288.263L318.743 290.499C318.508 289.689 318.131 288.378 317.826 287.684L315.428 284.483C314.041 283.596 314.652 284.021 313.547 284.638C312.371 280.164 315.169 284.291 310.702 279.894L306.987 275.614C306.987 275.614 306.799 275.498 306.729 275.46C306.658 275.421 306.541 275.344 306.47 275.267C303.884 273.416 300.311 268.287 298.077 266.32L282.537 250.124C281.549 249.16 281.079 248.735 280.092 247.694C279.457 247.039 278.305 245.419 277.694 244.802L277.67 244.879ZM257.099 246.383L261.26 262.425C266.009 283.674 268.008 292.62 268.971 318.959C269.442 331.723 267.772 343.639 263.447 354.437C261.895 358.293 261.025 363.692 257.193 367.086C254.089 369.862 249.905 372.485 246.731 373.988C247.601 370.209 250.492 365.813 252.068 362.111C253.102 359.682 253.314 358.486 254.466 356.018C255.994 352.779 258.862 338.433 259.638 334.384C262.53 319.344 262.671 295.358 260.484 279.856C260.108 277.118 259.967 274.071 259.826 271.025C259.591 266.629 259.097 266.436 258.697 263.119C258.086 258.183 258.556 255.484 257.146 250.548C256.346 247.694 256.346 247.887 257.122 246.422L257.099 246.383ZM266.409 249.429C268.125 250.201 274.684 260.651 276.025 263.505C279.292 270.446 283.665 276.308 286.957 283.481L289.943 289.998C295.373 300.988 307.975 319.383 299.77 332.726L296.667 337.623L296.761 333.42C297.63 333.921 297.301 334.153 297.748 333.806L298.712 331.8C299.558 330.142 299.981 330.181 300.475 328.098C299.676 328.677 300.17 328.407 299.464 329.255L296.314 332.417C296.361 326.44 295.867 322.507 294.974 317.995C294.174 313.946 291.424 306.503 290.013 301.875L280.962 279.624C280.962 279.624 280.421 278.429 280.397 278.39C280.35 278.275 280.256 278.12 280.186 278.005C280.115 277.851 279.857 277.388 279.763 277.233L275.554 267.67C274.731 266.166 274.167 265.472 273.227 263.582L268.666 254.597C267.678 252.63 266.973 251.473 266.385 249.391L266.409 249.429ZM276.565 254.867L287.474 267.091C289.237 269.058 291.024 271.102 292.905 273.184C295.068 275.575 296.643 277.272 298.641 279.547L302.074 283.982C303.296 285.756 301.392 284.175 303.32 285.602C303.743 285.91 304.26 286.026 304.778 286.604C306.212 288.263 304.495 286.566 305.812 288.764L308.069 291.309C309.879 292.929 314.276 299.137 313.735 303.264C313.241 306.889 313.97 303.109 312.865 305.462C312.348 306.58 312.183 306.464 312.066 308.123C313.406 306.156 312.442 306.194 314.158 305.5C314.017 308.894 311.619 313.097 309.95 314.64L308.727 309.472C308.469 308.315 308.469 307.891 308.187 306.773C307.528 304.343 308.257 306.426 307.293 304.613C306.776 303.649 306.564 303.418 306.259 302.801L303.673 297.749C303.673 297.749 303.508 297.518 303.437 297.402L301.486 294.201C299.159 289.458 300.099 292.157 298.782 289.921L295.632 284.483C295.632 284.483 295.467 284.252 295.397 284.136C295.326 284.021 295.232 283.866 295.162 283.789L285.57 268.711C283.219 264.739 278.117 258.762 276.565 254.905V254.867ZM208.127 370.903C193.809 370.672 191.105 368.474 178.692 361.61C177.846 361.147 167.172 353.666 166.02 351.892L175.26 356.519C185.275 361.725 187.932 359.296 189.812 359.604C191.787 359.951 191.341 362.42 198.864 357.753L200.204 357.059C203.096 355.594 204.624 353.434 206.575 352.817C207.422 352.547 206.928 353.049 207.351 352.547L207.516 352.123C208.644 349.694 210.501 348.537 211.136 347.958L218.495 338.549C224.278 330.335 230.462 317.069 233.283 305.462C234.012 302.415 235.117 299.87 235.94 296.939L240.218 278.737C240.548 276.925 240.571 275.498 240.924 273.377L241.112 272.375C241.112 272.375 241.159 272.066 241.182 271.912L241.464 269.058C241.935 264.97 243.651 262.348 243.674 260.034C243.721 251.319 243.862 257.219 244.403 251.975C245.203 244.301 245.814 242.141 246.566 233.002C246.919 228.721 246.59 225.79 248.024 223.361C248.141 227.371 248.588 231.96 249.199 235.624C249.74 238.825 250.21 244.146 250.586 247.694L250.445 283.326L248.682 301.567C248.235 303.495 247.742 304.575 247.389 306.503C244.286 323.432 239.419 340.978 231.943 353.087C229.427 357.175 225.501 363.152 221.998 365.389C218.565 367.587 211.983 370.981 208.103 370.903H208.127ZM268.243 264.045C270.006 265.395 272.357 272.914 273.25 275.035C274.92 278.969 275.789 279.933 277.764 286.142C277.811 286.296 277.858 286.489 277.905 286.604L279.057 290.461C279.057 290.461 279.128 290.808 279.151 290.923C280.444 296.824 279.504 290.114 281.714 298.328C282.443 301.104 283.148 301.644 284.371 306.773C286.628 316.067 289.543 333.304 287.427 342.637C285.734 350.118 288.438 344.565 285.288 349.848C283.783 352.355 282.114 355.671 279.339 356.172C280.515 350.619 282.466 353.974 283.571 349.964C283.877 348.845 283.736 349.424 283.806 348.228C282.866 349.655 281.785 351.082 280.327 351.66C280.327 350.156 281.526 341.827 281.596 328.715C281.596 327.019 281.15 326.633 280.985 324.975C280.162 316.684 280.491 313.406 278.093 302.685L274.637 286.296C274.003 283.944 273.039 281.321 272.474 279.162L268.219 264.122L268.243 264.045Z" fill="white"/>
<path fill-rule="evenodd" clip-rule="evenodd" d="M458.535 136.058C459.605 140.83 454.872 157.002 454.278 162.796C454.087 164.501 454.206 165.599 453.969 167.266C453.469 170.939 452.922 169.727 452.447 174.537C452.137 177.681 452.137 180.18 452.137 183.778C452.137 188.474 451.614 189.648 451.353 192.943C450.496 203.889 451.543 203.699 451.21 212.524C451.043 216.766 451.424 219.455 451.424 223.166L453.255 242.936C453.969 246.041 453.707 242.936 454.087 247.67L456.513 261.418C457.583 265.887 457.845 270.886 458.915 275.166C460.485 281.49 464.67 293.534 466.24 299.253C466.43 299.973 466.454 300.238 466.739 301.26L473.493 319.288C474.991 323.53 477.179 327.09 478.987 330.801C480.223 333.339 481.032 334.626 482.197 336.974C482.601 337.77 482.768 338.262 483.124 339.02L483.957 340.497C484.67 341.557 485.075 341.974 485.812 343.186L497.179 360.266C501.745 367.576 509.379 374.166 515.039 378.976C518.345 381.778 521.579 385.338 524.885 387.308L530.759 390.072C532.709 390.943 534.255 391.625 536.181 392.686C540.247 394.882 550.14 398.026 554.778 398.139C557.132 398.177 559.534 397.988 561.865 398.442C567.097 399.427 571.449 398.707 576.443 398.442C578.345 398.367 581.603 397.723 583.387 397.193L588.952 395.867C591.044 395.488 598.773 392.723 600.819 391.512C611.734 385.073 609.641 387.914 622.222 378.673L631.473 370.265C633.494 368.409 634.136 367.235 635.777 365.19C637.275 363.334 638.702 362.387 640.01 360.721C644.291 355.229 647.478 348.98 651.33 343.564C652.828 341.481 653.494 339.966 655.088 337.58C657.727 333.642 660.89 325.575 663.197 320.954L667.43 310.766C670.236 303.646 673.138 295.996 675.421 288.232C676.205 285.543 676.943 282.968 677.775 280.051C679.345 274.635 680.843 269.22 682.056 263.501L686.717 229.87C687.835 219.833 686.836 218.849 686.883 213.546L686.764 190.444C686.693 188.626 686.479 188.134 686.289 185.482C684.458 161.092 682.508 157.873 677.466 135.376C677.038 133.445 676.134 130.15 675.54 127.915C673.352 119.659 671.854 116.213 670.07 110.002C669 106.29 667.454 104.018 666.051 100.306C663.506 93.6025 660.129 88.1488 657.276 81.9755C653.97 74.8554 650.902 67.5459 646.075 62.5466C645.099 61.5241 645.028 61.3726 644.053 60.1606C642.341 57.964 641.913 57.0172 640.652 55.0478C638.679 52.0179 635.397 48.7987 633.114 46.034C631.829 44.4812 630.212 43.1557 628.785 41.5271C627.739 40.3152 625.86 38.8381 624.6 37.6262C615.991 29.2563 598.488 21.1893 588.619 19.0306C578.179 16.7203 569.427 17.2127 558.987 18.008C550.14 18.6897 541.627 21.3408 533.279 25.5068C532.59 25.8477 531.543 26.2643 530.901 26.5673C529.665 27.1354 529.118 27.5899 528.214 28.0065C516.87 33.3844 522.197 29.4078 511.282 38.0807C508.119 40.5803 501.936 48.1928 499.629 51.8286C495.348 58.57 488.618 65.3492 482.34 77.7337L479.438 83.7177C477.512 87.3535 475.086 91.4059 473.374 95.8749L465.835 116.326C465.074 118.561 464.456 120.947 463.624 123.371C461.293 129.998 462.316 131.627 458.511 136.134M564.576 26.7188C565.717 27.4005 565.86 27.0596 566.526 26.8703C566.668 25.5447 566.169 24.4843 566.526 23.8026C568.405 23.386 571.377 23.8026 573.113 24.0677C572.709 25.9234 572.566 25.3932 572.638 25.8856C573.018 25.8477 573.898 26.3022 574.564 23.6132L574.921 26.8324C572.733 29.3699 575.016 25.6962 570.854 30.2788C569.641 31.6044 568.286 32.5133 566.93 33.8768C559.272 41.5271 562.911 39.5199 560.034 43.2314C557.418 46.6021 556.443 47.2081 554.611 53.7222C553.375 58.0776 553.755 54.6691 552.067 59.4789L546.288 79.2108C543.41 92.7693 542.079 106.063 541.222 120.454C540.509 132.839 539.914 131.551 540.794 147.003C540.937 149.579 540.937 155.07 541.27 157.949C541.484 159.767 541.769 161.016 541.96 163.024C542.15 165.107 542.031 166.811 542.197 168.932C542.435 171.848 543.22 175.029 543.577 179.271C541.413 176.885 538.963 162.456 538.178 157.987C536.728 149.655 535.776 143.027 534.564 134.202L532.352 108.411C532.257 106.593 532.518 102.806 532.471 101.518C531.876 90.0803 532.447 81.9376 534.683 71.0302C537.061 59.5168 539.605 50.7681 543.933 41.262C546.359 35.9219 548.618 32.5891 552.043 29.5593C554.207 27.6277 554.159 29.332 556.443 28.0443C557.988 27.1733 558.892 25.0145 562.079 24.5221C565.789 23.954 565.384 24.5221 565.812 25.9992L564.861 25.8477C564.861 25.8477 564.647 25.8477 564.599 25.8477L564.647 26.7567L564.576 26.7188ZM529.593 145.64C528.832 144.617 529.379 145.64 528.713 144.011L523.767 129.506C520.961 122.348 520.366 117.387 518.82 112.198C516.49 104.321 512.566 82.0891 512.59 73.7192C512.59 65.6144 513.898 54.8963 515.61 48.6472C516.442 45.6553 520.556 42.8906 522.53 41.7165C524.052 40.8075 524.433 39.8228 526.145 38.6488C526.002 43.0042 525.693 40.8075 524.409 44.4812C521.793 51.9801 520.271 71.2953 520.271 80.1197C520.271 90.2697 519.748 84.0964 520.77 93.6783L524.528 120.72C525.717 126.931 529.284 142.231 529.57 145.64H529.593ZM562.317 92.4284C560.533 90.2697 563.458 87.9973 563.862 86.293C563.862 86.2551 563.196 86.6717 564.148 84.6645C565.765 81.218 564.861 85.5356 566.169 81.5589C566.859 79.438 567.334 78.7563 568.262 77.1656C574.231 67.0535 577.441 62.2815 584.623 55.4644C593.755 46.7915 604.029 44.4055 614.683 48.117L619.772 50.2758C625.48 53.0026 622.46 50.9954 628.048 55.8431C631.187 58.57 632.091 61.0696 634.136 59.8577L633.898 62.736C634.897 62.13 635.42 61.9407 636.348 63.0769L637.585 64.5918C639.154 66.2582 639.986 67.4323 640.914 69.7804C641.722 71.8255 640.747 70.1591 642.341 71.7119L650.355 87.8837C651.164 90.0424 650.236 87.8079 651.164 89.5122C652.662 92.2391 653.042 96.4051 653.447 99.6622C654.279 106.328 654.85 101.897 654.778 113.145C654.731 120 653.708 121.326 653.304 124.961C652.305 134.24 648.904 138.141 646.717 144.958L639.13 158.971L628.548 171.583C624.291 176.431 619.083 178.779 614.826 183.362C614.754 183.437 614.636 183.551 614.564 183.665C613.185 185.104 611.758 186.505 609.665 186.884C613.375 181.847 618.203 177.756 622.174 173.287L632.876 158.744C640.795 145.413 645.266 131.021 643.601 111.706L642.079 100.609C641.889 99.7379 640.914 97.9958 640.391 96.3672C634.208 77.355 621.532 68.4548 608.643 73.3026C605.052 74.6281 601.722 75.3477 598.25 77.658C593.946 80.5363 590.426 83.604 586.835 88.2245C581.484 95.1174 577.323 101.669 572.709 109.282C566.359 119.735 565.789 124.923 562.031 135.339L552.019 170.068C551.567 172 551.139 173.59 550.759 175.257C549.784 179.347 549.76 181.43 549.046 185.748L547.263 197.109C546.121 196.428 546.431 196.541 545.551 195.595C547.334 193.852 546.359 190.33 546.335 186.808C546.288 181.695 547.881 154.995 548.714 150.526L549.094 148.178C549.165 146.511 548.547 148.178 549.379 144.466C550.64 138.823 549.165 141.891 549.546 137.762C549.855 134.543 550.664 133.445 550.806 129.885L551.972 132.915L552.637 122.007C553.398 120.795 552.638 121.666 553.636 121.288C553.708 121.288 554.041 121.401 554.183 121.326C553.779 119.394 553.494 120.644 553.066 118.485C553.446 117.5 553.684 116.516 554.183 115.342C555.61 111.782 556.419 105.267 557.703 101.177C558.44 98.8669 558.773 99.0183 560.224 98.223C560.129 98.1473 559.986 98.0715 559.962 97.9958C558.94 96.8596 559.344 96.3294 560.034 94.36C561.056 91.5195 560.366 92.2391 562.293 92.3148L562.317 92.4284ZM520.176 135.49C518.178 134.164 516.87 129.695 515.253 126.704C513.802 124.015 511.448 120.417 510.307 117.69C509.451 115.645 509.403 114.546 508.357 112.425L503.695 102.995C500.865 96.443 495.562 82.9602 495.467 75.4992C495.467 73.9464 495.586 68.6063 495.705 68.1518C496.252 65.9931 500.271 62.2815 501.674 60.0092C502.221 59.1002 501.793 59.7819 502.292 58.8351L502.768 57.964C502.934 63.3798 502.173 65.5386 502.744 71.2953C504.005 84.0206 506.739 98.9047 510.616 110.267L517.084 128.105C518.036 131.248 519.843 133.407 520.223 135.49H520.176ZM519.296 145.337C516.894 144.428 510.759 133.445 507.929 130.491C502.887 125.189 501.032 120.871 496.87 115.039L486.525 98.4503C485.384 96.4051 482.768 91.8603 483.267 88.3382C483.909 83.8313 485.764 86.0279 486.906 80.1955L487.001 79.6274C488.951 83.2632 489.45 95.4583 501.603 115.266C506.002 122.424 512.043 136.399 517.227 141.739C518.797 143.368 519.058 143.027 519.248 145.375L519.296 145.337ZM655.73 150.412C660.462 139.542 657.656 142.8 660.7 141.512C659.82 137.762 659.511 143.557 660.367 137.308C660.938 138.671 661.009 139.391 661.295 137.535L662.341 131.21C662.389 130.907 662.698 129.506 662.793 129.127C663.292 127.082 663.197 128.143 663.601 124.999C664.029 121.666 663.054 107.35 663.601 105.76C664.838 108.221 668.809 119.129 668.714 122.348C668.643 124.393 668.072 125.075 668.167 127.309C668.334 131.248 669.499 131.248 666.503 140.754C665.647 143.481 664.457 146.057 663.435 148.594C661.77 152.76 653.542 165.145 651.616 167.038C649.856 168.78 648.548 170.333 646.931 172.189C641.485 178.324 635.016 183.21 629.404 187.793L621.223 192.981C616.443 195.481 612.043 200.064 610.188 198.208L624.505 187.679C627.145 185.52 629.166 183.096 631.401 181.089C632.59 180.029 633.684 179.423 634.897 178.287C643.958 169.765 644.362 167.303 647.882 163.781C648.905 162.759 648.381 163.781 649.404 162.077L652.472 157.04C652.472 157.04 652.638 156.813 652.71 156.699C652.781 156.585 652.852 156.434 652.924 156.358L655.777 150.374L655.73 150.412ZM474.016 108.903C474.254 106.328 475.729 102.768 476.751 100.647C478.582 102.086 479.819 104.927 481.008 107.085C482.506 109.812 483.172 110.948 484.956 113.448L512.185 146.473C512.185 146.473 512.352 146.814 512.399 147.003L478.273 114.205C476.442 112.35 475.182 111.289 474.04 108.903H474.016ZM612.733 109.736C616.3 109.812 624.077 110.039 626.645 114.433C631.14 122.121 631.497 136.399 628.215 145.526C622.745 160.789 622.246 158.668 615.967 169.651C615.111 171.129 613.756 172.946 612.733 173.893C613.637 171.356 621.461 159.767 622.388 153.139C624.838 135.717 615.563 123.106 599.368 139.164C597.251 141.285 595.872 143.027 593.851 145.148C580.438 159.236 571.734 178.097 561.437 196.882C560.105 199.306 558.393 202.336 557.251 205.025C553.755 213.13 548.951 221.121 547.168 225.514C545.36 230.021 538.702 241.724 535.134 243.466C535.444 241.269 540.152 233.392 542.031 229.907L543.41 227.9C543.41 227.9 543.553 227.673 543.577 227.559C543.648 227.408 543.862 226.915 543.91 226.726L544.576 224.908C547.168 218.28 552.305 205.972 553.066 199.344C553.351 196.958 558.702 184.308 560.319 180.104L563.506 172.757C564.148 171.432 563.72 171.545 564.504 169.235C565.527 166.129 566.05 166.622 566.264 166.205C567.501 163.63 565.717 168.743 566.383 165.22C566.645 163.781 571.353 156.396 572.328 154.237L575.872 147.117C579.13 141.436 575.586 144.807 580.485 138.936L581.223 137.99C582.816 136.058 582.103 137.119 583.244 134.922C584.79 131.968 583.244 133.634 585.313 133.483C584.719 131.021 584.029 134.202 585.123 130.945C585.456 129.923 586.193 129.317 586.954 128.332C587.002 128.408 587.025 128.484 587.025 128.635L587.311 129.923C587.311 129.923 587.358 130.15 587.382 130.264C588.024 128.9 588.048 123.409 591.401 125.075C591.782 124.052 591.615 124.128 591.496 122.765C594.445 124.28 592.994 122.992 593.113 122.765L593.351 122.159C594.184 120.682 602.079 114.357 604.409 113.107C607.239 111.592 609.38 109.623 612.733 109.661V109.736ZM484.004 142.231C481.769 142.231 477.964 139.05 476.061 137.8L468.19 131.892C466.739 130.68 465.146 131.021 466.977 126.704C468.451 123.257 470.449 123.03 472.399 125.416C474.777 128.332 471.923 125.643 475.419 126.931C475.253 128.256 474.849 127.309 475.205 128.749C475.277 128.749 475.396 128.711 475.419 128.711C475.443 128.711 475.61 128.673 475.657 128.673C475.705 128.673 475.847 128.673 475.895 128.673C478.796 128.521 476.775 131.059 479.177 131.362C482.411 131.778 484.409 135.528 487.001 137.687C488.57 138.974 488.737 138.444 488.975 138.558L505.122 151.586C507.833 153.707 513.565 159.615 516.442 159.767C516.109 161.736 517.56 160.979 512.756 159.047C508.333 157.267 504.361 154.54 500.2 152.344L491.852 147.193C491.733 147.117 491.377 146.852 491.258 146.776L490.735 146.473C489.736 145.981 490.735 146.473 489.997 146.208C486.359 144.958 486.882 142.307 484.29 143.974C484.028 142.345 485.146 142.724 483.981 142.231H484.004ZM519.296 145.337C521.127 145.716 519.629 144.958 521.508 146.89C522.554 147.95 522.388 147.723 523.267 149.049C524.385 150.753 525.527 152.078 525.86 154.54C523.719 151.359 524.956 152.495 522.007 149.579L519.772 146.852C519.32 145.905 519.629 147.003 519.296 145.299V145.337ZM459.248 157.002C460.556 154.843 459.914 155.638 460.318 152.874C460.984 148.48 462.387 148.253 465.693 148.708C469.26 149.238 469.545 147.344 472.97 150.033C473.017 150.033 473.113 150.185 473.16 150.223L477.06 149.541C477.06 149.541 476.799 149.768 476.751 149.844C473.874 153.215 476.299 148.215 476.061 150.904C476.061 150.98 476.275 151.207 476.371 151.207C477.988 151.018 475.871 150.185 478.535 150.261C479.296 150.261 479.51 150.601 480.39 151.056L494.302 157.381C495.966 159.047 494.777 158.138 497.037 158.744L499.581 161.622C500.318 161.054 500.532 160.41 501.412 160.789C503.22 161.547 502.292 160.297 502.697 164.349C500.461 162.872 502.126 163.099 500.033 162.986L481.27 158.782C466.335 154.995 472.256 157.229 459.272 157.002H459.248ZM629.998 199.723C637.87 194.723 634.445 197.791 644.148 190.482C645.742 189.27 646.503 189.27 647.953 188.209C649.356 187.187 649.808 186.164 650.973 185.293L660.557 176.658C661.295 175.901 662.412 174.575 663.387 173.477L664.648 171.924C669.975 165.978 674.446 161.244 677.038 147.875C677.109 148.026 677.157 148.253 677.181 148.367L678.631 154.464C678.774 155.411 679.059 157.305 679.154 158.024C679.44 160.297 679.273 159.767 678.964 161.092L678.584 162.645C675.04 176.999 655.278 190.974 645.171 194.989C641.508 196.466 632.804 199.798 629.998 199.723ZM530.616 236.422C530.116 239.3 529.284 239.603 528.262 241.648C519.605 258.729 528.119 265.811 533.66 261.759L546.24 247.367C548.262 244.375 549.736 241.459 551.829 238.694C555.539 233.808 558.726 226.499 562.317 220.932C569.332 210.062 571.591 203.358 577.893 192.906C579.606 190.065 581.698 188.02 583.553 185.066C585.384 182.187 591.401 172.075 593.565 170.068C594.516 169.159 594.16 169.727 595.111 168.364C597.917 164.387 606.264 156.055 609.475 156.51C609.19 160.448 607.454 169.349 604.933 170.636C604.766 167.871 604.41 168.402 604.6 164.728C600.414 166.47 601.056 166.432 598.512 170.371L591.496 181.657C590.497 183.475 591.14 183.248 590.164 185.142C590.093 185.293 589.808 185.71 589.713 185.823L562.102 238.315C556.347 247.67 553.993 249.336 549.926 255.472C544.599 263.501 543.553 264.637 537.679 269.674L533.208 273.007C531.115 274.711 528.642 275.696 526.002 275.658C521.65 275.582 522.911 276.075 521.056 273.575L520.105 272.287C516.514 266.493 520.652 253.919 523.101 248.844C524.79 245.322 528.547 238.202 530.64 236.384L530.616 236.422ZM455.942 184.763C455.99 179.082 456.727 178.362 459.415 176.658C463.386 174.158 476.299 172.606 480.699 173.098L487.262 173.363C488.951 174.007 487.857 173.78 488.285 174.121C490.092 175.484 494.635 174.423 497.655 174.992C503.981 176.128 497.488 177.037 507.619 177.188C508.285 177.188 510.544 178.362 511.876 178.665C514.635 179.271 520.533 179.385 523.6 181.43C522.055 182.377 505.622 179.006 502.744 178.968C499.605 178.968 497.702 178.287 494.801 178.249C488.547 178.135 483.909 177.832 477.393 178.817C470.734 179.839 465.431 179.271 458.868 182.983C456.727 184.195 458.225 184.498 455.942 184.801V184.763ZM623.316 214.228C623.839 212.827 623.696 212.637 624.861 212.107C625.337 211.88 626.336 211.539 626.812 211.312C628.286 210.63 628.881 210.554 630.307 211.312C635.278 213.887 631.853 208.623 638.179 209.683C641.461 210.251 640.153 207.79 642.008 208.888C644.124 210.1 641.152 209.077 642.626 209.305C643.173 209.38 643.696 208.812 644.22 208.396C646.883 206.313 646.883 208.093 648.548 207.411C649.071 207.222 650.95 205.744 652.448 205.252C655.896 204.154 658.512 204.419 661.794 202.828C667.573 199.988 679.083 191.618 682.793 184.876C683.269 191.466 679.154 193.512 675.873 197.905C668.905 207.259 659.416 208.661 649.856 211.804L641.033 213.016C637.299 213.698 630.664 214.645 627.216 213.319L623.316 214.19V214.228ZM506.216 189.914C509.284 189.951 517.251 188.777 518.25 189.762L500.414 193.398C489.617 194.648 492.066 194.761 482.578 197.185C480.437 197.753 480.295 197.905 478.226 198.814L470.14 201.844C467.548 203.131 462.435 207.259 460.033 209.683C455.633 214.152 457.488 212.94 456.133 215.44C455.443 216.728 455.919 216.349 454.848 216.766C455.015 212.675 454.848 207.827 454.587 205.176L462.791 198.7C465.574 197.109 467.262 197.299 469.759 195.443C469.95 195.292 470.972 194.875 471.614 194.572C475.657 192.64 480.461 191.694 484.385 191.163L486.145 191.088C491.567 190.974 487.738 192.375 491.638 190.823C494.563 189.686 494.801 191.391 498.012 190.368C500.39 189.611 503.672 189.876 506.24 189.914H506.216ZM516.728 198.852C519.058 197.981 523.077 196.731 525.218 197.526C526.716 198.056 525.218 197.64 527.168 196.806C526.763 199.571 527.144 199.079 525.574 199.306C522.197 199.761 524.433 198.586 521.579 198.889L522.935 201.048L518.678 201.465C519.891 200.215 518.963 201.654 519.677 199.95C517.679 198.852 519.201 199.874 518.083 199.647C516.704 199.344 517.298 199.647 516.751 198.889L516.728 198.852ZM508.88 202.298C508.951 202.109 508.904 201.881 509.189 200.972C509.403 204.343 508.309 203.207 510.568 202.828C510.735 201.541 509.617 202.828 510.925 201.427C512.59 199.647 513.351 200.594 517.084 201.806C518.155 202.147 517.608 201.881 518.012 202.374C516.799 203.055 514.492 203.851 513.279 204.002C509.046 204.533 504.599 206.919 500.628 208.888C497.512 210.441 495.015 211.653 492.138 213.508C490.711 214.455 489.522 215.137 488 216.046L476.822 223.393C474.111 226.044 469.95 228.62 466.287 233.278L457.678 246.269C456.156 238.429 456.085 239.111 458.035 235.475L460.675 231.309C468.88 220.477 471.519 217.182 482.506 212.069C489.07 209.002 483.172 209.494 491.139 209.608L489.427 208.433C491.377 208.358 490.853 207.828 492.019 207.714C494.064 207.525 491.9 208.547 494.635 207.941C496.014 207.638 494.516 208.017 495.515 207.032L496.371 206.237C496.371 206.237 498.107 205.214 498.321 205.101C500.223 204.078 501.508 203.737 503.053 204.873C503.838 202.753 502.031 203.775 504.385 202.639C505.003 205.555 502.316 203.51 504.67 204.23C504.908 204.305 504.718 204.343 504.98 204.116L505.313 203.661C505.931 202.677 505.313 202.525 506.145 202.109C508.547 200.859 508.047 202.715 508.333 203.813C508.713 203.055 508.523 203.51 508.856 202.374L508.88 202.298ZM522.031 234.414C521.032 238.05 518.131 241.459 516.323 244.261C513.303 248.958 507.81 259.259 506.454 265.281C504.005 276.226 503.481 280.089 504.932 291.11C505.122 292.587 505.598 294.67 505.978 295.655C506.478 296.943 505.978 295.92 506.787 297.208C514.207 308.986 515.277 308.305 524.908 308.456C526.716 308.456 529.641 306.676 531.115 306.032C533.184 305.161 535.253 303.798 537.275 302.434C543.434 298.344 547.239 293.686 552.186 286.906C553.731 284.785 555.135 282.665 556.585 280.506L572.495 253.086C573.946 250.359 574.802 247.67 576.038 245.36C579.344 239.3 581.77 232.331 584.29 225.325L587.263 216.728C588.262 213.698 590.664 205.707 592.138 204.23L591.377 209.191C590.878 212.297 590.83 211.653 590.164 214.493L587.572 228.506C585.147 239.527 582.103 251.495 578.393 261.266L572.138 278.839C565.265 298.155 554.778 315.084 542.53 325.916C538.844 329.173 527.215 335.081 523.22 334.702C520.58 334.437 512.376 330.801 509.974 329.097C505.645 326.067 504.528 325.044 500.961 316.674C496.299 305.729 496.894 310.274 495.396 298.458C494.016 287.55 494.635 286.073 497.179 277.135C499.153 270.204 504.385 259.373 508.261 253.919C511.662 249.109 518.915 235.74 522.007 234.414H522.031ZM514.73 210.516C516.775 210.516 516.585 210.289 518.321 209.38L518.82 209.153C518.82 209.153 519.011 209.153 519.082 209.115L528.88 206.047C527.619 207.525 526.597 207.865 525.075 208.623C519.914 211.198 523.363 209.645 521.127 209.608C521.127 209.608 519.7 210.251 519.13 210.403C520.961 211.009 520.105 210.895 520.509 211.539L516.252 214.266C515.325 212.978 516.109 213.622 514.73 213.205V210.516ZM512.495 214.607C513.422 214.72 514.278 214.455 515.134 213.736C514.492 216.387 501.745 224.946 499.32 226.65C497.821 227.711 497.108 228.393 495.657 229.907C489.522 236.346 485.17 237.028 477.845 249.98L476.323 252.442C474.492 255.169 476.252 253.464 472.732 259.486C472.661 259.6 472.589 259.751 472.518 259.865C472.47 259.979 472.375 260.13 472.328 260.206C467.286 269.371 468.023 285.959 466.715 289.217C466.43 288.459 464.741 280.733 464.48 279.597C463.648 276.075 462.649 273.31 463.624 268.008C464.504 263.236 468.19 254.601 470.283 251.154C476.799 240.474 476.513 242.103 482.245 234.717L485.265 231.536C486.787 229.604 487.429 228.885 489.165 230.135C489.213 230.021 489.26 229.68 489.26 229.756L489.522 228.658C489.617 228.279 489.712 227.673 489.878 227.181C491.186 227.787 490.758 227.294 491.377 228.961C492.019 227.559 491.21 224.075 493.565 226.953C493.945 222.901 493.707 224.87 496.442 223.318L497.06 223.052C497.726 222.484 497.75 221.992 498.511 220.856C498.582 221.007 498.654 221.083 498.678 221.31C498.678 221.575 498.892 221.954 498.915 222.068C498.915 222.181 498.915 222.522 498.963 222.749C499.914 220.666 498.582 221.689 500.461 219.909C501.698 218.735 500.77 219.606 501.65 219.303C501.769 219.265 502.126 219.227 502.221 219.189C504.766 218.243 502.459 218.015 504.599 217.75C505.646 217.637 505.313 217.75 506.644 215.743C507.239 216.349 507.096 218.091 510.069 216.349C508.761 212.221 509.617 216.387 507.881 215.591L509.641 213.622C511.115 214.493 510.854 215.402 512.471 215.251C511.781 214.342 511.852 214.417 512.019 212.448C513.113 212.259 513.493 211.918 514.231 211.35C513.969 213.508 514.112 212.145 512.97 213.925L512.566 214.645L512.495 214.607ZM683.078 220.477C682.841 221.5 682.841 221.954 681.461 223.393C681.152 223.696 681.247 223.734 680.534 224.151C679.25 224.87 677.609 224.643 675.968 225.249C674.517 225.779 673.566 226.537 672.305 226.802C666.217 228.09 659.368 228.127 653.066 228.014L647.335 228.544C645.361 228.544 629.689 227.067 628.31 225.893C627.287 225.022 627.287 224.037 627.24 223.393C628.976 223.848 627.43 224.264 630.474 224.34C630.617 224.34 630.997 224.34 631.14 224.34L632.995 224.492C635.183 224.946 638.631 223.015 641.294 224.984C643.197 226.385 641.461 224.719 643.53 224.757C643.554 224.757 644.457 225.173 644.695 225.249C646.312 225.704 645.266 225.401 647.454 225.098L649.166 224.681C651.782 222.939 649.975 223.242 654.017 223.658C657.49 224.037 659.963 222.787 662.983 222.371C668.12 221.651 676.515 220.023 681.057 216.841C681.485 216.538 682.65 215.516 682.674 215.516C683.863 215.023 683.15 218.129 683.126 220.439L683.078 220.477ZM482.601 306.562C482.53 318.985 485.241 324.931 489.878 335.497C490.806 337.618 492.352 339.966 492.97 342.58C490.069 340.837 492.066 341.103 490.116 338.679C487.667 335.649 489.902 337.846 488.095 334.74L486.906 332.998C486.026 331.672 485.669 330.119 483.79 330.157C484.98 327.506 483.6 327.317 482.435 326.029L481.317 323.795C481.317 323.795 481.222 323.454 481.174 323.302L479.01 317.546C477.56 312.546 477.322 297.284 477.346 290.921C477.369 286.3 481.317 271.189 482.72 267.743C486.43 258.426 497.631 242.481 503.695 237.179C505.194 235.854 505.431 235.626 506.692 234.225C508.309 232.407 508.904 232.824 510.235 231.422L516.395 225.817C516.395 229.226 515.895 226.385 512.28 231.233C503.148 243.428 501.198 243.655 491.448 262.743C488.499 268.538 486.787 275.052 485.098 281.68C483.101 289.52 482.673 296.488 482.601 306.487V306.562ZM618.155 235.551C620.985 235.588 630.617 238.505 633.233 239.83C637.703 242.103 658.631 246.231 665.337 246.988C668.096 247.291 671.449 246.458 673.685 245.398C675.349 244.602 676.11 245.057 677.846 244.375C680.415 243.428 678.845 242.595 681.295 242.368C681.39 244.943 680.867 246.572 680.201 248.276C677.323 248.655 674.66 248.503 672.139 249.298C669.333 250.207 666.455 250.851 663.958 250.851C659.249 250.851 645.337 246.988 640.462 244.64C636.99 242.974 620.343 239.035 618.179 235.551H618.155ZM672.258 268.955C675.587 268.992 675.302 268.121 677.014 269.75L676.562 273.878C675.635 273.158 675.92 273.424 675.445 272.06L674.588 275.658C674.089 277.249 675.278 276.643 674.398 275.847C672.686 277.817 669.475 275.696 666.217 274.067C662.603 272.212 664.101 273.651 658.393 270.28C653.256 267.212 648.476 264.788 643.625 261.266L623.601 248.768C623.102 248.352 623.221 248.427 622.721 248.011L614.469 242.519C616.562 241.194 618.869 243.769 619.986 244.564C620.081 244.64 620.2 244.716 620.319 244.792L648.976 260.622C649.88 261.115 649.57 260.925 650.664 261.418L656.348 263.804C660.343 265.281 668.405 268.917 672.258 268.955ZM600.224 253.313C601.722 254.373 600.937 257.025 602.745 261.001C604.909 265.811 610.616 290.163 611.972 297.473C612.971 302.851 612.733 304.214 613.113 307.093C613.28 308.267 613.684 308.835 614.184 311.259C616.562 323.227 616.728 348.412 613.684 361.781C613.661 361.895 613.613 362.122 613.589 362.236L607.097 375.302C605.289 377.65 603.696 378.029 600.176 380.415L591.877 384.467C592.21 383.672 592.067 383.369 592.804 381.968L597.394 373.067C598.94 369.81 600.937 363.296 601.817 358.979C602.245 356.82 603.006 353.639 603.577 351.063C606.788 336.444 607.739 303.305 605.075 287.323L602.65 270.166C602.174 267.44 601.033 255.888 600.224 253.313ZM615.135 260.282C618.155 260.357 617.537 262.175 619.202 263.387L624.196 268.614C625.408 269.939 626.669 270.469 628.286 272.704L637.894 283.46C638.655 284.255 637.894 283.46 638.631 284.407C638.726 284.558 639.035 284.937 639.13 285.088L641.818 288.043C641.818 288.043 641.913 288.27 641.937 288.308C642.436 289.444 641.461 290.504 642.959 288.043C643.197 292.739 643.815 290.239 645.171 290.845C645.337 291.64 645.171 291.64 645.171 291.83C645.147 292.398 644.981 290.959 645.028 293.193L646.598 292.512C646.598 292.512 646.835 292.36 646.954 292.322C647.026 296.261 646.336 294.557 647.549 296.034C648.381 297.056 647.668 296.829 648.167 294.822C648.167 294.746 648.191 294.519 648.262 294.367C648.904 295.806 651.568 298.609 652.591 300.768L657.561 309.138C661.057 315.879 663.126 314.705 656.182 327.279L656.491 322.658C656.11 322.583 655.635 325.082 654.446 321.03C652.638 314.894 651.306 311.675 648.524 305.843C647.834 304.442 647.192 303.04 646.312 301.563L621.128 267.78C620.224 266.493 620.367 266.303 619.867 265.584L615.159 260.168L615.135 260.282ZM596.157 295.731C596.11 303.911 594.112 314.667 593.185 322.204C592.186 330.422 588.286 342.352 585.813 350.041L584.267 354.207C583.981 354.926 583.862 355.153 583.625 355.722C579.51 366.326 582.602 360.001 578.179 367.424C578.084 367.576 577.846 368.068 577.751 368.22L575.943 370.984C575.515 371.893 576.3 370.833 575.515 371.893L570.949 376.173C561.793 384.088 551.163 384.164 541.175 382.119C536.966 381.248 538.155 380.68 537.132 380.339C536.49 380.15 536.585 380.339 535.491 380.756C534.373 380.566 534.159 376.741 531.639 377.991C530.473 378.559 532.804 377.877 530.64 378.862C530.592 378.786 530.592 378.483 530.568 378.559C530.568 378.559 530.378 377.158 529.522 376.476L525.717 373.976C522.72 372.386 516.395 366.743 514.563 367.159C514.492 367.159 513.945 367.689 513.684 367.803C513.684 362.955 511.424 362.501 510.568 365.682L510.259 361.516C511.115 361.516 510.592 361.516 510.973 361.819L512.233 362.993C515.158 365.114 522.15 367.576 525.336 368.447C529.57 369.621 527.715 370.265 532.875 370.341C534.373 370.341 534.492 369.28 536.371 369.318C537.917 369.356 538.06 369.772 539.677 369.432C543.149 368.674 543.696 369.129 547.12 367.576C552.138 365.303 552.733 363.523 556.728 359.547C557.822 358.486 558.583 357.426 559.534 356.29C563.696 351.328 568.809 344.208 571.282 336.974C572.091 334.588 572.233 334.588 573.28 332.468C576.229 326.484 578.06 319.553 580.057 312.925L585.48 291.943C585.979 289.368 585.48 288.8 586.145 286.641C587.691 281.415 588.833 275.317 589.713 268.803L592.662 242.481C593.327 238.505 592.662 230.627 593.399 228.241C595.111 229.945 593.565 227.446 594.445 235.399C596.348 252.858 595.349 243.314 595.587 261.153L595.801 286.452C595.777 290.05 596.134 292.89 596.134 295.579L596.157 295.731ZM633.708 264.485L638.583 268.349C638.583 268.349 638.726 268.652 638.774 268.765C638.821 268.879 638.916 269.106 638.94 269.182C638.988 269.257 639.035 269.523 639.107 269.636L639.368 268.992C639.368 268.992 639.44 268.727 639.463 268.689C639.463 268.689 639.511 268.235 639.582 267.932C643.054 269.863 639.701 268.197 641.104 271.454C644.481 268.462 642.055 271.909 646.479 272.818C645.837 275.885 645.67 273.196 645.813 274.522C645.956 275.847 646.384 274.37 647.121 274.37C648.048 274.37 648.12 274.635 648.762 275.393C649.214 275.923 648.833 275.582 649.499 276.34C649.57 276.415 649.689 276.567 649.761 276.643C651.164 278.196 652.9 278.688 654.945 280.96L656.824 282.399C656.966 282.475 657.751 282.702 658.132 282.93C658.821 283.384 658.441 283.195 658.821 283.498L665.29 288.043C666.003 288.535 666.526 289.027 667.311 289.709C668.762 290.959 669.452 292.36 669.737 294.784C668.833 296.867 668.191 297.246 668.096 300.427C665.837 299.783 661.556 293.61 659.582 291.375L637.466 269.523C634.041 264.713 634.683 267.326 633.732 264.485H633.708ZM610.022 268.576C612.733 271.681 623.791 297.776 626.003 305.502C629.523 317.773 629.309 314.137 632.329 328.983C632.709 330.839 633.304 334.513 633.47 336.634C634.659 352.351 633.328 348.791 632.709 357.464C632.376 362.16 632.947 359.963 630.593 363.751C627.097 369.394 629.285 368.371 624.624 368.409C624.719 362.955 625.504 362.917 625.955 354.775C626.193 350.495 626.479 346.102 626.074 340.913C625.694 336.179 625.076 331.596 624.624 326.938C624.124 321.712 623.173 318.72 622.269 313.948C619.582 300.01 617.251 292.474 613.613 279.521C612.257 274.635 612.043 276.075 610.022 268.576ZM617.18 271.643L628.476 287.02C632.638 292.587 630.498 288.27 634.755 296.715C635.064 297.321 635.016 297.132 635.302 297.965C635.349 298.079 635.397 298.268 635.42 298.382C636.681 302.472 634.065 296.488 636.514 300.768C637.418 302.359 636.705 301.942 637.133 303.381C637.18 303.381 637.275 303.305 637.275 303.381C637.561 305.313 637.394 303.381 637.799 303.305H638.203C638.893 307.774 638.203 303.76 639.416 306.638L639.986 308.191C641.08 310.501 641.176 309.365 642.745 313.493C645.195 319.856 648.738 325.764 648.786 333.793C648.786 336.179 648.786 334.702 648.881 335.762C649.095 337.694 649.713 335.27 648.809 338.679C647.549 343.375 646.526 343.678 644.933 345.382C643.506 346.859 643.887 347.427 642.483 347.352C642.721 345.534 641.818 347.806 642.864 346.708L643.792 345.95C640.629 339.247 642.698 342.883 641.675 334.588C641.271 331.293 637.157 317.129 636.348 315.122L617.156 271.719L617.18 271.643Z" fill="white"/>
</svg>
