<svg width="64" height="51" viewBox="0 0 64 51" fill="none" xmlns="http://www.w3.org/2000/svg">
<path fill-rule="evenodd" clip-rule="evenodd" d="M0.756155 23.5477C0.439669 22.5602 0.76942 22.8188 0 21.6164C0.0379025 22.6381 0.0701208 22.4263 0.229311 23.1334L0.655714 25.5975C0.792162 26.4697 0.854703 26.233 1.08022 27.4883L1.31143 28.3762C1.45546 28.9057 1.6715 29.5786 1.7871 30.1829C1.84964 30.51 1.91218 30.8153 1.98419 31.1268C2.05242 31.4227 2.19455 31.6782 2.29878 31.8807C2.36132 32.0022 2.50725 32.4881 2.57737 32.6937C2.67212 32.9678 2.81236 33.1734 2.9147 33.4631C3.11369 34.0207 3.42259 34.3073 3.6519 34.7964L4.79845 36.7807C5.0922 37.3477 5.25897 37.5315 5.674 37.8928C5.81424 38.0143 5.80855 38.086 5.92226 38.1825C6.03218 38.276 6.07766 38.2542 6.19705 38.3695C6.36572 38.5314 6.48511 38.79 6.6443 38.9115C6.96647 39.1576 7.3815 39.4411 7.66388 39.7868C7.8117 39.9675 7.90456 40.2167 8.10734 40.3912C8.41814 40.6559 8.81422 41.0017 9.06058 41.3755C9.18756 41.5687 9.12881 41.4752 9.33538 41.5593C9.41687 41.5936 9.54384 41.6497 9.64238 41.7089C9.84516 41.8303 10.0404 41.9051 10.2488 42.0484C10.4573 42.1917 10.643 42.254 10.7965 42.416C10.9974 42.6247 11.113 42.6652 11.3253 42.8272L12.9077 44.1137L14.6038 45.8457C14.6967 45.933 14.7725 45.9797 14.8634 46.0513L15.9133 46.8862C16.3663 47.2974 16.8287 47.5154 17.2911 47.8674L18.4452 48.587C18.7257 48.7615 19.0763 48.8736 19.353 49.0076C19.4913 49.0761 19.4951 49.1135 19.6335 49.1976L20.8217 49.858C21.2481 50.101 21.6745 50.0761 22.0933 50.3315C22.1976 50.3938 22.2639 50.4218 22.3852 50.4841C22.5918 50.5901 22.8305 50.6119 23.0504 50.6835C23.9733 50.9857 23.9941 50.7676 24.4471 50.8548C25.0042 50.9608 26.6094 50.8891 27.1268 50.671C27.6044 50.4717 28.1179 50.805 28.5917 50.6804C29.0788 50.5558 29.5601 50.7552 30.0604 50.671C30.1874 50.6492 30.2556 50.6119 30.4167 50.6555C30.8355 50.7707 31.334 50.7676 31.7623 50.752C31.8191 50.752 31.821 50.7427 31.8551 50.7365C31.9537 50.7209 31.857 50.724 31.9328 50.7271C32.0048 50.7302 32.1602 50.7552 32.2891 50.7365C33.0566 50.6274 33.6877 50.6897 34.4363 50.7053C34.8267 50.7115 35.2114 50.5091 35.5449 50.6524C35.8785 50.7956 35.8027 50.615 36.1248 50.6306C36.284 50.6399 36.3276 50.5932 36.4773 50.5869C36.7749 50.5745 36.9549 50.5215 37.1861 50.4997C37.7433 50.4499 38.0863 50.7427 38.6207 50.4904C38.8936 50.3626 39.7464 50.4156 40.0345 50.3969C40.5234 50.3658 40.9157 50.2443 41.4084 50.2194C41.9315 50.1913 42.2991 50.0854 42.8051 49.9764C43.1159 49.9078 43.8872 49.8331 44.1298 49.5621C44.2757 49.4001 44.5164 49.3097 44.6813 49.1976C44.7931 49.1228 44.8576 49.1291 44.9845 49.0574L45.8449 48.5185C46.1102 48.3316 46.4097 48.2786 46.6465 48.1042L46.7186 48.045C46.8588 47.9453 46.8531 47.9827 46.9782 47.8456C47.306 47.4874 47.7893 47.4376 48.1456 47.1728C48.4791 46.9236 48.3957 47.045 48.7634 46.9142C49.0647 46.8083 49.3054 46.5622 49.5745 46.3473C49.9194 46.07 50.3231 45.9267 50.6434 45.5747C50.7514 45.4532 50.7703 45.4595 50.9049 45.3722L51.3275 45.0296C51.3275 45.0296 51.3446 45.0171 51.3502 45.0109L51.4204 44.9548C51.6061 44.8146 51.7672 44.6558 51.9756 44.6059C52.6465 44.4439 52.6863 44.1885 53.1335 43.9081C53.4785 43.6932 53.9447 43.525 54.2649 43.2321C54.4109 43.0982 54.3995 43.1107 54.5644 43.0265C54.7861 42.9144 56.3666 41.0235 56.6111 40.6217C56.7817 40.3413 56.8366 40.2946 57.0697 40.1015L57.7842 39.3725C57.9756 39.1451 58.6389 38.0548 58.7772 37.7651C58.9971 37.3041 60.1076 35.7496 60.4279 35.3353C60.5359 35.1983 61.0665 34.0083 61.1044 33.8961C61.4266 32.9305 61.5346 32.809 61.9212 31.9959C61.9989 31.8339 62.0198 31.8246 62.1013 31.6501C62.6584 30.429 62.5751 30.781 63.0318 29.3045C63.2421 28.6285 63.3691 28.2858 63.4923 27.5133C63.6458 26.5569 64.0419 25.504 63.9964 24.4916C63.9812 24.1707 64.0097 23.5072 63.9926 23.3484C63.8694 23.4543 63.5567 24.5134 63.4411 24.7844L62.8347 26.1052C62.6963 26.4043 62.5106 26.8186 62.342 26.9775C62.2832 27.0335 62.3419 27.0273 62.2548 27.2423C62.1733 27.4447 62.107 27.4541 62.0387 27.6379L61.6256 28.4634C60.9017 29.6347 60.86 29.6845 60.1266 30.6253C59.7835 31.0645 59.3571 31.4321 58.9952 31.8215C58.8246 32.0053 58.6427 32.2638 58.4626 32.4476L57.5511 33.2544C57.4847 33.3043 57.4468 33.3292 57.3881 33.3821C57.3805 33.3884 57.3729 33.3977 57.3654 33.404C57.3578 33.4102 57.3502 33.4195 57.3426 33.4258C57.1114 33.6407 56.8215 33.7996 56.5921 33.9803C56.4576 34.0862 56.0862 34.4257 55.9421 34.407C56.0899 34.108 56.5561 34.0083 56.4007 33.7809C56.3439 33.6968 56.3249 33.7902 56.2472 33.8775C56.2434 33.8806 56.2378 33.8899 56.234 33.893C56.2302 33.893 56.2226 33.9024 56.2188 33.9055C56.215 33.9086 56.1278 33.9553 56.1032 33.9709L53.7305 35.7247C53.6092 35.7995 53.5865 35.8369 53.4652 35.8836L52.9251 36.1889C52.7602 36.2917 52.5915 36.4163 52.4342 36.5346C52.2826 36.6499 52.0344 36.7371 51.8752 36.815L49.059 38.1171C48.9302 38.1763 47.9978 38.5283 47.8973 38.4473C48.2593 38.1265 49.1727 37.924 49.6522 37.4318C49.3433 37.41 48.807 37.8056 48.5019 37.9209C48.5739 37.7963 48.6971 37.7309 48.8259 37.6405L48.0262 38.0299C47.9295 38.0797 47.9106 38.1265 47.8348 38.1639C47.3591 38.4099 46.747 38.6124 46.2486 38.7838L45.3389 39.0735C44.8348 39.2479 43.9441 39.2635 43.4078 39.3476C43.2258 39.3756 43.0382 39.3351 42.8563 39.3601C42.6497 39.3912 42.5663 39.3196 42.3712 39.3569C42.0641 39.413 41.6719 39.4878 41.4065 39.3258C41.6567 39.3289 41.8348 39.304 42.0736 39.2604C42.2518 39.2292 42.4868 39.1576 42.6308 39.0485C42.464 39.0423 42.3314 39.089 42.1646 39.1202C41.1507 39.304 39.9568 39.3102 38.9884 38.9053L38.3118 38.7246C37.821 38.6467 37.387 38.2916 36.9037 38.2012C36.7313 38.1701 36.6915 38.1047 36.5095 38.0206C36.2139 37.8835 36.0035 37.8399 35.7401 37.6561C35.5733 37.5408 35.5335 37.5159 35.3516 37.4349C34.8248 37.1982 34.785 37.0393 34.4666 36.8524C34.4003 36.815 34.3434 36.8119 34.2657 36.7714C33.7578 36.5066 33.3447 36.0207 32.9278 35.7185C32.6397 35.5067 32.6757 35.65 32.3024 35.1858C32.0029 34.812 32.0712 34.703 31.9082 34.2139C31.7073 33.6096 31.5727 32.6003 31.5936 31.9118C31.6069 31.4477 31.6618 31.5723 31.7528 31.5972C32.5449 31.809 32.7117 29.7717 33.0377 29.2515C33.1154 29.1269 33.212 29.0926 33.2859 29.2297L33.159 29.4073C33.1021 29.4883 33.0983 29.4758 33.0566 29.616C33.3238 29.4602 33.4849 28.9462 33.6479 29.1176C33.5247 29.1923 33.4281 29.1861 33.4319 29.3917C33.502 29.4789 33.4034 29.4602 33.5588 29.4478C33.8564 29.4228 34.8987 27.5662 34.7186 27.155C34.5955 27.4977 34.5329 27.8061 34.3624 27.9805C34.3586 27.7064 34.4363 27.3669 34.4116 27.1457C34.207 25.2642 32.5411 26.3918 31.7755 26.2454C31.4041 26.1738 31.0648 26.0056 30.7806 25.9433C30.6366 25.9121 30.3845 25.8996 30.2537 25.8809C29.8747 25.8311 29.5165 25.8903 29.1868 26.0336C28.8741 26.1707 28.6334 26.4292 28.6012 26.965C28.5462 27.8715 28.6732 27.8528 28.8002 28.4976C28.6562 28.4073 28.3851 27.8372 28.2923 27.6067L28.2658 27.5413C28.2203 27.4323 28.2714 27.5008 28.2184 27.4416C28.2297 27.6441 28.3131 27.8933 28.3567 28.0896C28.4136 28.3544 28.5102 28.3107 28.6448 28.5381C28.7073 28.6441 28.7111 28.6596 28.7888 28.7624C28.8968 28.8995 28.8551 28.859 28.9688 28.94C29.1072 29.0397 29.1944 29.1518 29.363 29.1581C29.3119 28.454 29.1356 29.0584 28.9006 28.3014C28.8078 28.0055 28.7414 27.4292 28.8172 27.0958C28.8608 26.8996 29.0143 26.641 29.1129 26.5414C29.5544 26.1052 29.7913 26.2984 30.1666 26.2548C30.6858 26.1956 30.8318 26.3482 31.2923 26.4635C32.3497 26.7283 33.0225 26.2641 33.7313 26.4386C34.2695 26.5725 34.351 27.8622 34.0345 28.4852C33.9758 28.6004 33.7995 28.9493 33.7123 29.0303C33.8412 27.5444 33.2253 27.4946 32.9183 28.7157C32.7458 29.401 32.562 30.4789 32.2664 31.0147C32.1091 31.3013 31.7888 31.4819 31.5746 31.1548C31.6883 30.8122 31.6258 30.5318 31.6448 30.1424C31.6561 29.9119 31.7509 29.292 31.6069 29.1082C31.5727 29.4041 31.5614 30.9056 31.4173 31.1704C31.2638 31.3417 31.0573 31.2826 30.9341 31.0894C30.5949 30.5536 30.6612 28.6098 29.9581 27.9058C29.7269 27.6753 29.418 27.7376 29.3782 28.2983C29.3384 28.8559 29.4275 28.8185 29.4995 29.1612C29.7667 29.1643 29.8254 29.1394 30.0377 29.32C30.0813 29.0864 30.0263 29.1612 30.1287 29.0708C30.1931 29.2577 30.2594 29.4041 30.3371 29.5599L30.3125 29.1238C30.4698 29.3169 30.5191 30.3262 30.5911 30.6658C30.737 31.3573 30.917 31.4196 31.2354 31.6283C31.2392 32.0987 31.1274 32.0489 31.1899 32.5193C31.2259 32.7872 31.1823 33.0395 31.1388 33.3323C30.9834 34.3883 31.0648 33.9335 30.7559 34.7902C30.7029 34.9366 30.7067 34.9771 30.6024 35.0487C30.3182 35.2388 30.0017 35.6531 29.5753 35.9677C29.4407 36.0674 29.3005 36.1484 29.1584 36.2636L28.2809 36.8867C27.466 37.5315 27.2386 37.5782 26.4768 38.0143L25.5349 38.4536C25.5444 38.1576 25.7092 38.2012 25.8343 38.0392L25.8969 37.9396C25.4534 38.1296 25.2051 38.4099 24.6783 38.5501C24.4831 38.6031 24.2955 38.7713 24.1003 38.818C23.943 38.8585 23.6985 38.9644 23.4976 39.0423L22.1786 39.4037C21.8925 39.441 21.0605 39.7744 20.8634 39.6093C21.0832 39.4504 21.5059 39.4971 21.756 39.3445C21.6973 39.2541 21.7579 39.3102 21.6707 39.2791C21.5665 39.2386 21.4926 39.3102 21.394 39.3569C21.0984 39.4909 20.763 39.494 20.4654 39.547C20.2247 39.5906 20.2323 39.656 20.1452 39.4286L19.1559 39.6124C18.9209 39.6062 18.8375 39.6653 18.5987 39.6062C18.4433 39.5688 18.2538 39.5719 18.0738 39.5345C17.7763 39.4722 16.3682 39.1202 16.2109 38.9707C16.5463 38.9613 16.5766 38.8959 16.8382 39.0423C16.8818 39.0672 17.2854 38.9831 17.5034 39.0299C17.4086 38.8648 17.3536 38.8679 17.1584 38.8866L16.3189 38.8087C15.955 38.7339 15.504 38.656 15.1705 38.5065L14.4749 38.1888C14.3158 38.0984 14.2305 38.1545 14.077 38.0673L13.9273 37.9645C13.5369 37.8617 12.8148 37.5066 12.4358 37.2293C12.305 37.1327 11.9431 36.8929 11.7915 36.8275L11.9999 36.7714C11.9506 36.5409 11.9412 36.5658 11.7687 36.5222L10.4383 35.9833C10.1029 35.7808 9.82053 35.5129 9.48888 35.3322L8.11112 34.3447C7.94625 34.2077 7.83633 34.1173 7.66009 33.9927L7.21284 33.6251C6.7997 33.3043 6.36761 32.7716 5.97532 32.3479L2.86543 28.1363C2.78773 28.0148 2.78394 27.9681 2.72519 27.8435C2.61337 27.6036 2.50535 27.6005 2.38975 27.2983C2.24193 26.9152 1.73972 26.0492 1.50473 25.5227C1.41945 25.3327 1.43271 25.3919 1.36259 25.1707C1.32659 25.0617 1.29816 24.9651 1.2451 24.8498L0.746679 23.5322L0.756155 23.5477ZM60.7311 30.2234C60.8751 30.0708 60.9945 29.8558 61.1423 29.644C61.2257 29.5256 61.2617 29.4415 61.3337 29.3232C61.402 29.211 61.455 29.1767 61.5271 29.0646C61.6862 28.8185 62.1354 27.9182 62.2548 27.8217C62.2472 27.9868 62.0577 29.644 61.9895 29.8932L61.5422 31.0302C61.4247 31.2109 61.4967 31.0957 61.4721 31.0863L61.3925 30.9991C61.3451 31.1985 61.2883 31.2857 61.1594 31.348C61.0741 31.133 60.9945 31.0489 60.9396 30.7935C60.86 30.4259 60.9111 30.5692 60.7595 30.2857L60.7311 30.2234ZM3.98923 31.7498C3.8092 32.2919 3.63106 31.9149 3.48134 31.6408C3.39038 31.4726 3.11748 30.9617 3.08716 30.7873C2.9924 30.239 2.71382 28.9026 2.79152 28.4011C2.92986 28.4758 2.95639 28.6347 3.1497 28.8528L3.33542 29.0677C3.52872 29.3263 3.62158 29.5069 3.85468 29.7188C4.12758 29.968 4.21286 30.1549 4.1598 30.5194C4.12758 30.7499 4.04798 31.5692 3.98923 31.7467V31.7498ZM58.8322 32.4258C59.0198 32.2919 59.1468 32.1454 59.2946 31.9803C59.3931 31.8682 59.4121 31.8246 59.5031 31.7436C59.9124 31.3729 60.1739 30.8215 60.5397 30.4944C60.5359 31.4632 60.3331 32.8619 59.9446 33.5909L59.431 34.108C59.323 33.9491 59.4443 34.136 59.3761 34.0021C59.3552 33.9616 59.3401 33.9304 59.3249 33.9024C58.7393 32.7654 58.9345 33.3417 58.8341 32.4258H58.8322ZM6.30507 33.2015C6.30507 33.2015 6.29939 33.2202 6.30128 33.2326C6.44152 33.3853 6.43963 33.3541 6.61019 33.4756C6.70873 33.5441 6.85087 33.6438 6.86035 33.7996C6.87361 34.0363 6.88309 33.8027 6.79022 34.0363L6.52491 34.7123C6.12125 35.6063 6.11746 35.3852 5.83698 35.2979C5.71 35.2575 5.76496 35.3104 5.68158 35.2886C5.29497 35.1889 4.90647 33.7871 4.77571 33.1703C4.626 32.4601 4.44596 31.6003 4.4668 30.725C4.58241 30.7997 4.65063 30.8932 4.73212 31.0053L5.82561 32.5099C6.16104 32.9429 6.03786 32.8837 6.32781 33.0146C6.34866 33.1423 6.31076 33.2202 6.31076 33.2015H6.30507ZM58.6275 32.7934C58.5972 32.9024 58.5991 32.9305 58.5896 33.0239C58.457 34.3323 58.3148 34.7216 57.915 35.8026C57.8069 36.0954 57.7216 36.2107 57.606 36.4474C57.0318 37.6281 57.1057 37.1296 56.5713 36.273C56.4216 36.0331 56.5201 36.1328 56.4367 35.921C56.4235 35.8867 56.0482 35.3945 56.0558 34.8743C56.0596 34.6407 56.1146 34.7061 56.2321 34.6157L58.6995 32.6158L58.6275 32.7934ZM9.15723 35.6157C9.12123 35.7932 9.07385 35.8742 9.07574 36.1328C9.07953 36.5845 9.10038 37.3633 8.90139 37.709C8.77821 37.924 8.47688 37.9333 8.30064 37.8523C7.85149 37.6436 7.78137 37.5938 7.50469 36.3228L6.98732 33.8525C7.12377 33.9086 7.13135 33.9927 7.23937 34.1204C7.36066 34.2606 7.39098 34.217 7.50658 34.3198C7.59755 34.4039 7.67146 34.5161 7.76242 34.5939L8.30064 35.0363C8.48636 35.1142 8.43898 35.0145 8.61523 35.1671C8.8199 35.3478 8.97909 35.4257 9.15723 35.6188V35.6157ZM53.613 36.572C54.0489 36.273 53.5903 36.4474 54.1418 36.1297C54.3407 36.0144 54.498 35.8898 54.6876 35.7652L55.7772 34.9958C55.7791 36.0892 55.7393 36.1235 55.385 37.2262C55.3433 37.357 55.3338 37.3664 55.2902 37.4754C55.167 37.79 54.9794 38.2947 54.8032 38.5252C54.7198 38.6342 54.6364 38.7152 54.5435 38.8087C54.3711 38.6623 54.1133 38.0237 54.0072 37.7682C53.8347 37.3508 53.7476 37.2854 53.613 36.572ZM11.3688 39.7962C11.3158 39.98 11.2949 40.0329 11.2153 40.2385C11.0353 40.1606 10.933 40.3226 10.7378 40.1077C10.6752 40.0392 10.626 39.9675 10.5577 39.8834C10.3587 39.6373 10.0138 39.3601 9.82053 38.6654C9.49457 37.4879 9.44529 37.1514 9.30505 35.8836C9.29368 35.7901 9.288 35.8119 9.28231 35.678L11.0827 36.6873C11.1812 36.7589 11.3309 36.8462 11.4086 36.9085C11.6777 37.1265 11.5754 37.8555 11.5754 38.0299C11.5735 38.4411 11.5849 39.1794 11.4428 39.5719C11.3935 39.709 11.4181 39.6217 11.3688 39.7993V39.7962ZM28.9385 37.2137C28.9385 37.0175 29.6454 36.5502 29.8671 36.3353L31.0251 35.1204C31.1028 34.9958 31.1918 34.8618 31.26 34.7528C31.2847 35.0238 31.2998 34.8681 31.3283 35.1702L31.4249 37.6C31.4249 37.7932 31.4192 37.9801 31.4287 38.1732C31.4571 38.79 31.3813 41.335 31.2127 41.8584C31.1823 41.9487 31.1198 42.1605 31.0876 42.2291C31.0307 42.3537 30.9606 42.4191 30.8659 42.5032C30.6858 42.6683 30.7105 42.796 30.5058 42.6278C30.4982 42.6216 30.4906 42.6122 30.483 42.606C30.2689 42.4098 30.0434 42.1512 29.9467 41.8023C29.8198 41.3382 29.6587 40.8397 29.5052 40.4535C29.2759 39.8741 28.9328 38.1078 28.9366 37.2106L28.9385 37.2137ZM32.1375 42.4752C32.1072 42.4814 32.1261 42.5094 32.0787 42.4845C31.8987 42.3879 31.8191 40.631 31.8021 40.2136C31.7623 39.332 31.749 38.3601 31.694 37.4474C31.6808 37.2169 31.6523 37.1047 31.6372 36.8057C31.6258 36.5751 31.5955 36.4692 31.6031 36.2605C31.6542 35.0643 31.4249 34.6531 32.1185 35.4568C32.4862 35.8805 32.5127 35.8369 32.8046 36.1266L33.6972 36.8617C33.8071 36.9303 33.8943 37.0019 33.9985 37.0642C33.9928 37.3695 33.9189 37.7994 33.8905 38.0673L33.8241 38.709C33.8071 38.8243 33.7995 38.9053 33.7862 38.9925C33.6991 39.5438 33.4887 40.251 33.32 40.7837C33.2992 40.8491 33.2727 40.9145 33.2405 41.0048L32.8823 41.8646C32.8235 41.9705 32.7382 42.1107 32.6624 42.1979C32.3573 42.5468 32.3384 42.4284 32.1375 42.4814V42.4752ZM50.8139 37.8555C51.0148 37.7558 51.2972 37.653 51.5094 37.5533C51.7425 37.4443 51.9131 37.3103 52.1462 37.2137L53.0956 36.8181C53.4841 36.7994 53.0085 38.9177 52.855 39.3476C52.6958 39.7899 52.3376 40.7214 51.9965 40.7151C51.5871 40.7089 51.4412 40.5718 51.2043 39.413C51.0906 38.8585 50.9371 38.4349 50.8139 37.8492V37.8555ZM11.9279 37.8492C11.8957 37.6779 11.818 37.2667 11.818 37.2418C11.9222 37.1203 12.4131 37.6312 12.8129 37.8056C13.1161 37.9364 13.7207 38.2916 13.9993 38.2978L14.058 40.4566C13.8837 41.2665 13.8515 40.684 13.643 41.8615C13.118 42.0796 12.9797 41.55 12.5609 40.5469C12.4927 40.3818 12.4225 40.1264 12.3676 39.9426C11.9241 38.4629 12.1098 38.8367 11.9241 37.8461L11.9279 37.8492ZM47.8499 38.9676C48.0906 38.899 48.3275 38.7651 48.5682 38.7277L48.9662 38.6155C49.0894 38.5626 49.2012 38.5564 49.33 38.5252C49.6522 38.4442 50.4804 37.9551 50.7078 37.9863L50.6642 38.1389C50.6642 38.1389 50.6566 38.167 50.6547 38.1794L50.6415 38.2729C50.6055 38.6436 50.6528 38.709 50.5164 39.3476C50.4368 39.7245 50.3174 40.1669 50.2056 40.4628C50.0161 40.9675 49.8133 42.0764 49.3092 42.2228C49.1955 41.9923 49.1102 41.9986 48.8392 41.5656C48.3332 40.7587 48.1892 40.5251 47.9826 39.4473C47.9239 39.1389 47.8897 39.1794 47.8499 38.9707V38.9676ZM36.0054 41.4254C35.9202 41.6434 35.4881 42.4814 35.219 42.145C35.0503 41.9331 34.8058 40.3849 34.7509 39.9114L34.5841 37.463C34.9309 37.6499 35.3023 37.9271 35.6245 38.1078L36.6384 38.6498C36.6346 38.9769 36.5853 39.0517 36.555 39.3196C36.5247 39.5781 36.5114 39.7245 36.4811 39.9457C36.3731 40.7494 36.2177 40.8833 36.0073 41.4285L36.0054 41.4254ZM28.6959 37.2916C28.6959 37.491 28.6997 37.7122 28.6959 37.9084C28.6884 38.1857 28.6751 38.1701 28.6296 38.4162C28.478 39.2323 28.3416 40.55 28.1748 41.0298C28.0516 41.3849 28.1293 41.3164 27.9493 41.8241C27.6252 42.7337 27.3106 42.8957 26.8615 41.7493C26.7516 41.469 26.7364 41.1949 26.6644 40.927L26.473 40.1575C26.4085 39.7806 26.3327 39.008 26.4237 38.6342C26.4749 38.4255 26.4559 38.4629 26.6037 38.4131C26.9771 38.2916 27.2803 38.0579 27.6366 37.8555C28.0061 37.6436 28.3321 37.3944 28.6959 37.2979V37.2916ZM22.8855 39.6404C23.0257 39.5843 23.1338 39.5719 23.2816 39.547L23.9449 39.2573C24.0643 39.2043 24.1837 39.2136 24.3012 39.1576C24.3106 39.1545 24.3182 39.1482 24.3277 39.142L24.377 39.1108C24.4414 39.0766 24.3334 39.0984 24.4528 39.0766C24.5418 39.061 24.5665 39.0984 24.6271 39.1046C24.737 39.1171 24.8621 39.0517 24.9796 39.0299C25.1274 39.0049 25.2355 38.9707 25.3548 38.9302C25.5102 38.8772 25.5046 38.7993 25.6732 38.79C25.5955 39.008 25.5993 38.8616 25.5823 39.1825C25.514 40.4628 25.6012 40.6217 25.5671 41.902L25.5197 42.7836C25.5008 43.0421 25.5425 42.8926 25.5481 43.1761C25.5481 43.282 25.5292 43.4907 25.5273 43.6402C25.5159 44.3567 25.3132 45.5404 24.864 44.7866C24.7749 44.6371 24.6935 44.4626 24.6082 44.2819C24.3978 43.8427 24.0453 43.3069 23.9183 43.0452L23.4559 41.9581L22.8817 39.6435L22.8855 39.6404ZM15.847 39.1451C16.2658 39.3787 16.9955 39.5968 17.1111 39.6778C17.1035 39.9675 17.0921 39.7339 17.0637 39.9831C17.0296 40.2884 17.0997 40.4535 16.9803 40.9114C16.6903 42.0204 16.7813 41.7961 16.226 42.5032C15.7883 43.0608 15.4623 42.282 15.2235 41.7525C15.1477 41.5843 15.125 41.5126 15.0567 41.3382C15.0018 41.198 15.0302 41.2914 14.9772 41.117C14.7649 40.3974 14.5697 39.4379 14.5451 38.6311C14.9715 38.7059 14.8312 38.7028 15.2406 38.8679L15.8451 39.1451H15.847ZM45.5644 39.3663C45.79 39.3694 45.8563 39.4192 46.1273 39.3663L47.6131 39.0797C47.6282 39.737 47.4709 40.7151 47.3079 41.2727C47.1677 41.7493 46.6882 42.9269 46.4362 43.1356L46.1709 43.2321L45.7824 42.307C45.627 41.9331 45.1721 41.2478 45.0111 40.8024C44.8689 40.4067 44.7647 39.8086 44.6491 39.5345C44.9523 39.466 45.2555 39.3632 45.5625 39.3694L45.5644 39.3663ZM38.1526 39.2604C38.958 39.6124 39.0452 39.304 38.941 39.8585C38.7609 40.8086 38.9524 40.2728 38.6169 41.4752C38.4047 42.2322 37.8949 43.4907 37.4419 43.8302C36.8867 44.2446 37.0819 43.0733 36.9587 41.6185C36.9359 41.3444 36.9625 41.0298 36.9587 40.6996C36.9511 40.2884 36.8829 39.522 36.9966 39.0641C37.0004 39.0485 37.0042 39.033 37.008 39.0205L37.0496 38.8772L38.1545 39.2604H38.1526ZM41.8803 39.9332C42.2518 39.8086 42.7312 39.8585 43.133 39.8242C43.4627 39.7962 44.0085 39.7183 44.3099 39.5968C44.3061 40.2416 44.2852 40.3475 44.1772 40.8709C43.9649 41.8864 44.054 41.36 43.9214 41.902C43.8588 42.1543 43.8247 42.1232 43.7262 42.335C43.6693 42.4565 43.6276 42.578 43.548 42.74C43.4286 42.9767 43.2638 43.229 43.0875 43.3661C42.7085 43.662 42.6365 43.1543 42.5531 42.8241L42.4337 42.497C42.0888 41.4877 42.301 41.469 42.0983 40.9207C41.994 40.6373 41.8841 40.3631 41.8803 39.9364V39.9332ZM20.3195 40.008C21.1439 39.9364 21.7427 39.8616 22.5425 39.765L22.4762 42.0827C22.4762 42.5157 22.5008 43.8022 22.245 44.0047C21.9967 44.2009 21.7086 43.553 21.5741 43.3318C21.358 42.9767 21.3012 42.9456 21.0245 42.444C20.9582 42.3225 20.9733 42.3007 20.9146 42.1699L20.8179 41.9768C20.8179 41.9768 20.7971 41.9145 20.7933 41.8989C20.7611 41.8023 20.7289 41.712 20.6928 41.6029C20.6891 41.5936 20.6834 41.578 20.6796 41.5656C20.6758 41.5531 20.672 41.5406 20.6682 41.5282L20.3233 40.008H20.3195ZM39.3011 39.7557C39.3011 39.466 39.3522 39.5625 39.5038 39.5875L40.9479 39.8398C41.1602 39.8491 41.3705 39.8336 41.5809 39.8585C41.5771 40.6217 41.1109 41.8802 40.8588 42.5468C40.6693 43.0484 40.3851 43.6153 39.9738 43.6651C39.9397 43.2072 39.9397 43.1449 39.8222 42.74C39.6763 42.2415 39.6573 42.3007 39.5758 42.0546L39.5076 41.8148C39.3825 41.4129 39.4602 41.5593 39.3939 41.1917C39.2783 40.5531 39.2954 40.3662 39.2973 39.7619L39.3011 39.7557ZM17.8445 39.8803C18.3088 40.036 19.4819 39.9768 20.0182 40.0516C20.1546 40.6778 20.2949 41.9145 20.0883 42.6091C19.8381 43.4502 19.7225 43.9517 19.0915 43.3194C18.7788 43.0047 18.3164 42.201 18.1363 41.821C17.8331 41.1855 17.7952 41.0391 17.6284 40.4067C17.5754 40.2074 17.5602 40.036 17.5413 39.8055C17.7175 39.8055 17.6948 39.8336 17.8426 39.8834L17.8445 39.8803ZM49.5537 43.8053C49.6579 43.4409 49.7299 43.1107 49.8512 42.7867C50.1317 42.768 50.2226 42.9892 50.397 43.1823C50.5259 43.3287 50.6509 43.7493 50.7154 44.0047C50.433 44.3069 50.1772 44.4284 49.8512 44.5997L49.258 44.8458L49.5518 43.8053H49.5537ZM47.4046 45.8239C47.4273 45.6775 47.5448 45.5031 47.6093 45.2165C47.668 44.961 47.704 44.7461 47.7722 44.4938L48.0338 43.4159C48.0793 43.2197 48.0793 43.2664 48.1228 43.0982C48.8127 43.1044 49.2353 44.2819 49.1652 44.7741C49.1083 44.9423 49.0913 44.9205 48.9643 44.9766C48.6952 45.0981 48.6895 45.2009 48.2953 45.3722C48.1096 45.4532 47.56 45.8239 47.4065 45.8208L47.4046 45.8239ZM15.6613 44.8582C15.6992 44.5748 15.5893 43.5561 15.991 43.5592C16.2639 43.5624 16.3 43.6153 16.3758 43.7306C16.5008 43.9206 16.588 44.1823 16.6619 44.419C16.7017 44.5436 16.7794 44.7274 16.8382 44.88C16.8931 45.0233 17.1831 45.5155 17.2096 45.7772L16.7207 45.528C16.5349 45.4314 16.8742 45.6183 16.6657 45.5L15.8527 44.9704C15.7485 44.9019 15.8072 44.8956 15.6594 44.852L15.6613 44.8582ZM27.8299 44.8302C27.8299 44.6371 27.9417 44.176 28.0383 44.0763C28.1179 43.9953 28.1691 44.0078 28.2563 43.9144C28.3567 43.8022 28.3112 43.7617 28.4666 43.743C28.5254 43.9019 28.8627 45.3816 29.0939 45.9361L29.5052 47.1697C29.4407 47.2288 28.4818 47.4157 28.3738 47.4126C28.0459 47.4064 28.0649 47.3534 27.9133 46.5186C27.8431 46.123 27.828 45.2819 27.8299 44.8302ZM35.9846 46.9796C36.0964 46.7273 36.1912 46.4719 36.3011 46.2414L36.9227 44.7679C37.0023 44.6495 37.0572 44.5935 37.2107 44.6682C37.2922 44.7056 37.3586 44.8146 37.3586 44.986L37.3017 46.285C37.2562 46.6276 37.2771 46.8457 37.2373 47.1603C36.9265 47.1541 36.447 46.9983 36.3314 46.9952C36.1551 46.9952 36.1779 47.0046 35.9865 46.9796H35.9846ZM45.6004 45.9392C45.6611 45.7149 46.2012 44.4875 46.3016 44.0265C46.5556 44.0203 46.7944 44.0265 46.9384 44.4564C46.9668 44.5436 47.0957 45.2196 47.0957 45.3224C47.0919 46.0576 47.1241 46.0171 46.8285 46.0763C46.6958 46.1012 46.5992 46.1697 46.4722 46.1666C46.1879 46.1635 46.3736 46.1323 45.9435 46.4002C45.7767 46.503 45.591 46.5716 45.3882 46.6214L45.6004 45.9361V45.9392ZM23.5677 47.855C23.2911 47.7896 22.912 47.8363 22.624 47.7771C22.0839 47.6712 22.1767 47.8519 22.0251 47.07C21.9493 46.6775 21.9512 46.0077 21.9493 45.6744C21.9474 45.176 21.9986 44.9143 22.19 44.5685C22.5728 44.7367 22.8476 45.5031 23.0466 46.0015C23.4029 46.8955 23.2588 46.6993 23.4427 47.422C23.5431 47.8114 23.5621 47.6432 23.5696 47.855H23.5677ZM29.9505 45.2694C29.9505 45.1324 30.1438 44.2633 30.3011 44.0109L30.4622 43.7119C30.5816 43.7804 30.6366 43.8645 30.7048 44.0234L30.8659 44.4502C31.0952 44.9704 31.3093 45.6214 31.495 46.1915C31.5652 46.4065 31.7206 46.8706 31.7281 47.1697C31.4913 47.1665 31.3965 47.2008 31.1823 47.1697C30.7976 47.1105 30.5058 47.1198 30.1381 47.1697C30.0585 46.9454 30.0529 46.6712 30.032 46.3722C29.9922 45.8395 29.9429 46.0077 29.9486 45.2726L29.9505 45.2694ZM37.6637 47.2506C37.73 47.0326 37.8475 46.7522 37.9498 46.4937C38.1261 46.0451 38.5923 44.338 38.7117 44.1511C38.9107 43.8427 39.0812 44.148 39.1457 44.4034C39.4925 45.7772 39.4167 45.6713 39.2859 47.3441C39.3162 47.3441 39.3636 47.3503 39.392 47.3441C39.519 47.3067 39.4356 47.3316 39.4716 47.2974L40.2126 45.7928C40.404 45.2134 40.6826 44.0608 41.0654 44.3411C41.3819 44.5716 41.3402 46.3597 41.3231 46.908C41.3118 47.2756 41.2834 47.0731 41.2587 47.3784C41.0919 47.3784 40.9024 47.3534 40.7376 47.3784C39.6024 47.5497 39.5493 47.4625 38.4217 47.3129C38.3516 47.3036 38.327 47.3036 38.2398 47.3129C37.785 47.3659 38.1943 47.341 37.6618 47.2506H37.6637ZM17.8388 46.0513C17.854 45.3411 18.1155 43.8084 18.5741 43.7088C19.0668 44.5405 19.9537 47.0014 20.0466 47.1634C20.2399 47.503 19.9841 47.0108 20.1035 47.26C19.5861 47.0077 19.1843 46.718 18.7049 46.4594C18.5949 46.4002 18.5191 46.4127 18.4073 46.3628C18.2898 46.3099 18.2406 46.2787 18.1003 46.232C18.0529 46.2164 18.0037 46.204 17.9582 46.1728C17.943 46.1635 17.8975 46.1199 17.8862 46.1074L17.8388 46.0482V46.0513ZM43.5348 47.1136C43.5632 46.8768 43.675 46.5279 43.7584 46.3597C44.1677 45.5186 44.1715 45.2134 44.4217 44.3224C44.6453 43.5219 45.1987 44.4564 45.085 46.7211C44.6889 46.8955 43.7129 47.0357 43.5348 47.1167V47.1136ZM20.3025 45.1106C20.3043 44.7087 20.4578 44.2414 20.6493 44.0514C20.7345 44.1418 20.8122 44.2446 20.8729 44.4003C20.9051 44.4844 20.888 44.447 20.9089 44.5093L21.3258 45.7305C21.377 45.8893 21.4452 46.0295 21.4831 46.1666C21.5343 46.3504 21.54 46.4501 21.6063 46.6619C21.6916 46.9329 21.6631 46.8862 21.7124 47.1728C21.7598 47.4407 21.792 47.3939 21.8527 47.6089C21.5949 47.6058 21.3201 47.5341 21.0605 47.4812C20.9392 47.4562 20.8217 47.4531 20.6625 47.4407C20.509 47.4282 20.4446 47.3628 20.3043 47.3285C20.4275 46.6962 20.2949 46.3441 20.2949 46.0981L20.3006 45.1137L20.3025 45.1106ZM32.0655 46.8768C32.0825 46.6681 32.111 46.6214 32.1318 46.4501L32.2891 45.2507C32.3573 44.8489 32.797 43.5561 33.0926 43.6776C33.4319 43.8147 33.5929 45.2196 33.591 45.7398C33.5854 46.7647 33.5266 46.3878 33.5228 46.9547L32.0674 46.8799L32.0655 46.8768ZM34.2828 46.9609C34.2998 46.7647 34.4628 46.2351 34.5197 46.0576C34.8077 45.1666 34.9252 43.9362 35.399 43.796C35.7685 44.2882 35.7155 45.7834 35.6302 46.5934C35.5904 46.9641 35.6245 46.9921 35.4483 46.989L34.6068 46.9703C34.5083 46.9703 34.5329 47.0108 34.4135 47.0014L34.2847 46.9609H34.2828ZM25.8514 45.9516C25.8514 45.827 25.9461 45.3099 25.9821 45.1822C26.0826 44.824 26.1224 43.7679 26.4787 44.1854C26.5677 44.2913 26.6568 44.609 26.7099 44.7928C26.9392 45.5872 27.3883 46.6619 27.4793 47.4469C27.214 47.4438 26.9449 47.4313 26.6814 47.4313C26.5052 47.4313 26.1394 47.5746 26.0845 47.5154C25.9329 47.3566 25.8476 46.3815 25.8495 45.9485L25.8514 45.9516ZM41.4255 47.2506C41.4217 47.1323 41.7192 46.6401 41.7893 46.503C41.9258 46.2289 41.9656 45.88 42.1153 45.6526C42.4375 45.1635 42.2802 45.176 42.4792 44.7991C42.5929 44.5841 42.826 44.3879 43.0363 44.3162C43.188 44.5872 43.1709 44.7149 43.1974 45.1137C43.2467 45.8831 43.2505 46.4158 43.2296 47.1603C42.8904 47.1541 42.6592 47.3005 42.3143 47.2974L41.5998 47.3192C41.4861 47.3285 41.4785 47.3161 41.4274 47.2506H41.4255ZM23.7573 45.8613C23.7573 45.6401 23.8368 44.8396 23.9809 44.5966C24.1116 44.6495 24.0264 44.5903 24.1211 44.7305L24.7787 46.0731C24.9 46.3068 25.0744 46.5684 25.1729 46.8114C25.2999 47.1229 25.3321 47.4251 25.478 47.6307L25.1994 47.7927L24.0775 47.8394C23.7648 47.8332 23.7554 46.3691 23.7592 45.8582L23.7573 45.8613Z" fill="white"/>
<path fill-rule="evenodd" clip-rule="evenodd" d="M27.0586 14.8736C27.0623 14.3713 26.9532 13.7047 26.9119 13.2148C26.8893 12.9544 26.8761 12.6257 26.8366 12.3653L26.6692 11.215C26.4943 10.2166 26.3777 9.7856 26.1332 8.82443C26.0787 8.60739 25.9978 8.41205 25.932 8.17951C25.7401 7.51289 25.3019 6.55792 25.1571 6.13004C25.063 5.85409 24.6398 5.06035 24.5007 4.85262C24.2035 4.40924 23.3609 3.16591 23.0994 2.89927C23.0449 2.84346 23.0599 2.85276 23.0129 2.80935C22.7383 2.552 22.586 2.25125 22.2192 1.9815L21.749 1.54742C21.5271 1.31178 21.3014 1.21566 21.0531 1.01723C20.739 0.766084 20.1202 0.40952 19.7591 0.2979C18.6758 -0.0400605 17.7015 -0.0617644 16.6275 0.0901628L15.1944 0.580051C15.121 0.629659 15.0646 0.676168 14.9988 0.725777C14.931 0.775385 14.995 0.741279 14.8991 0.790888C14.6414 0.921112 14.4552 1.18156 14.2182 1.32418L13.0314 2.41868C13.0314 2.41868 13.0145 2.43418 13.0088 2.43728L12.4089 3.1163C12.3186 3.22482 12.3393 3.22792 12.264 3.33954C12.1531 3.50697 12.0402 3.55348 11.9255 3.69611C11.7506 3.91005 11.8785 3.73952 11.7976 3.98756C11.7637 4.09298 11.7449 4.05887 11.6791 4.15499L11.4534 4.59217C11.397 4.72859 10.9193 5.47273 10.7537 5.85409C10.7105 5.95331 10.6992 6.03703 10.6484 6.13935C10.5563 6.32538 10.6014 6.14555 10.513 6.37189C10.4566 6.51761 10.4885 6.51451 10.4152 6.67264L9.95063 7.81365C9.85659 8.06479 9.80957 8.14231 9.73058 8.43686C9.67227 8.6539 9.61961 8.82443 9.55566 9.07867C9.28482 10.1515 9.09862 10.4739 8.92935 11.8382L8.71305 13.3977C8.58139 14.3372 8.59644 15.4069 8.5908 16.3526C8.58516 17.1401 8.74315 18.0176 8.75819 18.8299C8.76572 19.3198 8.94439 20.2035 9.0422 20.7027C9.12683 21.1398 9.73998 23.2048 9.88668 23.5056C10.1632 24.0699 10.1406 24.1784 10.3193 24.628L10.812 25.7101C11.1675 26.5534 11.8973 27.5828 12.4164 28.1936C12.4766 28.2649 12.5217 28.3424 12.5687 28.4044C12.691 28.5626 14.0019 29.902 14.1862 30.0074C14.3028 30.0725 14.2822 30.0415 14.395 30.1252L15.4238 30.7454C15.5047 30.7857 15.5705 30.7857 15.6552 30.826C15.8733 30.9345 16.0501 31.1918 16.5034 31.2104C16.8589 31.2228 17.1899 31.3717 17.5529 31.3779C18.0626 31.3872 18.1943 31.3097 18.5309 31.2942C18.7115 31.288 18.8714 31.2848 19.0519 31.2476L19.4713 31.1019C19.6086 31.0616 19.8136 31.0151 19.9434 30.9469L21.0343 30.3454C21.1453 30.2865 21.1867 30.3175 21.2581 30.2555L21.4199 30.0632C21.7471 29.7966 21.5929 29.9919 21.9935 29.5702C22.3245 29.223 22.4825 29.285 22.806 28.8478L23.4248 28.144C23.5621 27.9859 23.6091 27.8804 23.722 27.713C23.9251 27.4061 24.1188 27.1456 24.3107 26.8387C24.8185 26.0201 24.8806 25.7597 25.2511 25.0496C25.5972 24.3861 26.1915 22.6188 26.3777 21.7072L26.5338 21.0561C26.594 20.7895 26.6523 20.622 26.6805 20.3213L26.9815 18.0982C27.051 17.0223 27.0548 15.9371 27.0605 14.8798M17.3178 0.505637C17.346 0.483933 17.4288 0.443626 17.4589 0.446727C17.7372 0.449827 17.6545 0.425023 17.7128 0.564548L17.6676 0.57695C17.6676 0.57695 17.6507 0.57695 17.6432 0.57695C17.6357 0.57695 17.6244 0.57695 17.6169 0.57695C17.5303 0.57695 17.4984 0.545944 17.3855 0.638961C17.4532 0.769184 17.3234 0.713374 17.5266 0.753682C17.7184 0.790888 17.7015 0.564548 17.8444 0.490134L18.5986 0.536643C18.5986 0.536643 18.6174 0.570749 18.6212 0.558347C18.625 0.545944 18.6344 0.57695 18.6419 0.583151C18.4068 0.728877 18.4444 0.669967 18.2338 0.883905C17.9009 1.22187 17.8143 1.24047 17.4871 1.59703L16.9153 2.5582C16.9153 2.5582 16.904 2.57991 16.8984 2.58921C16.8927 2.59851 16.8871 2.61091 16.8815 2.62022C16.4978 3.32094 16.7103 2.94267 16.4413 3.68371C16.3623 3.90075 16.2909 4.02167 16.2213 4.24491C16.1498 4.47125 16.0765 4.70069 16.0276 4.90532C15.9655 5.15957 15.9429 5.35491 15.8884 5.66806C15.7097 6.69745 15.689 6.86798 15.61 7.97797V8.39035C15.5611 8.73141 15.5498 9.44764 15.548 9.7949C15.548 10.0677 15.6063 10.1732 15.6044 10.3127C15.6006 10.9049 15.5724 10.4088 15.642 11.1591C15.6627 11.3917 15.753 11.8692 15.657 12.0676C15.6044 11.8785 15.5442 11.5405 15.4896 11.3049C15.3862 10.8429 15.3918 10.6879 15.3298 10.3065C15.0721 8.6787 15.0495 7.75163 15.1154 6.04323L15.2846 4.28521C15.3166 4.02787 15.3768 3.83873 15.4501 3.59379C15.5969 3.0946 15.7379 2.73184 15.9354 2.37527C16.1235 2.03421 16.3172 1.67455 16.526 1.33039C16.6764 1.08234 16.731 1.04823 16.8984 0.902508C17.1448 0.68857 17.0451 0.80329 17.3441 0.781587C17.3272 0.679268 17.3009 0.57695 17.3122 0.505637H17.3178ZM14.1166 2.14583C14.2596 2.02181 14.0696 2.08692 14.2558 2.03111C14.2558 2.02181 14.2483 2.00941 14.2483 2.00631C14.2483 2.00321 14.2408 1.9846 14.2408 1.9784L14.2539 1.79857L14.459 1.9474C14.4533 2.11172 14.427 2.18304 14.4025 2.28536C14.3743 2.40628 14.3743 2.40628 14.3518 2.5489C14.2163 3.42946 14.1844 3.78292 14.1693 4.52396C14.1693 4.61077 14.1693 4.73169 14.175 4.81851C14.2276 5.75798 14.2615 6.78426 14.4458 7.76714C14.5455 8.29733 14.6997 9.40423 14.822 9.87862C14.8915 10.1515 15.027 10.6848 15.0364 10.9545C14.8821 10.7623 14.8972 10.7902 14.8013 10.4925C14.4439 9.38873 13.9229 7.87256 13.8082 6.69124C13.7781 6.37809 13.7367 6.29437 13.7123 6.02773L13.5938 4.70379C13.5806 4.46195 13.5769 4.28831 13.575 4.00306C13.5712 2.21094 13.6201 2.57681 14.1204 2.14273L14.1166 2.14583ZM16.2006 14.669C16.1235 14.4674 16.2363 13.683 16.225 13.435C16.2119 13.1466 16.2156 11.6087 16.2721 11.2429C16.304 11.0351 16.289 10.8987 16.3116 10.6227C16.336 10.3127 16.3793 10.3313 16.3981 10.0367L16.5655 8.94535C16.5655 8.94535 16.573 8.91744 16.5768 8.90504C16.5805 8.89264 16.5843 8.87714 16.5862 8.86473C16.6482 8.55158 16.5899 8.38725 16.7385 8.18571C16.921 7.93767 16.7385 7.95317 16.8401 7.62141C16.8702 7.52529 16.8852 7.59041 16.9191 7.44778C17.0507 6.87728 17.2802 6.08974 17.5228 5.61845L17.9516 4.65108C18.1529 4.24491 18.5441 3.86664 18.8055 3.58759C19.2137 3.15351 19.3416 3.14111 19.8024 2.88066C20.8387 2.29776 22.0311 2.65742 22.9189 3.54418C23.1653 3.78913 23.2179 3.67751 23.1521 3.84804C23.28 3.82633 23.2819 3.59069 23.2706 4.01237C23.3308 3.96276 23.3421 3.94415 23.4323 3.95966C23.4756 4.56736 23.4549 4.04027 23.6787 4.42164C23.7164 4.48675 23.754 4.59837 23.7972 4.68519C23.8461 4.7782 23.8819 4.83091 23.9345 4.92083C24.1659 5.3084 24.48 6.26957 24.5458 6.72535C24.5646 6.86178 24.5796 6.9796 24.5966 7.10052C24.6097 7.19974 24.638 7.37647 24.6474 7.48189C24.7771 8.81203 24.2637 9.85381 23.7784 10.7251L23.2066 11.6831C23.028 11.9746 22.4618 12.8086 22.285 12.8831C22.6969 12.1482 22.7684 12.266 23.2029 11.215C23.2875 11.0072 23.3722 10.8305 23.4606 10.601C23.8931 9.45074 23.9627 7.62451 23.5264 6.37809C23.3139 5.77658 22.9151 5.13787 22.5126 4.88362C22.1421 4.64798 21.5666 4.38133 21.1754 4.54566C21.0663 4.59217 21.0193 4.57667 20.9008 4.60147C20.6469 4.65728 20.5829 4.741 20.4042 4.82471C20.1973 4.92083 20.1278 5.00764 19.9491 5.16577L19.1384 5.95331L18.4783 6.9951C18.1642 7.5315 18.1472 7.64001 17.9197 8.14541C17.5774 8.90504 17.615 8.93605 17.4024 9.42593C17.205 9.88172 17.0883 10.3003 16.9322 10.784L16.7272 11.4909C16.5391 12.1792 16.4978 12.7652 16.4094 13.1063C16.2758 13.6179 16.2909 14.145 16.2006 14.6721V14.669ZM13.1781 7.66482C13.0239 7.40127 12.881 7.08191 12.7549 6.73155C12.7173 6.62923 12.738 6.67884 12.7079 6.58273C12.4897 5.8851 12.4371 5.85099 12.2716 5.07276C12.2039 4.7596 12.1286 4.31312 12.2339 4.04027C12.2377 4.02787 12.2452 4.01547 12.249 4.00616L12.5988 3.61549C12.659 3.59379 12.644 3.60619 12.6722 3.6217C12.6872 3.68681 12.6853 3.6217 12.6835 3.75502C12.6797 4.2108 12.58 3.71161 12.7042 5.3487L12.8095 6.19206C12.8791 6.61993 13.18 7.62141 13.1819 7.67102L13.1781 7.66482ZM11.5512 5.41692C11.5644 5.47583 11.5775 5.55024 11.6001 5.62465L12.0365 6.82767C12.0797 6.96719 11.9744 6.78426 12.0816 6.91758C12.1869 7.05091 12.1531 6.93619 12.2396 7.17183L13.0145 8.76242C13.0878 8.89884 13.4245 9.42283 13.4396 9.55306C13.2985 9.46624 12.6609 8.64149 12.4446 8.30974C12.3487 8.16401 12.2528 8.00588 12.155 7.87256C11.8691 7.48499 11.1826 6.15795 11.0641 5.77968C11.1261 5.70527 11.2127 5.55644 11.2785 5.45102C11.3725 5.3022 11.3838 5.20608 11.459 5.06655C11.4967 5.17507 11.523 5.27739 11.5531 5.41382L11.5512 5.41692ZM22.6593 13.8938C22.46 14.0396 22.428 14.176 22.3189 14.021C22.5201 13.9155 22.8305 13.559 23.0167 13.3326C23.0223 13.3264 23.0299 13.314 23.0374 13.3078L23.9496 12.2226C24.4254 11.6676 25.0198 10.7778 25.2361 9.85071C25.3376 9.41973 25.4918 8.52057 25.4712 8.00588L25.458 7.66172C25.473 7.5346 25.4542 7.61521 25.4862 7.5408C25.6197 7.89736 25.757 8.21982 25.8511 8.657C25.9019 8.88954 25.9752 9.02906 25.9338 9.28951C25.9226 9.35772 25.8135 9.83211 25.8003 9.87551C25.6987 10.2197 25.5201 10.5731 25.3602 10.8212L24.9671 11.4351C24.5044 12.235 24.6586 11.8289 24.2618 12.3436C23.7051 13.0629 23.2781 13.4443 22.6612 13.8969L22.6593 13.8938ZM10.3005 7.5749C10.4152 7.34856 10.4133 7.10672 10.5713 6.93619C10.6503 6.9982 10.9832 7.65862 11.1431 7.90046L12.1474 9.13138C12.3976 9.41043 12.9599 10.0988 13.1856 10.2476C13.1123 10.353 13.2928 10.4088 13.0577 10.2941C13.0483 10.2879 12.9844 10.2073 12.975 10.1949C12.5274 9.61817 11.0377 8.57328 10.3005 7.5749ZM16.3417 15.9991C16.3417 15.9991 16.3605 15.8968 16.3661 15.8441C16.3906 15.6053 16.5786 15.1062 16.6689 14.8705C16.6746 14.855 16.6877 14.8116 16.6934 14.7961C16.8043 14.4798 16.9774 13.7915 17.0902 13.5466C17.3084 13.0722 17.6037 12.3405 17.8106 11.9653C18.0363 11.556 18.0871 11.1653 18.5629 10.4987C18.7077 10.2972 18.7679 10.1608 18.8958 9.95303C19.161 9.52515 19.2588 9.47244 19.6068 8.93915C19.8983 8.48957 20.3027 8.21052 20.6544 7.91906C20.7484 7.84155 20.7842 7.79194 20.8707 7.74853C20.9515 7.70513 21.0569 7.68342 21.1283 7.65862C21.1904 7.63691 21.2299 7.61831 21.2713 7.60281C21.3409 7.5749 21.2957 7.5594 21.3973 7.5594C21.9672 7.5687 22.3452 7.73613 22.5822 8.63219C22.6706 8.96395 22.6932 9.36082 22.665 9.798C22.6462 10.105 22.5935 10.6134 22.5183 10.8119C22.4167 11.0847 22.3114 11.3855 22.1891 11.5963C22.0311 11.8661 21.939 12.0335 21.7942 12.2691C21.6456 12.511 21.5346 12.6691 21.3766 12.9048C21.2374 13.1125 21.0964 13.3357 20.8631 13.2613L20.9026 13.1776C20.9026 13.1776 20.9158 13.1528 20.9233 13.1435L21.292 12.759C21.5835 12.3064 21.6399 12.018 21.813 11.5374C21.9728 11.0909 22.0537 10.8677 21.9747 10.2321C21.8337 9.09728 21.1603 9.35462 20.6901 9.64917L20.0205 10.2135C19.8193 10.4553 19.6293 10.6755 19.4563 10.9514C19.2607 11.2677 19.0011 11.5498 18.9203 11.6769C18.6814 12.049 18.7754 11.9653 18.6833 12.1482C18.578 12.356 18.6174 12.1606 18.4331 12.5451C18.2921 12.8396 18.0889 13.0815 17.9422 13.407C17.7278 13.8845 17.4401 14.362 17.2727 14.7806C17.1297 15.1403 17.1034 15.1 16.9849 15.3418C16.9304 15.4534 16.9793 15.3511 16.9266 15.4813C16.8721 15.6208 16.8852 15.5867 16.825 15.717C16.5203 16.3712 16.731 15.9526 16.4639 16.3929L16.2834 16.7339C16.2514 16.8115 16.2721 16.7743 16.2476 16.8456C16.2044 16.9665 16.1893 16.9789 16.1404 17.0657C16.0163 17.2858 15.5348 18.585 15.0495 18.5168C15.0796 18.4424 15.0721 18.4424 15.1135 18.3679C15.1906 18.2315 15.1323 18.3338 15.1643 18.309C15.2357 18.2563 15.0815 18.3896 15.2 18.2935L15.4727 17.9308C15.5348 17.8036 15.5047 17.9525 15.4821 17.8563L15.452 17.7881C15.452 17.7881 15.4407 17.7726 15.4407 17.7633L15.6627 17.4378C15.815 17.2517 15.7135 17.5463 15.879 17.2827C15.9749 17.1308 16.2533 16.1882 16.2533 16.1882C16.2608 16.151 16.2627 16.0673 16.2645 16.027L16.336 16.0084L16.3417 15.9991ZM12.2264 10.5762C12.3807 10.6848 12.2603 10.4987 12.4709 10.6941C12.6816 10.8863 12.6383 10.7158 12.8377 10.8708C13.0295 11.0196 12.9449 10.8987 13.2853 11.1653L13.7593 11.5436C13.9436 11.7048 14.205 11.8568 14.2333 11.9994L13.3606 11.3793C13.2101 11.3111 13.1443 11.156 12.7455 10.9979C12.407 10.8646 11.6358 10.3437 11.1882 10.105C10.9776 9.99334 10.7556 9.88172 10.5205 9.8073C10.3212 9.74529 10.1199 9.54996 9.8848 9.46314C9.80769 9.43524 9.68168 9.48485 9.71929 9.2461L9.84531 8.85543C9.90361 8.75311 9.82274 8.85543 9.90925 8.76552C10.0898 8.97945 10.7914 9.41353 11.0923 9.63677L11.6603 10.0833C11.7186 10.1298 11.7506 10.1329 11.8126 10.1763C12.0346 10.3282 12.1324 10.3375 12.2603 10.4739C12.2753 10.5948 12.2321 10.5452 12.2245 10.57L12.2264 10.5762ZM13.3135 12.0397C13.3794 12.0676 13.3643 12.0056 13.3418 12.2939C13.1405 12.1637 13.1461 12.2443 13.1085 12.0273C13.0803 12.0366 13.0747 12.0986 12.9844 12.08L12.9242 12.0583C12.58 11.9777 12.7211 11.956 12.3731 11.9188C12.1738 11.8971 11.8954 11.8165 11.6227 11.7421C11.3029 11.6552 11.0189 11.6397 10.6842 11.6025C9.9638 11.5188 10.0766 11.3545 9.22652 11.463C9.31304 11.0909 9.18326 10.8336 9.53497 10.8398C10.1726 10.8491 10.4396 11.0971 10.9117 11.1219C11.0133 11.1281 11.5061 11.2708 11.6396 11.3762C11.6471 11.3824 11.6565 11.3886 11.6622 11.3948L11.8597 11.6676C11.8559 11.5219 11.7788 11.5126 11.7374 11.3731C11.9481 11.4134 11.8333 11.4568 12.0402 11.4785C11.9744 11.6087 11.9387 11.5312 11.9104 11.6738C11.9857 11.6366 11.9857 11.6335 12.044 11.5777C12.1023 11.5219 12.0929 11.4227 12.3825 11.6149L12.4352 11.6583C12.2885 11.7141 12.3675 11.6862 12.2434 11.6397C12.0609 11.5684 12.1587 11.4909 12.1155 11.6955C12.2565 11.8351 12.6195 11.7979 12.6346 11.801C12.6383 11.801 12.6477 11.801 12.6515 11.801C12.6553 11.801 12.6647 11.8072 12.6665 11.8072C12.6703 11.8072 12.6778 11.8165 12.6816 11.8196L12.7079 11.8537C12.849 11.9963 12.627 11.7824 12.8828 11.8661L13.3098 12.0366L13.3135 12.0397ZM20.66 12.7807C20.6619 12.6133 20.6525 12.1265 20.6374 12.0738C20.3064 12.1606 19.1742 14.3434 18.9899 14.6473L17.9855 16.5045C17.899 16.7122 17.8369 16.7991 17.7429 16.9665L17.2332 17.9153C16.7742 18.7555 16.1122 19.7539 15.5705 20.4701C15.0194 21.1987 13.8101 21.7475 13.8928 20.188C13.9041 19.9678 14.3141 18.678 14.4759 18.5199C14.4759 18.5199 14.7298 18.3989 14.7637 18.0796C14.7712 18.0021 14.7317 18.0176 14.7862 17.9277C14.8897 17.754 14.7994 17.9246 14.8577 17.8656C14.9028 17.8222 14.8558 17.9153 14.9122 17.7819L15.0307 17.5246C15.1041 17.3944 15.0853 17.413 15.1737 17.2951C15.2715 17.1618 15.7304 16.6254 15.8113 16.7029C15.7737 16.8456 15.832 16.7029 15.7661 16.7929L15.4219 17.1959C15.4219 17.1959 15.4088 17.2114 15.405 17.2145L15.3429 17.2703C15.3429 17.2703 15.3298 17.2796 15.326 17.2858C15.3223 17.2889 15.3128 17.2982 15.3091 17.3044C15.2997 17.3137 15.2621 17.3541 15.2508 17.3696L15.0364 17.7075C14.9969 17.7943 15.0251 17.8005 15.01 17.8656C14.9574 18.1013 14.6489 18.4144 14.5323 19.1338C14.4684 19.5306 14.568 19.4283 14.5323 19.8097C14.8727 19.7074 14.7919 20.4701 15.6157 19.5461L16.0388 19.0346C16.3812 18.5726 16.5279 18.3276 16.8006 17.8191L17.331 16.8549C17.457 16.5541 17.3535 16.7339 17.5247 16.5355L19.3453 13.3171C19.5974 12.9637 20.6431 11.1002 21.1622 11.4568C21.2167 11.925 20.9666 12.2412 20.8688 12.5048C20.7672 12.7776 20.8481 12.6381 20.6657 12.7869L20.66 12.7807ZM26.4078 10.8863C26.468 11.0444 26.4962 11.3359 26.5376 11.5405C26.594 11.8134 26.5771 11.9436 26.4661 12.1575C26.3175 12.4428 26.0693 12.7063 25.8755 12.911C25.7683 13.0257 25.6649 13.1559 25.5558 13.2458L23.7427 14.6194L22.9208 14.9821C22.7703 15.0472 22.6706 15.0844 22.507 15.1465L21.3051 15.5867C21.2111 15.5774 21.2393 15.5774 21.2092 15.534L21.9089 15.2612C22.2023 15.1279 21.8976 15.1806 22.4017 15.0441L22.8305 14.7806C23.0186 14.6752 22.9471 14.6535 23.0844 14.6101C23.5057 14.4767 23.0129 14.4767 23.643 14.2628C24.0004 14.1388 24.2524 13.6551 24.5213 13.5652C24.6417 13.5249 24.5063 13.683 24.6097 13.5404C24.6793 13.4474 24.6003 13.5683 24.6398 13.3915C24.8298 13.4908 24.5928 13.5187 24.7847 13.4939L24.7339 13.3264C25.1589 13.3822 24.7452 13.2954 25.0329 13.0877C25.1514 13.004 25.0216 13.1435 25.1157 13.0195C25.2342 12.8645 25.2135 12.7745 25.458 12.7373C25.4429 12.6102 25.3658 12.7001 25.4618 12.5203C25.5219 12.4087 25.5784 12.4118 25.6404 12.3498C25.7533 12.2319 25.8022 12.08 25.9432 11.9219C26.1125 11.7327 25.9226 12.0149 26.1577 11.463C26.1972 11.37 26.2272 11.2677 26.2592 11.1777C26.3232 10.9917 26.2931 10.9669 26.4059 10.8894L26.4078 10.8863ZM13.4508 12.3312C13.3436 12.2474 13.3944 12.2722 13.3681 12.2412L13.5787 12.2009C13.6747 12.235 13.6276 12.1265 13.7743 12.2691C14.0433 12.5327 13.7819 12.1544 14.1712 12.4769L14.4176 12.6505C14.1844 12.6567 13.9812 12.4862 13.7104 12.4118C13.6558 12.3963 13.6389 12.4056 13.5844 12.3932C13.5392 12.3839 13.4828 12.356 13.4527 12.3312H13.4508ZM8.90866 13.7078C8.99518 13.0722 8.95756 13.0381 9.20019 12.9544C9.48231 12.8551 11.207 12.6629 11.5249 12.8241C11.6453 12.8862 11.6434 12.8707 11.76 12.8086C11.9876 12.9017 11.7449 12.7838 11.8597 12.9048L12.1324 12.9916C11.9424 12.7807 12.0609 12.8707 12.076 12.821C12.2245 12.852 12.6101 12.8862 12.6966 13.0784C12.5142 13.2427 11.2823 13.1001 11.0961 13.097C10.5826 13.0877 9.89233 13.2272 9.40143 13.4567L8.91054 13.7047L8.90866 13.7078ZM20.0751 14.0117C20.1616 13.8876 20.3139 13.8473 20.4324 13.6954C20.5001 13.6086 20.5321 13.5776 20.5942 13.5032C20.8255 13.2241 20.7559 13.4288 20.7766 13.4474C20.7108 13.6241 20.3647 13.9465 20.2707 14.0086C20.0394 14.1636 20.0901 14.0334 20.0732 14.0086L20.0751 14.0117ZM21.8788 16.1572C21.9202 16.1262 22.4412 15.9774 22.522 15.9774C23.0186 15.9836 24.038 15.6239 24.5778 15.4813L25.2022 15.1992C25.4467 15.0813 25.5708 15.041 25.7984 14.8674C26.1313 14.6132 26.6091 13.8442 26.7633 13.7791C26.7727 14.0334 26.7652 13.9062 26.8216 14.1233C26.5489 14.886 26.1746 14.9387 25.5802 15.3201L24.6361 15.7139C23.6656 15.9681 22.9132 16.1913 21.8769 16.1572H21.8788ZM13.0088 14.0241C13.1762 14.0241 13.3399 14.0768 13.4207 14.0024C13.449 14.2318 13.417 14.0551 13.464 14.2318C13.3643 14.176 13.1932 14.2938 12.8866 14.3465L11.6058 14.6256C11.1638 14.7496 10.2779 15.1031 9.85471 15.3387C9.66099 15.4441 9.27354 15.7232 9.11743 15.9061C8.98201 16.0673 9.01587 16.1262 8.88797 16.1138C8.89361 15.1713 8.97261 15.4131 9.40708 15.0596C9.85847 14.6876 10.3343 14.638 10.7914 14.4271C10.8986 14.3775 11.1412 14.3806 11.175 14.3558C11.3255 14.2473 11.0039 14.2938 11.3612 14.269C11.4666 14.2628 11.397 14.2876 11.4929 14.2535C11.5569 14.2318 11.5324 14.2008 11.6189 14.1884C11.7487 14.1698 11.6622 14.2225 11.839 14.2566C12.0082 14.2907 11.9293 14.1357 12.0177 14.3496L12.0515 14.2721C12.1794 14.0365 12.3524 14.0954 12.5161 14.2101C12.5499 14.0923 12.5161 14.3589 12.5161 14.1605C12.5161 14.0458 12.4954 14.1574 12.518 14.0706C12.6609 14.1388 12.5405 14.1419 12.6628 14.1419H12.6722L13.0126 14.2008C13.0596 14.114 13.0164 14.2008 13.0126 14.1171L13.007 14.0241H13.0088ZM13.6728 14.1233C13.716 13.9682 13.6577 13.9589 13.8477 13.9869L13.9718 14.0954C13.9286 14.1915 13.9568 14.2008 13.7424 14.1915C13.6258 14.1884 13.6201 14.2101 13.5392 14.1295C13.5599 13.931 13.4508 14.0024 13.5938 13.9993L13.6728 14.1202V14.1233ZM9.0911 18.7989L9.05348 18.4951C9.04596 18.3896 9.03467 18.216 9.04032 18.1478C9.07041 17.8098 9.32996 17.4905 9.46162 17.2858C9.55002 17.1463 9.64218 17.013 9.73434 16.9293C9.80957 16.8611 9.79076 16.9014 9.87352 16.8115C10.0955 16.5727 9.89985 16.7246 10.1556 16.5634C10.276 16.4859 10.2102 16.427 10.4396 16.3402C10.6484 16.2627 10.765 16.151 10.8892 16.0828C11.0265 16.0053 11.145 16.0053 11.2672 15.9495L12.0214 15.6425C12.1136 15.5867 12.0383 15.6301 12.0872 15.5867L13.1311 15.2488C13.2947 15.2085 13.8195 14.917 13.9587 15.1248C13.6653 15.2426 13.827 15.1155 13.2214 15.4038C12.9938 15.5123 12.7719 15.6053 12.5236 15.7449L11.5117 16.303C11.4459 16.3402 11.4214 16.3433 11.3556 16.3774L11.1073 16.5479C10.7782 16.7494 10.9475 16.7153 10.7707 16.8022L10.6559 16.8673C10.6559 16.8673 10.6409 16.8766 10.6371 16.8797C10.4302 17.0347 9.61961 17.8005 9.50676 17.9897L9.09486 18.7927L9.0911 18.7989ZM13.5223 25.2016C13.3982 25.1675 13.3342 25.3814 12.9919 24.8605C12.8584 24.659 12.7117 24.4295 12.5819 24.2125C12.2076 23.5924 12.1926 22.7211 12.1982 21.822C12.2001 21.3941 12.7173 19.9926 12.7944 19.8655L13.4245 18.7214C13.5336 18.5137 13.6239 18.3927 13.7631 18.3276C13.9417 18.2439 13.6991 18.061 13.9549 18.2098L13.9041 18.0362C14.1148 17.9091 14.1091 17.7633 14.3367 17.4657C14.427 17.3479 14.5154 17.3199 14.5699 17.2052C14.6113 17.1184 14.553 17.0998 14.6207 17.1401C14.7486 17.2176 14.5944 17.0688 14.6771 17.2052C14.5379 17.6362 14.4383 17.4037 14.2897 17.7385L14.0922 18.1013C13.9775 18.2811 13.9436 18.4361 13.8402 18.6098C13.733 18.7896 13.6671 18.8485 13.5599 19.0687L13.1273 20.2035C12.9788 20.6996 12.8603 21.3352 12.8565 21.8933C12.8527 22.4235 13.2289 23.3939 13.4189 23.6544C13.7687 24.135 14.4477 24.1257 14.9988 23.7009L15.1417 23.5893C15.215 23.5366 15.2263 23.5366 15.2865 23.487C15.8677 22.9847 16.6746 21.9305 17.1655 21.1801L17.3761 20.8391C17.5604 20.5445 18.1096 19.2547 18.2582 18.8981L18.3353 18.7307C18.3823 18.6222 18.3805 18.6253 18.4256 18.5323L19.0726 16.8363C19.1384 16.5696 19.1215 16.5944 19.2155 16.3681C19.3303 16.089 19.4168 15.6984 19.5221 15.4968L19.2814 17.7106L18.2394 21.1863C18.1209 21.4561 18.0231 21.6886 17.9046 21.9615L17.6169 22.5785C17.6169 22.5785 17.6056 22.6002 17.5999 22.6095C17.5604 22.687 17.5886 22.6281 17.5529 22.7056L17.1937 23.3815C17.126 23.4932 17.0526 23.5676 16.9924 23.6854L16.3774 24.6218C16.0708 25.0031 15.4445 25.5705 15.0627 25.6728C14.7072 25.769 14.4345 25.8403 14.0471 25.6697C13.9455 25.6263 13.8439 25.5705 13.748 25.5147C13.5524 25.4 13.6145 25.493 13.5185 25.2078L13.5223 25.2016ZM9.74562 22.1134C9.64594 21.9398 9.70613 21.8654 9.58951 21.4747C9.38639 20.8019 9.44845 20.2655 9.66663 19.6702L9.73246 19.4779C9.81521 19.2485 9.7776 19.2268 9.89609 19.3694C9.9243 18.9539 9.91866 19.016 10.1199 19.0315C10.1143 19.0191 10.1067 18.988 10.1049 18.9973C10.1049 19.0067 10.0936 18.9694 10.0936 18.9663C10.0936 18.9632 10.0861 18.9415 10.0861 18.9384C10.0748 18.7741 10.1161 18.9043 10.1594 18.8423C10.244 18.7214 10.0616 18.926 10.1857 18.7896C10.2628 18.7059 10.3287 18.8206 10.402 18.5385C10.4923 18.1943 11.034 17.5866 11.2804 17.5866C11.3876 17.5866 11.3161 17.6114 11.4158 17.5618L11.412 17.3696C11.555 17.2982 11.5362 17.661 11.6208 17.3261L11.4797 17.2486L11.8427 17.0626C11.933 17.0192 11.8841 17.0626 11.9782 16.9882C12.0101 17.1215 11.9274 17.1184 12.0477 17.1556C12.0684 17.0533 12.0534 17.0316 12.0872 16.8735C12.2716 16.8363 12.2377 16.7215 12.3637 16.8766C12.3901 16.8115 12.4277 16.9572 12.3412 16.7339C12.3374 16.7246 12.3261 16.706 12.3205 16.6905C12.5593 16.7153 12.3318 16.6781 12.5405 16.6037C12.5574 16.6905 12.5443 16.6719 12.5913 16.7929L12.7455 16.6347C12.9035 16.4084 12.8772 16.2193 13.086 16.4518C13.1612 16.1355 13.0201 16.3278 13.1461 16.2255C13.1932 16.1882 13.2251 16.182 13.2759 16.1417C13.2797 16.151 13.2797 16.1572 13.2797 16.1727C13.2891 16.3309 13.3211 16.2968 13.3455 16.3092C13.4019 16.1231 13.3399 16.0518 13.4885 16.0363C13.7348 16.0115 13.3831 16.1789 13.7499 16.1169C13.7217 16.0115 13.7856 16.1417 13.7104 16.0611L13.6145 15.9681C13.7706 15.9712 13.7781 15.9526 13.874 15.8317L14.0057 15.9836C14.0489 15.8069 13.9455 16.0735 14.0245 15.8255C14.1825 15.7852 14.1844 15.7387 14.2784 15.686C14.2916 15.6798 14.3724 15.655 14.3875 15.6581L14.5285 15.7356L13.748 16.2348C13.6352 16.3061 13.4809 16.3867 13.3662 16.4549C13.054 16.6409 12.3863 17.2021 12.0891 17.4564C11.4891 17.9711 10.8346 18.7803 10.402 19.6237C10.3494 19.726 10.3268 19.7663 10.2911 19.8407C9.84342 20.7926 9.91678 21.1677 9.74562 22.1103V22.1134ZM14.7373 17.2238C14.7373 17.2238 14.7336 17.1835 14.7336 17.1928L14.7373 17.0099C14.7373 17.0099 14.7354 16.9882 14.7336 16.9882L14.7505 16.9386C14.7505 16.9386 14.7655 16.9169 14.7693 16.9138L14.9179 16.7618C15.2132 16.52 15.4201 16.0952 15.5348 16.2472C15.452 16.3681 15.4219 16.334 15.326 16.4611C15.1699 16.6688 14.9687 16.858 14.837 17.0905C14.7862 17.1804 14.7956 17.1618 14.7354 17.23L14.7373 17.2238ZM13.9869 17.0285C13.8646 16.9758 13.9022 17.0068 13.8289 16.9107C13.733 17.075 13.7649 16.9913 13.6107 17.0688C13.6577 16.9107 13.5825 17.0626 13.6634 16.9665L13.8364 16.8053C13.9831 16.7743 13.9041 16.8239 13.9286 16.8456L14.1467 16.5231C14.2333 16.6099 14.1787 16.6037 14.2822 16.6564C14.2483 16.5572 14.2558 16.6006 14.2652 16.4673C14.395 16.3619 14.3875 16.3371 14.5549 16.303C14.5003 16.5076 14.5906 16.3836 14.4684 16.4828L13.9888 17.0285H13.9869ZM24.7264 17.3975C24.3351 17.3913 22.8587 17.3293 22.5145 17.1835C22.3546 17.1153 22.0725 17.0781 21.9446 17.0006C22.2437 17.0068 22.3358 17.0688 22.5258 17.0285L22.6669 17.0192C22.9095 17.0285 23.7822 17.0812 24.0568 16.9851C24.3088 16.8952 24.764 16.9324 25.0442 16.8611L25.774 16.6657C26.0993 16.5758 26.1257 16.3681 26.2479 16.5696C26.2987 16.3991 26.2348 16.489 26.3288 16.4053C26.3721 16.3681 26.357 16.3898 26.4078 16.3619L26.6636 16.151C26.7388 16.0828 26.7501 16.0642 26.8385 16.0115C26.8442 16.4053 26.8705 16.5541 26.7275 16.7774C26.6354 16.9231 26.3683 17.0254 26.2329 17.0688C26.1294 17.1029 26.0279 17.1277 25.947 17.1587C25.6423 17.2734 25.0216 17.4037 24.7264 17.3975ZM11.2522 25.6759C11.2522 25.6759 11.2051 25.5364 11.1713 25.4682C10.9625 25.0372 10.8798 25.0372 10.6428 24.383C10.6146 24.3024 10.6221 24.3334 10.5976 24.228C10.4697 23.6606 10.4679 22.9971 10.4998 22.4142C10.5506 21.5057 11.1788 20.1322 11.5456 19.5151C11.6058 19.4159 11.7543 19.1586 11.8333 19.1183C11.8992 19.0811 11.9988 18.8392 12.044 18.7245L12.0553 18.9167L12.2396 18.6191C12.2396 18.6191 12.1474 18.6718 12.2847 18.4392L12.4728 18.2439C12.4107 18.4672 12.4258 18.3431 12.3524 18.5292C12.4954 18.433 12.422 18.3803 12.5951 18.309C12.58 18.1385 12.5857 18.2656 12.5349 18.1509C12.5349 18.1509 12.5292 18.1416 12.5292 18.1354C12.6647 18.0238 12.5499 18.0207 12.7098 17.9897C12.7192 17.9897 12.7436 17.9897 12.7512 17.9897C12.7813 17.9897 12.8283 18.0486 12.9129 17.9184C12.881 17.7509 12.9204 17.8998 12.8809 17.8594L12.8038 17.8005C13.0728 17.6424 12.8847 17.6114 13.2477 17.3851C13.1612 17.7509 13.1217 17.5091 13.0352 17.7788C13.1668 17.6889 13.3154 17.5277 13.4358 17.4006C13.6427 17.1804 13.6389 17.1339 13.8834 17.0161C13.7875 17.2517 12.7587 18.1881 12.3393 18.8733C12.296 18.9446 12.2603 19.0129 12.217 19.0718C12.0214 19.3353 12.1681 19.047 11.7826 19.6733C11.6641 19.8655 11.4083 20.4856 11.35 20.7523C11.3067 20.9538 11.254 21.177 11.207 21.391C11.0998 21.8778 10.9907 22.163 10.987 22.8389C10.9832 23.8156 10.9625 24.2745 11.192 25.0961C11.365 25.7194 11.3819 25.5891 11.2503 25.6759H11.2522ZM22.1572 18.0734L24.5101 18.6315L25.6291 18.6594C25.836 18.6315 26.0373 18.616 26.2291 18.5633C26.3213 18.5385 26.4492 18.5354 26.5075 18.5106C26.5169 18.5075 26.5376 18.492 26.5451 18.4858C26.6316 18.4268 26.5244 18.492 26.594 18.4454C26.6843 18.3803 26.5884 18.4237 26.7031 18.3865C26.6993 18.9973 26.6617 19.1338 26.4962 19.1741C25.7232 19.357 24.0963 18.7338 23.3684 18.5447C23.1559 18.4889 22.9283 18.4672 22.7139 18.3834C22.6349 18.3524 22.5202 18.2904 22.4449 18.2594C22.1271 18.123 22.2888 18.2501 22.1553 18.0765L22.1572 18.0734ZM22.1026 18.8919C22.1929 18.9446 22.2418 18.9632 22.334 19.0222L22.8437 19.2764C22.9621 19.3384 23.0167 19.3291 23.1333 19.3756C23.6449 19.5834 24.1188 19.9647 24.7132 20.0732C24.9351 20.1136 25.0348 20.2314 25.2379 20.3089C25.3226 20.343 25.4223 20.3864 25.49 20.4112C25.6103 20.4577 25.6799 20.4267 25.8003 20.4794C26.0298 20.5817 26.1257 20.681 26.3834 20.5662C26.3551 20.7957 26.3062 20.9476 26.2667 21.1801C25.9357 21.2173 24.9332 20.6841 24.5759 20.4608L23.0562 19.5555C22.8737 19.4345 22.7496 19.3601 22.5822 19.2454L22.3189 19.0873C22.2305 19.0439 22.1496 19.0035 22.1045 18.895L22.1026 18.8919ZM22.2136 19.6888C22.3659 19.7198 22.2662 19.7074 22.334 19.7508L23.312 20.5042C23.3928 20.5569 23.4624 20.622 23.5527 20.6965C23.628 20.7585 23.6731 20.7988 23.7577 20.867C23.7953 20.898 23.8217 20.9166 23.8725 20.9662L24.0135 21.1119C24.2449 21.2111 23.9684 20.9786 24.4217 21.3786L24.4574 21.4034C24.4574 21.4034 24.4724 21.4096 24.4762 21.4127C24.7264 21.5584 24.559 21.5212 24.7809 21.6731L25.3545 22.0576C25.6461 22.377 25.5351 22.3987 25.5915 22.1847C25.6273 22.5258 25.5821 22.2839 25.7269 22.4111C25.7345 22.4173 25.7439 22.4235 25.7514 22.4328L25.8586 22.5537C25.8586 22.5537 25.8737 22.5723 25.8793 22.5785C25.8849 22.5847 25.8962 22.5971 25.9019 22.6033C25.9075 22.6095 25.9169 22.6188 25.9244 22.6281C25.8699 22.7862 25.8229 22.9227 25.7683 23.0746C25.6009 23.5459 25.7382 23.3815 25.5991 23.4683C25.552 23.3474 25.5784 23.4063 25.6047 23.1769L25.4994 23.3567C25.4806 23.2916 25.4505 23.1862 25.426 23.1304L25.2342 22.873C25.1232 22.8017 25.1721 22.8358 25.0837 22.8854C24.9897 22.5258 25.2135 22.8575 24.8561 22.5041L24.559 22.1599C24.559 22.1599 24.5439 22.1506 24.5383 22.1475C24.5326 22.1444 24.5232 22.1382 24.5176 22.132C24.3107 21.9832 24.0248 21.5708 23.8461 21.4127L22.6029 20.1104C22.5239 20.0329 22.4863 19.9988 22.4073 19.9151C22.3565 19.8624 22.2644 19.7322 22.2155 19.6826L22.2136 19.6888ZM20.5679 19.8097L20.9008 21.0995C21.2807 22.8079 21.4406 23.5273 21.5177 25.6449C21.5553 26.6712 21.4218 27.6293 21.0757 28.4975C20.9515 28.8075 20.882 29.2416 20.5754 29.5144C20.3271 29.7377 19.9923 29.9485 19.7384 30.0694C19.808 29.7656 20.0394 29.4121 20.1654 29.1145C20.2481 28.9191 20.265 28.823 20.3572 28.6246C20.4795 28.3641 20.7089 27.2107 20.771 26.8852C21.0023 25.6759 21.0136 23.7474 20.8387 22.501C20.8086 22.2808 20.7973 22.0359 20.786 21.7909C20.7672 21.4375 20.7277 21.422 20.6958 21.1553C20.6469 20.7585 20.6845 20.5414 20.5716 20.1446C20.5077 19.9151 20.5077 19.9306 20.5697 19.8128L20.5679 19.8097ZM21.3127 20.0546C21.45 20.1166 21.9747 20.9569 22.0819 21.1863C22.3434 21.7444 22.6932 22.2157 22.9565 22.7924L23.1954 23.3164C23.6298 24.2001 24.638 25.679 23.9815 26.7518L23.7333 27.1456L23.7408 26.8076C23.8104 26.848 23.7841 26.8666 23.8198 26.8387L23.8969 26.6774C23.9646 26.5441 23.9985 26.5472 24.038 26.3798C23.974 26.4263 24.0135 26.4046 23.9571 26.4728L23.7051 26.727C23.7088 26.2464 23.6693 25.9302 23.5979 25.5674C23.5339 25.2419 23.3139 24.6435 23.201 24.2714L22.4769 22.4824C22.4769 22.4824 22.4336 22.3863 22.4318 22.3832C22.428 22.3739 22.4205 22.3615 22.4148 22.3521C22.4092 22.3397 22.3885 22.3025 22.381 22.2901L22.0443 21.5212C21.9785 21.4003 21.9333 21.3445 21.8581 21.1925L21.4932 20.4701C21.4142 20.312 21.3578 20.219 21.3108 20.0515L21.3127 20.0546ZM22.1252 20.4918L22.9979 21.4747C23.1389 21.6328 23.2819 21.7972 23.4323 21.9646C23.6054 22.1568 23.7314 22.2932 23.8913 22.4762L24.1659 22.8327C24.2637 22.9754 24.1113 22.8482 24.2656 22.963C24.2994 22.9878 24.3408 22.9971 24.3822 23.0436C24.4969 23.1769 24.3596 23.0405 24.4649 23.2172L24.6455 23.4218C24.7903 23.5521 25.142 24.0513 25.0988 24.383C25.0593 24.6745 25.1176 24.3706 25.0292 24.5597C24.9878 24.6497 24.9746 24.6404 24.9652 24.7737C25.0724 24.6156 24.9953 24.6187 25.1326 24.5628C25.1213 24.8357 24.9295 25.1737 24.7959 25.2977L24.6981 24.8822C24.6775 24.7892 24.6775 24.7551 24.6549 24.6652C24.6022 24.4698 24.6605 24.6373 24.5834 24.4915C24.542 24.414 24.5251 24.3954 24.5007 24.3458L24.2938 23.9396C24.2938 23.9396 24.2806 23.921 24.275 23.9117L24.1188 23.6544C23.9326 23.273 24.0079 23.4901 23.9026 23.3102L23.6505 22.873C23.6505 22.873 23.6374 22.8544 23.6317 22.8451C23.6261 22.8358 23.6185 22.8234 23.6129 22.8172L22.8455 21.6049C22.6575 21.2856 22.2493 20.805 22.1252 20.4949V20.4918ZM16.6501 29.8214C15.5047 29.8028 15.2884 29.6261 14.2953 29.0742C14.2276 29.0369 13.3737 28.4354 13.2816 28.2928L14.0207 28.6649C14.822 29.0835 15.0345 28.8881 15.185 28.9129C15.3429 28.9408 15.3072 29.1393 15.9091 28.7641L16.0163 28.7083C16.2476 28.5905 16.3699 28.4168 16.526 28.3672C16.5937 28.3455 16.5542 28.3858 16.588 28.3455L16.6012 28.3114C16.6915 28.1161 16.8401 28.0231 16.8909 27.9766L17.4796 27.22C17.9422 26.5596 18.4369 25.493 18.6626 24.5597C18.7209 24.3148 18.8093 24.1102 18.8751 23.8745L19.2174 22.4111C19.2438 22.2653 19.2456 22.1506 19.2739 21.9801L19.2889 21.8995C19.2889 21.8995 19.2927 21.8747 19.2945 21.8623L19.3171 21.6328C19.3547 21.3042 19.492 21.0933 19.4939 20.9073C19.4977 20.2066 19.509 20.681 19.5522 20.2593C19.6162 19.6423 19.6651 19.4686 19.7253 18.7338C19.7535 18.3896 19.7271 18.154 19.8419 17.9587C19.8513 18.2811 19.887 18.6501 19.9359 18.9446C19.9792 19.202 20.0168 19.6299 20.0469 19.9151L20.0356 22.78L19.8945 24.2466C19.8588 24.4016 19.8193 24.4884 19.7911 24.6435C19.5428 26.0046 19.1535 27.4154 18.5554 28.3889C18.3541 28.7176 18.04 29.1982 17.7598 29.378C17.4852 29.5547 16.9586 29.8276 16.6482 29.8214H16.6501ZM21.4594 21.2297C21.6004 21.3383 21.7885 21.9429 21.86 22.1134C21.9935 22.4297 22.0631 22.5072 22.2211 23.0064C22.2249 23.0188 22.2286 23.0343 22.2324 23.0436L22.3245 23.3536C22.3245 23.3536 22.3302 23.3815 22.3321 23.3908C22.4355 23.8652 22.3603 23.3257 22.5371 23.9861C22.5954 24.2094 22.6518 24.2528 22.7496 24.6652C22.9302 25.4124 23.1634 26.7983 22.9941 27.5487C22.8587 28.1502 23.075 27.7037 22.823 28.1285C22.7026 28.33 22.5691 28.5967 22.3471 28.637C22.4412 28.1905 22.5973 28.4602 22.6857 28.1378C22.7101 28.0479 22.6988 28.0944 22.7045 27.9983C22.6292 28.113 22.5427 28.2277 22.4261 28.2742C22.4261 28.1533 22.522 27.4836 22.5277 26.4294C22.5277 26.293 22.4919 26.262 22.4788 26.1286C22.4129 25.462 22.4393 25.1985 22.2474 24.3365L21.971 23.0188C21.9202 22.8296 21.8431 22.6188 21.7979 22.4452L21.4575 21.236L21.4594 21.2297Z" fill="white"/>
<path fill-rule="evenodd" clip-rule="evenodd" d="M36.6827 10.9393C36.7683 11.323 36.3897 12.6233 36.3422 13.0892C36.327 13.2262 36.3365 13.3145 36.3174 13.4485C36.2775 13.7438 36.2337 13.6464 36.1957 14.0331C36.1709 14.2859 36.1709 14.4868 36.1709 14.7761C36.1709 15.1537 36.1291 15.2481 36.1082 15.513C36.0397 16.3931 36.1234 16.3778 36.0967 17.0873C36.0834 17.4284 36.1139 17.6446 36.1139 17.943L36.2604 19.5325C36.3174 19.7822 36.2965 19.5325 36.327 19.9131L36.521 21.0185C36.6066 21.3778 36.6275 21.7798 36.7132 22.1239C36.8387 22.6324 37.1736 23.6007 37.2991 24.0605C37.3144 24.1184 37.3163 24.1397 37.3391 24.2219L37.8794 25.6714C37.9993 26.0124 38.1743 26.2987 38.3189 26.5971C38.4178 26.8011 38.4825 26.9046 38.5757 27.0934C38.6081 27.1574 38.6214 27.1969 38.6499 27.2578L38.7165 27.3766C38.7736 27.4619 38.8059 27.4954 38.8649 27.5928L39.7743 28.9661C40.1396 29.5538 40.7503 30.0837 41.2031 30.4704C41.4675 30.6957 41.7263 30.982 41.9907 31.1403L42.4606 31.3626C42.6167 31.4326 42.7403 31.4874 42.8944 31.5727C43.2197 31.7493 44.0112 32.0021 44.3822 32.0112C44.5705 32.0142 44.7627 31.999 44.9491 32.0356C45.3677 32.1147 45.7158 32.0569 46.1154 32.0356C46.2676 32.0295 46.5282 31.9777 46.6709 31.9351L47.1161 31.8285C47.2835 31.798 47.9018 31.5758 48.0654 31.4783C48.9387 30.9606 48.7713 31.189 49.7777 30.446L50.5178 29.77C50.6795 29.6208 50.7309 29.5264 50.8621 29.362C50.982 29.2128 51.0961 29.1367 51.2008 29.0027C51.5432 28.5611 51.7982 28.0587 52.1064 27.6233C52.2262 27.4558 52.2795 27.334 52.407 27.1421C52.6181 26.8254 52.8712 26.1769 53.0557 25.8054L53.3944 24.9862C53.6189 24.4138 53.851 23.7987 54.0336 23.1744C54.0964 22.9582 54.1554 22.7512 54.222 22.5167C54.3475 22.0812 54.4674 21.6458 54.5644 21.186L54.9373 18.482C55.0267 17.675 54.9468 17.5959 54.9506 17.1695L54.9411 15.3121C54.9354 15.1659 54.9183 15.1263 54.9031 14.9132C54.7566 12.9521 54.6006 12.6933 54.1972 10.8845C54.163 10.7292 54.0907 10.4643 54.0431 10.2847C53.8681 9.62083 53.7482 9.34373 53.6055 8.84434C53.5199 8.54592 53.3963 8.36322 53.284 8.0648C53.0805 7.52582 52.8103 7.08733 52.582 6.59099C52.3175 6.01852 52.0721 5.43082 51.6859 5.02887C51.6079 4.94665 51.6022 4.93447 51.5242 4.83703C51.3872 4.66042 51.353 4.58429 51.2521 4.42595C51.0942 4.18234 50.8317 3.92351 50.649 3.70122C50.5463 3.57637 50.4169 3.4698 50.3028 3.33886C50.2191 3.24142 50.0688 3.12266 49.9679 3.02522C49.2792 2.35226 47.879 1.70366 47.0895 1.53009C46.2542 1.34434 45.5541 1.38393 44.7189 1.44787C44.0112 1.50268 43.3301 1.71584 42.6623 2.05079C42.6071 2.0782 42.5234 2.1117 42.4721 2.13606C42.3731 2.18173 42.3294 2.21827 42.2571 2.25177C41.3496 2.68417 41.7757 2.36444 40.9025 3.06176C40.6495 3.26273 40.1548 3.87479 39.9703 4.16712C39.6278 4.70914 39.0894 5.2542 38.5871 6.24994L38.355 6.73106C38.2009 7.02339 38.0069 7.34921 37.8699 7.70853L37.2668 9.35286C37.2059 9.53252 37.1564 9.72436 37.0899 9.91924C36.9034 10.4521 36.9852 10.5831 36.6808 10.9454M45.166 2.14824C45.2573 2.20305 45.2687 2.17564 45.322 2.16042C45.3334 2.05384 45.2935 1.96858 45.322 1.91377C45.4723 1.88027 45.7101 1.91377 45.849 1.93508C45.8167 2.08429 45.8053 2.04166 45.811 2.08125C45.8414 2.0782 45.9118 2.11474 45.9651 1.89854L45.9936 2.15737C45.8186 2.36139 46.0012 2.06602 45.6683 2.43447C45.5712 2.54105 45.4628 2.61413 45.3544 2.72375C44.7418 3.33886 45.0328 3.17747 44.8026 3.47589C44.5934 3.7469 44.5154 3.79562 44.3689 4.31937C44.2699 4.66955 44.3004 4.3955 44.1653 4.78222L43.703 6.3687C43.4728 7.45883 43.3662 8.52765 43.2977 9.68478C43.2407 10.6805 43.1931 10.577 43.2635 11.8194C43.2749 12.0264 43.2749 12.468 43.3016 12.6994C43.3187 12.8456 43.3415 12.946 43.3567 13.1074C43.3719 13.2749 43.3624 13.4119 43.3758 13.5825C43.3948 13.8169 43.4576 14.0727 43.4861 14.4138C43.313 14.2219 43.117 13.0618 43.0542 12.7024C42.9382 12.0325 42.8621 11.4996 42.765 10.7901L42.5881 8.71644C42.5805 8.57028 42.6014 8.26577 42.5976 8.16224C42.5501 7.24263 42.5957 6.58794 42.7746 5.71096C42.9648 4.78526 43.1684 4.08185 43.5146 3.31754C43.7087 2.88819 43.8894 2.62022 44.1634 2.37662C44.3365 2.22132 44.3327 2.35835 44.5154 2.25481C44.639 2.18478 44.7113 2.01121 44.9662 1.97162C45.263 1.92595 45.2307 1.97162 45.2649 2.09038L45.1888 2.0782C45.1888 2.0782 45.1717 2.0782 45.1679 2.0782L45.1717 2.15128L45.166 2.14824ZM42.3674 11.7097C42.3065 11.6275 42.3503 11.7097 42.297 11.5788L41.9013 10.4125C41.6768 9.83703 41.6292 9.43812 41.5056 9.02095C41.3191 8.38758 41.0052 6.60012 41.0071 5.92716C41.0071 5.27552 41.1118 4.41377 41.2487 3.91133C41.3153 3.67077 41.6445 3.44848 41.8024 3.35408C41.9241 3.281 41.9546 3.20183 42.0916 3.10743C42.0801 3.45762 42.0554 3.281 41.9527 3.57637C41.7434 4.1793 41.6216 5.73228 41.6216 6.44178C41.6216 7.25786 41.5798 6.76151 41.6616 7.53191L41.9622 9.70609C42.0573 10.2055 42.3427 11.4357 42.3655 11.7097H42.3674ZM44.9853 7.43143C44.8426 7.25786 45.0766 7.07515 45.1089 6.93813C45.1089 6.93508 45.0557 6.96858 45.1318 6.80719C45.2611 6.53009 45.1888 6.87722 45.2935 6.55749C45.3487 6.38697 45.3867 6.33216 45.4609 6.20426C45.9384 5.39123 46.1953 5.00755 46.7698 4.45944C47.5004 3.76212 48.3223 3.57028 49.1746 3.8687L49.5817 4.04227C50.0383 4.26151 49.7967 4.10012 50.2438 4.48989C50.4949 4.70914 50.5672 4.91011 50.7309 4.81267L50.7118 5.04409C50.7917 4.99537 50.8336 4.98015 50.9078 5.0715L51.0067 5.1933C51.1323 5.32729 51.1989 5.42168 51.2731 5.61048C51.3378 5.77491 51.2598 5.64093 51.3872 5.76578L52.0284 7.06602C52.0931 7.23959 52.0189 7.05993 52.0931 7.19696C52.2129 7.4162 52.2434 7.75116 52.2757 8.01303C52.3423 8.54896 52.3879 8.19269 52.3822 9.09708C52.3784 9.64823 52.2966 9.75481 52.2643 10.0471C52.1844 10.7932 51.9123 11.1068 51.7373 11.6549L51.1304 12.7816L50.2838 13.7956C49.9432 14.1854 49.5266 14.3742 49.186 14.7426C49.1803 14.7487 49.1708 14.7579 49.1651 14.767C49.0547 14.8827 48.9406 14.9954 48.7732 15.0258C49.07 14.6208 49.4562 14.292 49.7739 13.9326L50.63 12.7633C51.2636 11.6915 51.6212 10.5343 51.4881 8.98136L51.3663 8.08916C51.3511 8.01912 51.2731 7.87905 51.2312 7.74811C50.7366 6.21949 49.7225 5.5039 48.6914 5.89367C48.4041 6.00025 48.1377 6.0581 47.86 6.24385C47.5156 6.47528 47.234 6.72193 46.9468 7.09342C46.5187 7.64763 46.1858 8.17442 45.8167 8.78648C45.3087 9.62692 45.263 10.0441 44.9624 10.8815L44.1615 13.6738C44.1253 13.8291 44.0911 13.957 44.0607 14.091C43.9826 14.4199 43.9807 14.5873 43.9237 14.9345L43.781 15.848C43.6897 15.7932 43.7144 15.8023 43.644 15.7262C43.7867 15.5861 43.7087 15.3029 43.7068 15.0197C43.703 14.6086 43.8305 12.4619 43.897 12.1026L43.9275 11.9138C43.9332 11.7798 43.8837 11.9138 43.9503 11.6153C44.0511 11.1616 43.9332 11.4083 43.9636 11.0764C43.9884 10.8175 44.053 10.7292 44.0645 10.443L44.1577 10.6866L44.211 9.80962C44.2718 9.71218 44.211 9.78222 44.2909 9.75177C44.2966 9.75177 44.3232 9.7609 44.3346 9.75481C44.3023 9.59951 44.2794 9.7 44.2452 9.52643C44.2756 9.44726 44.2947 9.36809 44.3346 9.27369C44.4488 8.98745 44.5135 8.4637 44.6162 8.13484C44.6752 7.94909 44.7018 7.96127 44.8179 7.89732C44.8102 7.89123 44.7988 7.88514 44.7969 7.87905C44.7151 7.7877 44.7475 7.74507 44.8026 7.58672C44.8844 7.35834 44.8293 7.4162 44.9834 7.42229L44.9853 7.43143ZM41.614 10.8937C41.4542 10.7871 41.3496 10.4278 41.2202 10.1872C41.1042 9.97101 40.9158 9.68173 40.8245 9.46248C40.756 9.29805 40.7522 9.20974 40.6685 9.03922L40.2956 8.281C40.0692 7.7542 39.6449 6.67016 39.6373 6.07028C39.6373 5.94543 39.6468 5.51608 39.6563 5.47954C39.7001 5.30597 40.0216 5.00755 40.1339 4.82485C40.1776 4.75177 40.1434 4.80658 40.1833 4.73045L40.2214 4.66042C40.2347 5.09586 40.1738 5.26943 40.2195 5.73228C40.3203 6.75542 40.5391 7.95213 40.8492 8.86565L41.3667 10.2999C41.4428 10.5526 41.5874 10.7262 41.6178 10.8937H41.614ZM41.5436 11.6854C41.3515 11.6123 40.8606 10.7292 40.6342 10.4917C40.2309 10.0654 40.0825 9.71827 39.7496 9.24933L38.922 7.91559C38.8307 7.75116 38.6214 7.38575 38.6613 7.10256C38.7127 6.7402 38.8611 6.91681 38.9524 6.44787L38.96 6.40219C39.116 6.69452 39.156 7.67503 40.1282 9.2676C40.4801 9.84312 40.9634 10.9667 41.3781 11.3961C41.5037 11.527 41.5246 11.4996 41.5398 11.6884L41.5436 11.6854ZM52.4583 12.0934C52.8369 11.2195 52.6124 11.4814 52.856 11.3778C52.7856 11.0764 52.7608 11.5423 52.8293 11.0398C52.875 11.1495 52.8807 11.2073 52.9035 11.0581L52.9872 10.5496C52.991 10.5252 53.0158 10.4125 53.0234 10.3821C53.0633 10.2177 53.0557 10.3029 53.0881 10.0502C53.1223 9.78222 53.0443 8.63118 53.0881 8.50329C53.187 8.70122 53.5047 9.5782 53.4971 9.83703C53.4914 10.0015 53.4457 10.0563 53.4533 10.2359C53.4667 10.5526 53.5599 10.5526 53.3202 11.3169C53.2517 11.5362 53.1566 11.7432 53.0747 11.9473C52.9416 12.2822 52.2833 13.278 52.1292 13.4302C51.9884 13.5703 51.8838 13.6951 51.7544 13.8443C51.3187 14.3376 50.8012 14.7304 50.3523 15.0989L49.6978 15.5161C49.3154 15.717 48.9634 16.0855 48.815 15.9363L49.9603 15.0898C50.1715 14.9162 50.3332 14.7213 50.5121 14.5599C50.6072 14.4747 50.6947 14.4259 50.7917 14.3346C51.5166 13.6495 51.5489 13.4515 51.8305 13.1683C51.9123 13.0861 51.8705 13.1683 51.9523 13.0313L52.1977 12.6263C52.1977 12.6263 52.211 12.608 52.2167 12.5989C52.2224 12.5898 52.2281 12.5776 52.2338 12.5715L52.4621 12.0904L52.4583 12.0934ZM37.9213 8.75603C37.9403 8.54896 38.0582 8.26273 38.14 8.09221C38.2865 8.20792 38.3855 8.4363 38.4806 8.60987C38.6005 8.82911 38.6537 8.92046 38.7964 9.12144L40.9748 11.7767C40.9748 11.7767 40.9881 11.8041 40.9919 11.8194L38.2618 9.18234C38.1153 9.03313 38.0145 8.94787 37.9232 8.75603H37.9213ZM49.0186 8.82302C49.304 8.82911 49.9261 8.84738 50.1316 9.20061C50.4911 9.81876 50.5197 10.9667 50.2571 11.7006C49.8196 12.9278 49.7796 12.7572 49.2773 13.6403C49.2088 13.7591 49.1004 13.9052 49.0186 13.9814C49.0909 13.7773 49.7168 12.8456 49.791 12.3127C49.987 10.9119 49.245 9.89793 47.9494 11.189C47.7801 11.3596 47.6697 11.4996 47.508 11.6702C46.435 12.8029 45.7387 14.3194 44.9149 15.8297C44.8083 16.0246 44.6714 16.2682 44.58 16.4844C44.3004 17.1361 43.9161 17.7786 43.7734 18.1318C43.6288 18.4942 43.0961 19.4351 42.8107 19.5751C42.8354 19.3985 43.2121 18.7652 43.3624 18.485L43.4728 18.3236C43.4728 18.3236 43.4842 18.3054 43.4861 18.2962C43.4918 18.284 43.5089 18.2445 43.5127 18.2292L43.566 18.0831C43.7734 17.5502 44.1843 16.5605 44.2452 16.0276C44.268 15.8358 44.6961 14.8188 44.8255 14.4808L45.0804 13.89C45.1318 13.7834 45.0975 13.7926 45.1603 13.6068C45.2421 13.3571 45.284 13.3967 45.3011 13.3632C45.4 13.1561 45.2573 13.5672 45.3106 13.284C45.3315 13.1683 45.7082 12.5745 45.7862 12.401L46.0697 11.8285C46.3303 11.3717 46.0469 11.6428 46.4388 11.1708L46.4978 11.0946C46.6252 10.9393 46.5682 11.0246 46.6595 10.848C46.7831 10.6105 46.6595 10.7445 46.825 10.7323C46.7774 10.5343 46.7223 10.7901 46.8098 10.5283C46.8364 10.446 46.8954 10.3973 46.9563 10.3181C46.9601 10.3242 46.962 10.3303 46.962 10.3425L46.9848 10.446C46.9848 10.446 46.9886 10.4643 46.9905 10.4734C47.0419 10.3638 47.0438 9.92229 47.312 10.0563C47.3425 9.97406 47.3292 9.98015 47.3197 9.87052C47.5556 9.99233 47.4395 9.88879 47.449 9.87052L47.468 9.8218C47.5346 9.70304 48.1663 9.19452 48.3527 9.09403C48.5791 8.97223 48.7503 8.81389 49.0186 8.81693V8.82302ZM38.7203 11.4357C38.5415 11.4357 38.2371 11.1799 38.0849 11.0794L37.4551 10.6044C37.3391 10.5069 37.2116 10.5343 37.3581 10.1872C37.4761 9.91011 37.6359 9.89184 37.7919 10.0837C37.9821 10.3181 37.7538 10.1019 38.0335 10.2055C38.0202 10.3121 37.9878 10.2359 38.0164 10.3516C38.0221 10.3516 38.0316 10.3486 38.0335 10.3486C38.0354 10.3486 38.0487 10.3456 38.0525 10.3456C38.0563 10.3456 38.0677 10.3456 38.0716 10.3456C38.3037 10.3334 38.1419 10.5374 38.3341 10.5618C38.5928 10.5952 38.7527 10.8967 38.96 11.0703C39.0856 11.1738 39.0989 11.1312 39.1179 11.1403L40.4097 12.1878C40.6266 12.3583 41.0851 12.8334 41.3153 12.8456C41.2887 13.0039 41.4048 12.943 41.0204 12.7877C40.6666 12.6446 40.3489 12.4253 40.0159 12.2487L39.3481 11.8346C39.3386 11.8285 39.3101 11.8072 39.3006 11.8011L39.2587 11.7767C39.1788 11.7371 39.2587 11.7767 39.1997 11.7554C38.9087 11.6549 38.9505 11.4418 38.7431 11.5758C38.7222 11.4448 38.8116 11.4753 38.7184 11.4357H38.7203ZM41.5436 11.6854C41.6901 11.7158 41.5703 11.6549 41.7206 11.8102C41.8043 11.8955 41.791 11.8772 41.8614 11.9838C41.9508 12.1208 42.0421 12.2274 42.0687 12.4253C41.8975 12.1695 41.9964 12.2609 41.7605 12.0264L41.5817 11.8072C41.5455 11.7311 41.5703 11.8194 41.5436 11.6823V11.6854ZM36.7398 12.6233C36.8444 12.4497 36.7931 12.5136 36.8254 12.2914C36.8787 11.9381 36.9909 11.9199 37.2554 11.9564C37.5408 11.999 37.5636 11.8468 37.8375 12.063C37.8413 12.063 37.849 12.0752 37.8528 12.0782L38.1648 12.0234C38.1648 12.0234 38.1438 12.0417 38.14 12.0477C37.9098 12.3188 38.1039 11.9168 38.0849 12.133C38.0849 12.1391 38.102 12.1574 38.1096 12.1574C38.239 12.1421 38.0696 12.0752 38.2827 12.0812C38.3436 12.0812 38.3607 12.1086 38.4311 12.1452L39.5441 12.6537C39.6773 12.7877 39.5821 12.7146 39.7629 12.7633L39.9665 12.9948C40.0254 12.9491 40.0426 12.8973 40.1129 12.9278C40.2575 12.9887 40.1833 12.8882 40.2157 13.214C40.0368 13.0952 40.17 13.1135 40.0026 13.1044L38.5015 12.7664C37.3067 12.4619 37.7805 12.6415 36.7417 12.6233H36.7398ZM50.3998 16.0581C51.0295 15.6561 50.7556 15.9028 51.5318 15.3151C51.6593 15.2177 51.7202 15.2177 51.8362 15.1324C51.9485 15.0502 51.9846 14.968 52.0778 14.8979L52.8445 14.2037C52.9035 14.1428 52.9929 14.0362 53.0709 13.9479L53.1718 13.823C53.5979 13.3449 53.9556 12.9643 54.163 11.8894C54.1687 11.9016 54.1725 11.9199 54.1744 11.929L54.2905 12.4192C54.3019 12.4954 54.3247 12.6476 54.3323 12.7055C54.3551 12.8882 54.3418 12.8456 54.3171 12.9521L54.2866 13.077C54.0032 14.2311 52.4222 15.3547 51.6136 15.6775C51.3206 15.7962 50.6243 16.0642 50.3998 16.0581ZM42.4492 19.0088C42.4093 19.2402 42.3427 19.2646 42.2609 19.429C41.5684 20.8023 42.2495 21.3717 42.6927 21.0459L43.6992 19.8888C43.8609 19.6482 43.9788 19.4138 44.1463 19.1915C44.4431 18.7987 44.698 18.211 44.9853 17.7633C45.5465 16.8894 45.7273 16.3504 46.2314 15.51C46.3684 15.2816 46.5358 15.1172 46.6842 14.8797C46.8307 14.6482 47.312 13.8352 47.4852 13.6738C47.5613 13.6007 47.5327 13.6464 47.6088 13.5368C47.8333 13.2171 48.5011 12.5471 48.7579 12.5837C48.7351 12.9004 48.5962 13.616 48.3946 13.7195C48.3813 13.4972 48.3527 13.5398 48.3679 13.2445C48.0331 13.3845 48.0845 13.3815 47.8809 13.6982L47.3197 14.6056C47.2397 14.7518 47.2911 14.7335 47.2131 14.8857C47.2074 14.8979 47.1846 14.9314 47.177 14.9406L44.9682 19.161C44.5077 19.9132 44.3194 20.0471 43.9941 20.5404C43.5679 21.186 43.4842 21.2773 43.0143 21.6823L42.6566 21.9503C42.4892 22.0873 42.2913 22.1665 42.0801 22.1635C41.732 22.1574 41.8328 22.1969 41.6844 21.996L41.6083 21.8924C41.321 21.4265 41.6521 20.4156 41.848 20.0075C41.9831 19.7244 42.2837 19.1519 42.4511 19.0057L42.4492 19.0088ZM36.4753 14.8553C36.4792 14.3985 36.5381 14.3407 36.7531 14.2037C37.0708 14.0027 38.1039 13.8778 38.4559 13.9174L38.981 13.9387C39.116 13.9905 39.0285 13.9722 39.0628 13.9996C39.2074 14.1093 39.5707 14.024 39.8124 14.0697C40.3184 14.161 39.799 14.2341 40.6095 14.2463C40.6628 14.2463 40.8435 14.3407 40.9501 14.365C41.1707 14.4138 41.6426 14.4229 41.888 14.5873C41.7643 14.6635 40.4497 14.3924 40.2195 14.3894C39.9684 14.3894 39.8162 14.3346 39.584 14.3315C39.0837 14.3224 38.7127 14.298 38.1914 14.3772C37.6587 14.4594 37.2344 14.4138 36.7094 14.7122C36.5381 14.8096 36.658 14.834 36.4753 14.8583V14.8553ZM49.8652 17.2244C49.9071 17.1117 49.8957 17.0965 49.9889 17.0538C50.0269 17.0356 50.1068 17.0082 50.1449 16.9899C50.2628 16.9351 50.3104 16.929 50.4246 16.9899C50.8222 17.197 50.5482 16.7737 51.0543 16.8589C51.3168 16.9046 51.2122 16.7067 51.3606 16.795C51.5299 16.8924 51.2921 16.8102 51.41 16.8285C51.4538 16.8346 51.4957 16.7889 51.5375 16.7554C51.7506 16.5879 51.7506 16.7311 51.8838 16.6762C51.9256 16.661 52.0759 16.5423 52.1958 16.5027C52.4717 16.4144 52.6809 16.4357 52.9435 16.3078C53.4058 16.0794 54.3266 15.4065 54.6234 14.8644C54.6614 15.3943 54.3323 15.5587 54.0698 15.9119C53.5123 16.6641 52.7532 16.7767 51.9884 17.0295L51.2826 17.1269C50.9839 17.1817 50.4531 17.2579 50.1772 17.1513L49.8652 17.2213V17.2244ZM40.4973 15.2694C40.7427 15.2725 41.38 15.1781 41.4599 15.2572L40.033 15.5496C39.1693 15.6501 39.3653 15.6592 38.6062 15.8541C38.4349 15.8998 38.4235 15.9119 38.258 15.985L37.6111 16.2286C37.4038 16.3322 36.9947 16.6641 36.8026 16.8589C36.4506 17.2183 36.599 17.1208 36.4906 17.3218C36.4354 17.4253 36.4734 17.3949 36.3878 17.4284C36.4011 17.0995 36.3878 16.7097 36.3669 16.4966L37.0233 15.9759C37.2459 15.848 37.3809 15.8632 37.5807 15.714C37.5959 15.7018 37.6777 15.6683 37.7291 15.644C38.0525 15.4887 38.4368 15.4125 38.7508 15.3699L38.8915 15.3638C39.3253 15.3547 39.019 15.4674 39.331 15.3425C39.565 15.2512 39.584 15.3882 39.8409 15.306C40.0311 15.2451 40.2937 15.2664 40.4992 15.2694H40.4973ZM41.3382 15.9881C41.5246 15.918 41.8461 15.8175 42.0174 15.8815C42.1372 15.9241 42.0174 15.8906 42.1734 15.8236C42.141 16.0459 42.1715 16.0063 42.0459 16.0246C41.7757 16.0611 41.9546 15.9667 41.7263 15.9911L41.8347 16.1647L41.4942 16.1982C41.5912 16.0977 41.517 16.2134 41.5741 16.0764C41.4143 15.9881 41.536 16.0703 41.4466 16.052C41.3363 16.0276 41.3838 16.052 41.3401 15.9911L41.3382 15.9881ZM40.7103 16.2652C40.716 16.2499 40.7122 16.2317 40.7351 16.1586C40.7522 16.4296 40.6647 16.3382 40.8454 16.3078C40.8587 16.2043 40.7693 16.3078 40.8739 16.1951C41.0071 16.052 41.068 16.1281 41.3667 16.2256C41.4523 16.253 41.4086 16.2317 41.4409 16.2713C41.3439 16.3261 41.1593 16.39 41.0623 16.4022C40.7237 16.4448 40.3679 16.6367 40.0502 16.795C39.8009 16.9199 39.6012 17.0173 39.371 17.1665C39.2568 17.2426 39.1617 17.2974 39.0399 17.3705L38.1457 17.9613C37.9289 18.1744 37.5959 18.3815 37.3029 18.756L36.6142 19.8005C36.4925 19.1702 36.4868 19.225 36.6428 18.9326L36.8539 18.5977C37.5103 17.7268 37.7215 17.4619 38.6005 17.0508C39.1255 16.8041 38.6537 16.8437 39.2911 16.8529L39.1541 16.7585C39.3101 16.7524 39.2682 16.7097 39.3615 16.7006C39.5251 16.6854 39.3519 16.7676 39.5707 16.7189C39.6811 16.6945 39.5612 16.725 39.6411 16.6458L39.7096 16.5818C39.7096 16.5818 39.8485 16.4996 39.8656 16.4905C40.0178 16.4083 40.1206 16.3809 40.2442 16.4722C40.307 16.3017 40.1624 16.3839 40.3508 16.2926C40.4002 16.527 40.1852 16.3626 40.3736 16.4205C40.3926 16.4265 40.3774 16.4296 40.3983 16.4113L40.425 16.3748C40.4744 16.2956 40.425 16.2834 40.4915 16.2499C40.6837 16.1494 40.6437 16.2987 40.6666 16.387C40.697 16.3261 40.6818 16.3626 40.7084 16.2713L40.7103 16.2652ZM41.7624 18.8474C41.6825 19.1397 41.4504 19.4138 41.3058 19.6391C41.0642 20.0167 40.6247 20.8449 40.5163 21.3291C40.3203 22.2091 40.2785 22.5197 40.3945 23.4058C40.4097 23.5246 40.4478 23.6921 40.4782 23.7712C40.5182 23.8748 40.4782 23.7926 40.5429 23.8961C41.1365 24.8431 41.2221 24.7883 41.9926 24.8005C42.1372 24.8005 42.3712 24.6574 42.4892 24.6056C42.6547 24.5356 42.8202 24.4259 42.9819 24.3163C43.4747 23.9874 43.7791 23.6129 44.1748 23.0678C44.2985 22.8973 44.4107 22.7268 44.5268 22.5532L45.7995 20.3486C45.9156 20.1293 45.9841 19.9131 46.083 19.7274C46.3475 19.2402 46.5415 18.6799 46.7432 18.1166L46.981 17.4253C47.0609 17.1817 47.2531 16.5392 47.371 16.4205L47.3101 16.8194C47.2702 17.0691 47.2664 17.0173 47.2131 17.2457L47.0057 18.3723C46.8117 19.2585 46.5682 20.2207 46.2714 21.0063L45.771 22.4192C45.2212 23.9722 44.3822 25.3334 43.4024 26.2043C43.1075 26.4661 42.1772 26.9412 41.8575 26.9107C41.6464 26.8894 40.99 26.5971 40.7978 26.46C40.4516 26.2164 40.3622 26.1342 40.0768 25.4613C39.7039 24.5812 39.7515 24.9466 39.6316 23.9966C39.5213 23.1196 39.5707 23.0008 39.7743 22.2822C39.9322 21.725 40.3508 20.8541 40.6609 20.4156C40.9329 20.0289 41.5132 18.954 41.7605 18.8474H41.7624ZM41.1784 16.9259C41.342 16.9259 41.3267 16.9077 41.4656 16.8346L41.5056 16.8163C41.5056 16.8163 41.5208 16.8163 41.5265 16.8133L42.3103 16.5666C42.2095 16.6854 42.1277 16.7128 42.0059 16.7737C41.5931 16.9808 41.869 16.8559 41.6901 16.8529C41.6901 16.8529 41.576 16.9046 41.5303 16.9168C41.6768 16.9655 41.6083 16.9564 41.6407 17.0082L41.3001 17.2274C41.2259 17.1239 41.2887 17.1756 41.1784 17.1421V16.9259ZM40.9995 17.2548C41.0737 17.2639 41.1422 17.2426 41.2107 17.1848C41.1593 17.3979 40.1396 18.0861 39.9455 18.2231C39.8257 18.3084 39.7686 18.3632 39.6525 18.485C39.1617 19.0027 38.8135 19.0575 38.2276 20.0989L38.1058 20.2968C37.9593 20.5161 38.1001 20.379 37.8185 20.8632C37.8128 20.8723 37.8071 20.8845 37.8014 20.8937C37.7976 20.9028 37.79 20.915 37.7862 20.9211C37.3828 21.658 37.4418 22.9917 37.3372 23.2536C37.3144 23.1927 37.1793 22.5715 37.1583 22.4801C37.0918 22.1969 37.0119 21.9747 37.0899 21.5483C37.1603 21.1647 37.4551 20.4704 37.6226 20.1933C38.1438 19.3346 38.121 19.4655 38.5795 18.8717L38.8211 18.616C38.9429 18.4607 38.9943 18.4028 39.1332 18.5033C39.137 18.4942 39.1408 18.4667 39.1408 18.4728L39.1617 18.3845C39.1693 18.3541 39.1769 18.3054 39.1902 18.2658C39.2949 18.3145 39.2606 18.2749 39.3101 18.4089C39.3615 18.2962 39.2968 18.0161 39.4851 18.2475C39.5156 17.9217 39.4965 18.08 39.7153 17.9552L39.7648 17.9339C39.8181 17.8882 39.82 17.8486 39.8808 17.7572C39.8865 17.7694 39.8923 17.7755 39.8942 17.7938C39.8942 17.8151 39.9113 17.8456 39.9132 17.8547C39.9132 17.8638 39.9132 17.8912 39.917 17.9095C39.9931 17.742 39.8865 17.8242 40.0368 17.6811C40.1358 17.5867 40.0616 17.6568 40.132 17.6324C40.1415 17.6294 40.17 17.6263 40.1776 17.6233C40.3812 17.5471 40.1967 17.5289 40.3679 17.5075C40.4516 17.4984 40.425 17.5075 40.5315 17.3462C40.5791 17.3949 40.5676 17.535 40.8055 17.3949C40.7008 17.063 40.7693 17.3979 40.6304 17.334L40.7712 17.1756C40.8892 17.2457 40.8682 17.3188 40.9976 17.3066C40.9424 17.2335 40.9482 17.2396 40.9615 17.0812C41.049 17.066 41.0794 17.0386 41.1384 16.9929C41.1175 17.1665 41.1289 17.0569 41.0376 17.2L41.0052 17.2579L40.9995 17.2548ZM54.6462 17.7268C54.6272 17.809 54.6272 17.8456 54.5169 17.9613C54.4921 17.9856 54.4997 17.9887 54.4426 18.0222C54.3399 18.08 54.2086 18.0618 54.0774 18.1105C53.9613 18.1531 53.8852 18.214 53.7844 18.2353C53.2973 18.3389 52.7494 18.3419 52.2453 18.3328L51.7867 18.3754C51.6288 18.3754 50.3751 18.2566 50.2647 18.1622C50.1829 18.0922 50.1829 18.013 50.1791 17.9613C50.318 17.9978 50.1943 18.0313 50.4379 18.0374C50.4493 18.0374 50.4797 18.0374 50.4911 18.0374L50.6395 18.0496C50.8146 18.0861 51.0904 17.9308 51.3035 18.0892C51.4557 18.2018 51.3168 18.0678 51.4823 18.0709C51.4842 18.0709 51.5565 18.1044 51.5756 18.1105C51.7049 18.147 51.6212 18.1227 51.7963 18.0983L51.9332 18.0648C52.1425 17.9247 51.9979 17.9491 52.3214 17.9826C52.5991 18.013 52.797 17.9125 53.0386 17.879C53.4495 17.8212 54.1211 17.6903 54.4845 17.4345C54.5188 17.4101 54.612 17.3279 54.6139 17.3279C54.709 17.2883 54.6519 17.538 54.65 17.7237L54.6462 17.7268ZM38.6081 24.6482C38.6024 25.647 38.8192 26.1251 39.1902 26.9747C39.2644 27.1452 39.3881 27.334 39.4376 27.5441C39.2054 27.404 39.3653 27.4253 39.2093 27.2304C39.0133 26.9868 39.1921 27.1635 39.0475 26.9138L38.9524 26.7737C38.882 26.6671 38.8535 26.5423 38.7032 26.5453C38.7983 26.3321 38.688 26.3169 38.5947 26.2134L38.5053 26.0337C38.5053 26.0337 38.4977 26.0063 38.4939 25.9941L38.3208 25.5313C38.2047 25.1293 38.1857 23.9022 38.1876 23.3906C38.1895 23.0191 38.5053 21.8041 38.6176 21.527C38.9144 20.7779 39.8104 19.496 40.2956 19.0697C40.4154 18.9631 40.4345 18.9448 40.5353 18.8322C40.6647 18.686 40.7122 18.7195 40.8188 18.6068L41.3115 18.1561C41.3115 18.4302 41.2716 18.2018 40.9824 18.5916C40.2518 19.5721 40.0958 19.5904 39.3158 21.1251C39.0799 21.591 38.9429 22.1147 38.8078 22.6476C38.648 23.2779 38.6138 23.8382 38.6081 24.6421V24.6482ZM49.4524 18.9387C49.6788 18.9418 50.4493 19.1762 50.6586 19.2828C51.0162 19.4655 52.6904 19.7974 53.2269 19.8583C53.4476 19.8827 53.7159 19.8157 53.8947 19.7304C54.0279 19.6665 54.0888 19.703 54.2277 19.6482C54.4331 19.5721 54.3076 19.5051 54.5035 19.4868C54.5111 19.6939 54.4693 19.8248 54.416 19.9619C54.1858 19.9923 53.9727 19.9801 53.7711 20.0441C53.5466 20.1172 53.3164 20.1689 53.1166 20.1689C52.7399 20.1689 51.6269 19.8583 51.2369 19.6695C50.9592 19.5356 49.6274 19.2189 49.4543 18.9387H49.4524ZM53.7806 21.6245C54.0469 21.6275 54.0241 21.5575 54.1611 21.6884L54.1249 22.0203C54.0507 21.9625 54.0736 21.9838 54.0355 21.8742L53.967 22.1635C53.9271 22.2913 54.0222 22.2426 53.9518 22.1787C53.8148 22.337 53.558 22.1665 53.2973 22.0356C53.0082 21.8864 53.128 22.0021 52.6714 21.7311C52.2605 21.4844 51.8781 21.2895 51.49 21.0063L49.888 20.0015C49.8481 19.968 49.8576 19.9741 49.8176 19.9406L49.1575 19.499C49.3249 19.3924 49.5094 19.5995 49.5989 19.6635C49.6065 19.6695 49.616 19.6756 49.6255 19.6817L51.918 20.9546C51.9903 20.9941 51.9656 20.9789 52.0531 21.0185L52.5078 21.2103C52.8274 21.3291 53.4724 21.6214 53.7806 21.6245ZM48.0179 20.3669C48.1377 20.4521 48.075 20.6653 48.2195 20.985C48.3927 21.3717 48.8493 23.3297 48.9577 23.9174C49.0376 24.3498 49.0186 24.4594 49.049 24.6909C49.0624 24.7853 49.0947 24.8309 49.1346 25.0258C49.3249 25.9881 49.3382 28.013 49.0947 29.0879C49.0928 29.0971 49.089 29.1153 49.0871 29.1245L48.5677 30.175C48.4231 30.3638 48.2956 30.3943 48.0141 30.5861L47.3501 30.9119C47.3767 30.848 47.3653 30.8236 47.4243 30.711L47.7915 29.9954C47.9151 29.7335 48.0749 29.2097 48.1453 28.8626C48.1796 28.689 48.2405 28.4332 48.2861 28.2262C48.543 27.0508 48.6191 24.3864 48.406 23.1013L48.2119 21.7219C48.1739 21.5027 48.0826 20.5739 48.0179 20.3669ZM49.2107 20.9272C49.4524 20.9332 49.4029 21.0794 49.5361 21.1769L49.9356 21.5971C50.0326 21.7036 50.1335 21.7463 50.2628 21.9259L51.0315 22.7907C51.0923 22.8547 51.0315 22.7907 51.0904 22.8669C51.098 22.879 51.1228 22.9095 51.1304 22.9217L51.3454 23.1592C51.3454 23.1592 51.353 23.1775 51.3549 23.1805C51.3948 23.2719 51.3168 23.3571 51.4367 23.1592C51.4557 23.5368 51.5052 23.3358 51.6136 23.3845C51.6269 23.4485 51.6136 23.4485 51.6136 23.4637C51.6117 23.5094 51.5984 23.3937 51.6022 23.5733L51.7278 23.5185C51.7278 23.5185 51.7468 23.5063 51.7563 23.5033C51.762 23.82 51.7068 23.6829 51.8039 23.8017C51.8705 23.8839 51.8134 23.8656 51.8533 23.7043C51.8533 23.6982 51.8552 23.6799 51.8609 23.6677C51.9123 23.7834 52.1254 24.0088 52.2072 24.1823L52.6048 24.8553C52.8845 25.3973 53.05 25.3029 52.4945 26.3139L52.5192 25.9424C52.4888 25.9363 52.4507 26.1373 52.3556 25.8114C52.211 25.3181 52.1045 25.0593 51.8819 24.5904C51.8267 24.4777 51.7753 24.365 51.7049 24.2463L49.6902 21.5301C49.6179 21.4265 49.6293 21.4113 49.5893 21.3535L49.2127 20.918L49.2107 20.9272ZM47.6925 23.7773C47.6887 24.4351 47.5289 25.2999 47.4547 25.9058C47.3748 26.5666 47.0628 27.5258 46.865 28.144L46.7413 28.4789C46.7185 28.5368 46.7089 28.555 46.6899 28.6007C46.3608 29.4533 46.6081 28.9448 46.2542 29.5416C46.2466 29.5538 46.2276 29.5934 46.22 29.6056L46.0754 29.8279C46.0412 29.901 46.1039 29.8157 46.0412 29.901L45.6759 30.2451C44.9434 30.8815 44.093 30.8876 43.2939 30.7231C42.9572 30.6531 43.0523 30.6074 42.9705 30.58C42.9191 30.5648 42.9268 30.58 42.8392 30.6135C42.7498 30.5983 42.7327 30.2907 42.531 30.3912C42.4378 30.4369 42.6243 30.3821 42.4511 30.4613C42.4473 30.4552 42.4473 30.4308 42.4454 30.4369C42.4454 30.4369 42.4302 30.3242 42.3617 30.2694L42.0573 30.0684C41.8176 29.9406 41.3115 29.4868 41.165 29.5203C41.1593 29.5203 41.1156 29.563 41.0946 29.5721C41.0946 29.1823 40.9139 29.1458 40.8454 29.4016L40.8207 29.0666C40.8892 29.0666 40.8473 29.0666 40.8778 29.091L40.9786 29.1854C41.2126 29.3559 41.7719 29.5538 42.0269 29.6239C42.3655 29.7183 42.2171 29.77 42.63 29.7761C42.7498 29.7761 42.7593 29.6909 42.9096 29.6939C43.0333 29.6969 43.0447 29.7304 43.1741 29.703C43.4519 29.6421 43.4956 29.6787 43.7696 29.5538C44.171 29.3711 44.2186 29.228 44.5382 28.9083C44.6257 28.823 44.6866 28.7377 44.7627 28.6464C45.0956 28.2475 45.5047 27.675 45.7025 27.0934C45.7672 26.9016 45.7786 26.9016 45.8623 26.7311C46.0982 26.2499 46.2447 25.6927 46.4045 25.1598L46.8383 23.4728C46.8783 23.2658 46.8383 23.2201 46.8916 23.0465C47.0153 22.6263 47.1066 22.136 47.177 21.6123L47.4129 19.496C47.4662 19.1762 47.4129 18.5429 47.4719 18.351C47.6088 18.4881 47.4852 18.2871 47.5556 18.9265C47.7078 20.3303 47.6279 19.563 47.6469 20.9972L47.664 23.0313C47.6621 23.3206 47.6906 23.549 47.6906 23.7652L47.6925 23.7773ZM50.6966 21.2652L51.0866 21.5758C51.0866 21.5758 51.098 21.6001 51.1018 21.6092C51.1056 21.6184 51.1133 21.6367 51.1152 21.6427C51.119 21.6488 51.1228 21.6702 51.1285 21.6793L51.1494 21.6275C51.1494 21.6275 51.1551 21.6062 51.157 21.6032C51.157 21.6032 51.1608 21.5666 51.1665 21.5423C51.4443 21.6976 51.176 21.5636 51.2883 21.8255C51.5584 21.5849 51.3644 21.862 51.7183 21.9351C51.6669 22.1817 51.6536 21.9655 51.665 22.0721C51.6764 22.1787 51.7106 22.0599 51.7696 22.0599C51.8438 22.0599 51.8495 22.0812 51.9009 22.1421C51.937 22.1848 51.9066 22.1574 51.9599 22.2183C51.9656 22.2244 51.9751 22.2365 51.9808 22.2426C52.0931 22.3675 52.2319 22.4071 52.3955 22.5898L52.5458 22.7055C52.5573 22.7116 52.62 22.7298 52.6505 22.7481C52.7057 22.7846 52.6752 22.7694 52.7057 22.7938L53.2231 23.1592C53.2802 23.1988 53.3221 23.2384 53.3849 23.2932C53.5009 23.3937 53.5561 23.5063 53.5789 23.7012C53.5066 23.8687 53.4553 23.8991 53.4476 24.1549C53.2669 24.1032 52.9244 23.6068 52.7665 23.4272L50.9972 21.6702C50.7232 21.2834 50.7746 21.4935 50.6985 21.2652H50.6966ZM48.8017 21.594C49.0186 21.8437 49.9033 23.9418 50.0802 24.563C50.3618 25.5496 50.3446 25.2572 50.5863 26.4509C50.6167 26.6001 50.6643 26.8955 50.6776 27.066C50.7727 28.3297 50.6662 28.0435 50.6167 28.7408C50.5901 29.1184 50.6357 28.9418 50.4474 29.2463C50.1677 29.7 50.3427 29.6178 49.9698 29.6208C49.9775 29.1823 50.0402 29.1793 50.0764 28.5246C50.0954 28.1805 50.1182 27.8273 50.0859 27.4101C50.0555 27.0295 50.006 26.661 49.9698 26.2865C49.9299 25.8663 49.8538 25.6257 49.7815 25.242C49.5665 24.1214 49.3801 23.5155 49.089 22.4741C48.9805 22.0812 48.9634 22.1969 48.8017 21.594ZM49.3744 21.8407L50.2781 23.077C50.611 23.5246 50.4398 23.1775 50.7803 23.8565C50.8051 23.9052 50.8012 23.89 50.8241 23.957C50.8279 23.9661 50.8317 23.9814 50.8336 23.9905C50.9344 24.3194 50.7251 23.8382 50.9211 24.1823C50.9934 24.3102 50.9363 24.2767 50.9706 24.3924C50.9744 24.3924 50.982 24.3864 50.982 24.3924C51.0048 24.5477 50.9915 24.3924 51.0238 24.3864H51.0562C51.1114 24.7457 51.0562 24.4229 51.1532 24.6543L51.1989 24.7792C51.2864 24.9649 51.294 24.8736 51.4196 25.2055C51.6155 25.717 51.899 26.1921 51.9028 26.8376C51.9028 27.0295 51.9028 26.9107 51.9104 26.996C51.9275 27.1513 51.977 26.9564 51.9047 27.2304C51.8039 27.608 51.7221 27.6324 51.5946 27.7694C51.4804 27.8882 51.5109 27.9339 51.3986 27.9278C51.4177 27.7816 51.3454 27.9643 51.4291 27.876L51.5033 27.8151C51.2502 27.2761 51.4158 27.5684 51.334 26.9016C51.3016 26.6367 50.9725 25.4978 50.9078 25.3364L49.3725 21.8468L49.3744 21.8407Z" fill="white"/>
</svg>
